M48
;DRILL file {KiCad 4.0.7+dfsg1-1ubuntu2} date Fri Sep 14 11:38:23 2018
;FORMAT={-:-/ absolute / metric / decimal}
FMAT,2
METRIC,TZ
T1C0.400
T2C0.750
T3C0.800
T4C1.000
T5C1.100
T6C1.200
%
G90
G05
M71
T1
X92.71Y-96.52
X92.71Y-129.54
X93.98Y-105.41
X93.98Y-128.27
X96.52Y-118.41
X97.79Y-97.79
X99.06Y-91.44
X99.06Y-111.76
X99.06Y-124.125
X99.06Y-128.27
X99.145Y-104.225
X99.568Y-101.6
X101.6Y-108.925
X102.87Y-97.79
X102.87Y-115.57
X102.87Y-120.65
X104.09Y-105.09
X104.14Y-113.792
X105.41Y-120.65
X105.41Y-132.08
X106.68Y-101.6
X106.68Y-128.27
X106.706Y-103.053
X107.69Y-129.54
X109.14Y-128.905
X109.22Y-103.505
X109.22Y-118.11
X110.41Y-104.14
X110.49Y-107.95
X110.49Y-121.92
X110.49Y-123.19
X111.76Y-109.22
X111.76Y-127.
X111.76Y-135.89
X113.03Y-139.7
X113.284Y-122.682
X114.3Y-100.9
X115.6Y-133.35
X118.11Y-139.7
X118.11Y-149.86
X118.618Y-114.3
X120.65Y-139.7
X121.285Y-116.205
X123.19Y-97.79
X123.19Y-137.16
X124.46Y-147.32
X128.27Y-97.79
X128.27Y-143.51
X129.54Y-97.79
X129.54Y-139.7
X134.62Y-96.52
X134.874Y-140.716
X135.382Y-133.35
X136.067Y-119.126
X136.398Y-97.282
X137.922Y-137.668
X138.43Y-118.11
X138.43Y-133.35
X139.446Y-103.124
X143.51Y-91.925
X144.78Y-102.87
X144.78Y-125.73
X144.78Y-132.08
X144.78Y-133.35
X144.78Y-138.43
X146.05Y-115.57
T2
X91.44Y-101.6
X91.44Y-104.14
X91.44Y-106.68
X92.075Y-90.805
X94.615Y-90.805
X97.155Y-90.805
T3
X119.38Y-89.535
X119.38Y-94.615
X121.92Y-92.075
X127.Y-89.535
X127.Y-94.615
X129.54Y-92.075
X139.065Y-147.955
X141.605Y-150.495
X144.145Y-147.955
T4
X117.459Y-107.95
X117.459Y-110.49
X117.459Y-113.03
X117.459Y-115.57
X117.459Y-118.11
X117.459Y-120.65
X117.459Y-123.19
X117.459Y-125.73
X117.459Y-128.27
X117.459Y-130.81
X117.459Y-133.35
X117.459Y-135.89
X117.459Y-138.43
X117.459Y-140.97
X117.459Y-143.51
X117.459Y-146.05
X117.459Y-148.59
X132.715Y-107.95
X132.715Y-110.49
X132.715Y-113.03
X132.715Y-115.57
X132.715Y-118.11
X132.715Y-120.65
X132.715Y-123.19
X132.715Y-125.73
X132.715Y-128.27
X132.715Y-130.81
X132.715Y-133.35
X132.715Y-135.89
X132.715Y-138.43
X132.715Y-140.97
X132.715Y-143.51
X132.715Y-146.05
X132.715Y-148.59
T5
X107.99Y-92.71
X112.99Y-92.71
X142.24Y-100.37
X142.24Y-105.37
T6
X92.71Y-114.3
X92.71Y-116.84
X92.71Y-119.38
X92.71Y-121.92
X92.71Y-124.46
X92.71Y-127.
X92.71Y-133.35
X92.71Y-135.89
X92.71Y-138.43
X92.71Y-140.97
X92.71Y-143.51
X92.71Y-146.05
X142.24Y-110.49
X142.24Y-113.03
X142.24Y-115.57
X142.24Y-118.11
X142.24Y-120.65
X142.24Y-123.19
T0
M30
