M48
;DRILL file {KiCad 4.0.7+dfsg1-1ubuntu2} date Fri Sep 14 11:49:54 2018
;FORMAT={-:-/ absolute / metric / decimal}
FMAT,2
METRIC,TZ
T1C1.000
T2C1.100
T3C1.200
%
G90
G05
M71
T1
X87.57Y-40.64
X89.27Y-35.56
X90.97Y-40.64
X92.67Y-35.56
X94.37Y-40.64
X96.07Y-35.56
X97.77Y-40.64
X99.47Y-35.56
X101.17Y-40.64
X102.87Y-35.56
X104.57Y-40.64
T2
X74.93Y-27.98
X74.93Y-32.98
X113.03Y-25.44
X113.03Y-30.44
T3
X74.93Y-39.37
X74.93Y-41.91
X74.93Y-44.45
X74.93Y-46.99
X74.93Y-49.53
X74.93Y-52.07
T0
M30
