G04 #@! TF.FileFunction,Soldermask,Top*
%FSLAX46Y46*%
G04 Gerber Fmt 4.6, Leading zero omitted, Abs format (unit mm)*
G04 Created by KiCad (PCBNEW 4.0.7+dfsg1-1ubuntu2) date Fri Sep 14 12:00:24 2018*
%MOMM*%
%LPD*%
G01*
G04 APERTURE LIST*
%ADD10C,0.100000*%
%ADD11C,2.100000*%
%ADD12R,2.100000X2.100000*%
%ADD13R,3.000000X2.400000*%
%ADD14O,3.000000X2.400000*%
%ADD15R,1.900000X1.650000*%
%ADD16R,1.900000X1.700000*%
%ADD17C,2.350000*%
%ADD18R,5.900000X2.550000*%
%ADD19R,1.700000X1.900000*%
%ADD20C,1.840000*%
%ADD21R,1.416000X1.416000*%
%ADD22C,1.850000*%
G04 APERTURE END LIST*
D10*
D11*
X132715000Y-107950000D03*
X132715000Y-110490000D03*
X132715000Y-113030000D03*
X132715000Y-115570000D03*
X132715000Y-118110000D03*
X132715000Y-120650000D03*
X132715000Y-123190000D03*
X132715000Y-125730000D03*
X132715000Y-128270000D03*
X132715000Y-130810000D03*
X132715000Y-133350000D03*
X132715000Y-135890000D03*
X132715000Y-138430000D03*
X132715000Y-140970000D03*
X132715000Y-143510000D03*
X132715000Y-146050000D03*
X132715000Y-148590000D03*
D12*
X117459000Y-107950000D03*
D11*
X117459000Y-110490000D03*
X117459000Y-113030000D03*
X117459000Y-115570000D03*
X117459000Y-118110000D03*
X117459000Y-120650000D03*
X117459000Y-123190000D03*
X117459000Y-125730000D03*
X117459000Y-128270000D03*
X117459000Y-130810000D03*
X117459000Y-133350000D03*
X117459000Y-135890000D03*
X117459000Y-138430000D03*
X117459000Y-140970000D03*
X117459000Y-143510000D03*
X117459000Y-146050000D03*
X117459000Y-148590000D03*
D13*
X92710000Y-114300000D03*
D14*
X92710000Y-116840000D03*
X92710000Y-119380000D03*
X92710000Y-121920000D03*
X92710000Y-124460000D03*
X92710000Y-127000000D03*
D15*
X111740000Y-133985000D03*
X109240000Y-133985000D03*
X105390000Y-133985000D03*
X102890000Y-133985000D03*
X111740000Y-137795000D03*
X109240000Y-137795000D03*
D16*
X111840000Y-125095000D03*
X109140000Y-125095000D03*
X105490000Y-125095000D03*
X102790000Y-125095000D03*
X111840000Y-128905000D03*
X109140000Y-128905000D03*
D13*
X92710000Y-133350000D03*
D14*
X92710000Y-135890000D03*
X92710000Y-138430000D03*
X92710000Y-140970000D03*
X92710000Y-143510000D03*
X92710000Y-146050000D03*
D17*
X112990000Y-92710000D03*
X107990000Y-92710000D03*
D13*
X142240000Y-123190000D03*
D14*
X142240000Y-120650000D03*
X142240000Y-118110000D03*
X142240000Y-115570000D03*
X142240000Y-113030000D03*
X142240000Y-110490000D03*
D18*
X135890000Y-90150000D03*
X135890000Y-94000000D03*
D19*
X101600000Y-113745000D03*
X101600000Y-111045000D03*
X111760000Y-120095000D03*
X111760000Y-117395000D03*
X106680000Y-120095000D03*
X106680000Y-117395000D03*
D20*
X127000000Y-94615000D03*
X129540000Y-92075000D03*
X127000000Y-89535000D03*
X119380000Y-94615000D03*
X121920000Y-92075000D03*
X119380000Y-89535000D03*
D15*
X105390000Y-137795000D03*
X102890000Y-137795000D03*
D16*
X105490000Y-128905000D03*
X102790000Y-128905000D03*
D17*
X142240000Y-105370000D03*
X142240000Y-100370000D03*
D21*
X120650000Y-100393500D03*
X120650000Y-98996500D03*
X128270000Y-100393500D03*
X128270000Y-98996500D03*
X124460000Y-100393500D03*
X124460000Y-98996500D03*
D18*
X142875000Y-90150000D03*
X142875000Y-94000000D03*
D19*
X101600000Y-120095000D03*
X101600000Y-117395000D03*
D20*
X139065000Y-147955000D03*
X141605000Y-150495000D03*
X144145000Y-147955000D03*
D22*
X91440000Y-104140000D03*
X91440000Y-101600000D03*
X91440000Y-106680000D03*
X94615000Y-90805000D03*
X97155000Y-90805000D03*
X92075000Y-90805000D03*
M02*
