G04 #@! TF.FileFunction,Copper,L1,Top,Signal*
%FSLAX46Y46*%
G04 Gerber Fmt 4.6, Leading zero omitted, Abs format (unit mm)*
G04 Created by KiCad (PCBNEW 4.0.7+dfsg1-1ubuntu2) date Fri Sep 14 12:00:24 2018*
%MOMM*%
%LPD*%
G01*
G04 APERTURE LIST*
%ADD10C,0.100000*%
%ADD11C,1.700000*%
%ADD12R,1.700000X1.700000*%
%ADD13R,2.600000X2.000000*%
%ADD14O,2.600000X2.000000*%
%ADD15R,1.500000X1.250000*%
%ADD16R,1.500000X1.300000*%
%ADD17C,1.950000*%
%ADD18R,5.500000X2.150000*%
%ADD19R,1.300000X1.500000*%
%ADD20C,1.440000*%
%ADD21R,1.016000X1.016000*%
%ADD22C,1.450000*%
%ADD23C,0.600000*%
%ADD24C,0.400000*%
%ADD25C,0.254000*%
G04 APERTURE END LIST*
D10*
D11*
X132715000Y-107950000D03*
X132715000Y-110490000D03*
X132715000Y-113030000D03*
X132715000Y-115570000D03*
X132715000Y-118110000D03*
X132715000Y-120650000D03*
X132715000Y-123190000D03*
X132715000Y-125730000D03*
X132715000Y-128270000D03*
X132715000Y-130810000D03*
X132715000Y-133350000D03*
X132715000Y-135890000D03*
X132715000Y-138430000D03*
X132715000Y-140970000D03*
X132715000Y-143510000D03*
X132715000Y-146050000D03*
X132715000Y-148590000D03*
D12*
X117459000Y-107950000D03*
D11*
X117459000Y-110490000D03*
X117459000Y-113030000D03*
X117459000Y-115570000D03*
X117459000Y-118110000D03*
X117459000Y-120650000D03*
X117459000Y-123190000D03*
X117459000Y-125730000D03*
X117459000Y-128270000D03*
X117459000Y-130810000D03*
X117459000Y-133350000D03*
X117459000Y-135890000D03*
X117459000Y-138430000D03*
X117459000Y-140970000D03*
X117459000Y-143510000D03*
X117459000Y-146050000D03*
X117459000Y-148590000D03*
D13*
X92710000Y-114300000D03*
D14*
X92710000Y-116840000D03*
X92710000Y-119380000D03*
X92710000Y-121920000D03*
X92710000Y-124460000D03*
X92710000Y-127000000D03*
D15*
X111740000Y-133985000D03*
X109240000Y-133985000D03*
X105390000Y-133985000D03*
X102890000Y-133985000D03*
X111740000Y-137795000D03*
X109240000Y-137795000D03*
D16*
X111840000Y-125095000D03*
X109140000Y-125095000D03*
X105490000Y-125095000D03*
X102790000Y-125095000D03*
X111840000Y-128905000D03*
X109140000Y-128905000D03*
D13*
X92710000Y-133350000D03*
D14*
X92710000Y-135890000D03*
X92710000Y-138430000D03*
X92710000Y-140970000D03*
X92710000Y-143510000D03*
X92710000Y-146050000D03*
D17*
X112990000Y-92710000D03*
X107990000Y-92710000D03*
D13*
X142240000Y-123190000D03*
D14*
X142240000Y-120650000D03*
X142240000Y-118110000D03*
X142240000Y-115570000D03*
X142240000Y-113030000D03*
X142240000Y-110490000D03*
D18*
X135890000Y-90150000D03*
X135890000Y-94000000D03*
D19*
X101600000Y-113745000D03*
X101600000Y-111045000D03*
X111760000Y-120095000D03*
X111760000Y-117395000D03*
X106680000Y-120095000D03*
X106680000Y-117395000D03*
D20*
X127000000Y-94615000D03*
X129540000Y-92075000D03*
X127000000Y-89535000D03*
X119380000Y-94615000D03*
X121920000Y-92075000D03*
X119380000Y-89535000D03*
D15*
X105390000Y-137795000D03*
X102890000Y-137795000D03*
D16*
X105490000Y-128905000D03*
X102790000Y-128905000D03*
D17*
X142240000Y-105370000D03*
X142240000Y-100370000D03*
D21*
X120650000Y-100393500D03*
X120650000Y-98996500D03*
X128270000Y-100393500D03*
X128270000Y-98996500D03*
X124460000Y-100393500D03*
X124460000Y-98996500D03*
D18*
X142875000Y-90150000D03*
X142875000Y-94000000D03*
D19*
X101600000Y-120095000D03*
X101600000Y-117395000D03*
D20*
X139065000Y-147955000D03*
X141605000Y-150495000D03*
X144145000Y-147955000D03*
D22*
X91440000Y-104140000D03*
X91440000Y-101600000D03*
X91440000Y-106680000D03*
X94615000Y-90805000D03*
X97155000Y-90805000D03*
X92075000Y-90805000D03*
D23*
X111760000Y-135890000D03*
X107689998Y-129540000D03*
X92710000Y-129540000D03*
X136398000Y-97282000D03*
X139446000Y-103124000D03*
X144780000Y-102870000D03*
X104140000Y-113792000D03*
X99060000Y-124125000D03*
X99060000Y-128270000D03*
X99144975Y-104224975D03*
X99060000Y-111760000D03*
X97790000Y-97790000D03*
X128270000Y-97790000D03*
X118110000Y-149860000D03*
X101600000Y-108924998D03*
X106705568Y-103053125D03*
X114300000Y-100900000D03*
X121285000Y-116205000D03*
X104089990Y-105090000D03*
X96520000Y-118410000D03*
X109220000Y-103505000D03*
X106680000Y-101600000D03*
X111760000Y-109220000D03*
X99568000Y-101600000D03*
X109140000Y-128905000D03*
X110490000Y-121920000D03*
X109220000Y-118110000D03*
X110490000Y-107950000D03*
X118618000Y-114300000D03*
X136067475Y-119126000D03*
X115600010Y-133350000D03*
X123190000Y-137160000D03*
X128270000Y-143510000D03*
X144780000Y-138430000D03*
X144780000Y-132080000D03*
X144780000Y-125730000D03*
X138430000Y-133350000D03*
X138430000Y-118110000D03*
X134874000Y-140716000D03*
X137922000Y-137668000D03*
X124460000Y-147320000D03*
X144780000Y-133350000D03*
X146050000Y-115570000D03*
X113284000Y-122682000D03*
X129540000Y-97790000D03*
X123190000Y-97790000D03*
X105410000Y-132080000D03*
X92710000Y-96520000D03*
X134620000Y-96520000D03*
X129540000Y-139700000D03*
X120650000Y-139700000D03*
X118110000Y-139700000D03*
X113030000Y-139700000D03*
X143510000Y-91925002D03*
X99060000Y-91440000D03*
X110490000Y-123190000D03*
X102870000Y-115570000D03*
X111760000Y-127000000D03*
X105410000Y-120650000D03*
X106680000Y-128270000D03*
X102870000Y-120650000D03*
X93980000Y-128270000D03*
X110409998Y-104140000D03*
X93980000Y-105410000D03*
X102870000Y-97790000D03*
X135382000Y-133350000D03*
D24*
X88900000Y-125752755D02*
X88900000Y-92314998D01*
X88900000Y-92314998D02*
X92018998Y-89196000D01*
X92018998Y-89196000D02*
X92018998Y-88900000D01*
X111760000Y-135890000D02*
X111760000Y-137775000D01*
X111760000Y-137775000D02*
X111740000Y-137795000D01*
X111760000Y-135890000D02*
X111760000Y-134005000D01*
X111760000Y-134005000D02*
X111740000Y-133985000D01*
X107689998Y-129540000D02*
X107689998Y-126445002D01*
X107689998Y-126445002D02*
X109040000Y-125095000D01*
X109040000Y-125095000D02*
X109140000Y-125095000D01*
X104180000Y-88900000D02*
X92018998Y-88900000D01*
X88900000Y-125752755D02*
X92687245Y-129540000D01*
X107990000Y-92710000D02*
X104180000Y-88900000D01*
X108505000Y-125730000D02*
X109140000Y-125095000D01*
X92687245Y-129540000D02*
X92710000Y-129540000D01*
X135890000Y-90150000D02*
X132740000Y-90150000D01*
X112485001Y-88214999D02*
X107990000Y-92710000D01*
X132740000Y-90150000D02*
X130804999Y-88214999D01*
X130804999Y-88214999D02*
X112485001Y-88214999D01*
X142875000Y-90150000D02*
X135890000Y-90150000D01*
X142240000Y-100370000D02*
X146225001Y-96384999D01*
X146225001Y-96384999D02*
X146225001Y-91825001D01*
X146225001Y-91825001D02*
X144550000Y-90150000D01*
X144550000Y-90150000D02*
X142875000Y-90150000D01*
X105490000Y-125095000D02*
X105390000Y-125095000D01*
X105390000Y-125095000D02*
X103485000Y-127000000D01*
X103485000Y-127000000D02*
X94410000Y-127000000D01*
X94410000Y-127000000D02*
X92710000Y-127000000D01*
X139446000Y-103124000D02*
X139446000Y-100330000D01*
X139446000Y-100330000D02*
X136398000Y-97282000D01*
X104140000Y-113792000D02*
X104140000Y-115905000D01*
X104140000Y-115905000D02*
X105630000Y-117395000D01*
X105630000Y-117395000D02*
X106680000Y-117395000D01*
X142240000Y-105370000D02*
X142280000Y-105370000D01*
X142280000Y-105370000D02*
X144780000Y-102870000D01*
X142240000Y-110490000D02*
X142240000Y-105370000D01*
X101600000Y-110945000D02*
X101600000Y-111045000D01*
X101600000Y-111045000D02*
X101600000Y-111252000D01*
X101600000Y-111252000D02*
X104140000Y-113792000D01*
X105490000Y-125095000D02*
X105410000Y-125095000D01*
X109240000Y-137795000D02*
X109240000Y-133985000D01*
X102790000Y-125095000D02*
X102890000Y-125095000D01*
X102890000Y-125095000D02*
X106739999Y-121245001D01*
X106739999Y-121245001D02*
X108009999Y-121245001D01*
X108009999Y-121245001D02*
X111760000Y-117495000D01*
X111760000Y-117495000D02*
X111760000Y-117395000D01*
X102790000Y-128905000D02*
X99695000Y-128905000D01*
X99695000Y-128905000D02*
X99060000Y-128270000D01*
X128270000Y-97790000D02*
X124758500Y-97790000D01*
X124758500Y-97790000D02*
X124460000Y-98088500D01*
X124460000Y-98088500D02*
X124460000Y-98996500D01*
X97790000Y-102870000D02*
X97790000Y-97790000D01*
X99144975Y-104224975D02*
X97790000Y-102870000D01*
X99060000Y-124125000D02*
X99060000Y-111760000D01*
X128270000Y-97790000D02*
X128270000Y-98996500D01*
X92075000Y-92075000D02*
X97790000Y-97790000D01*
X92075000Y-90805000D02*
X92075000Y-92075000D01*
X114369982Y-153600018D02*
X92779982Y-153600018D01*
X87630000Y-148590000D02*
X92710000Y-153670000D01*
X92710000Y-153670000D02*
X92779982Y-153600018D01*
X92710000Y-135890000D02*
X87630000Y-140970000D01*
X87630000Y-140970000D02*
X87630000Y-148590000D01*
X118110000Y-149860000D02*
X114369982Y-153600018D01*
X100034998Y-110490000D02*
X101600000Y-108924998D01*
X106705568Y-103053125D02*
X107541447Y-102200009D01*
X92710000Y-119380000D02*
X94410000Y-119380000D01*
X94410000Y-119380000D02*
X95250000Y-120220000D01*
X95250000Y-120220000D02*
X96950000Y-120220000D01*
X96950000Y-120220000D02*
X97790000Y-119380000D01*
X97790000Y-119380000D02*
X97790000Y-110490000D01*
X97790000Y-110490000D02*
X100034998Y-110490000D01*
X93010000Y-119380000D02*
X92710000Y-119380000D01*
X114300000Y-100900000D02*
X111870000Y-100900000D01*
X111870000Y-100900000D02*
X111760000Y-100790000D01*
X117459000Y-123190000D02*
X121285000Y-119364000D01*
X121285000Y-119364000D02*
X121285000Y-116205000D01*
X107541447Y-102200009D02*
X110738533Y-102200009D01*
X110738533Y-102200009D02*
X111760000Y-101178542D01*
X111760000Y-101178542D02*
X111760000Y-100790000D01*
X104089990Y-105090000D02*
X104140000Y-105090000D01*
X96520000Y-109220000D02*
X96520000Y-118410000D01*
X100010000Y-109220000D02*
X96520000Y-109220000D01*
X104140000Y-105090000D02*
X100010000Y-109220000D01*
X111760000Y-109220000D02*
X111760000Y-106910002D01*
X111760000Y-106910002D02*
X109220000Y-104370002D01*
X109220000Y-104370002D02*
X109220000Y-103505000D01*
X103490000Y-100790000D02*
X103490000Y-98890000D01*
X106040001Y-105010001D02*
X106040009Y-105010009D01*
X106040009Y-105010009D02*
X106040009Y-109564989D01*
X106040009Y-109564989D02*
X105410000Y-110194998D01*
X105410000Y-110194998D02*
X105410000Y-112375000D01*
X106680000Y-113745000D02*
X106680000Y-113645000D01*
X106680000Y-113645000D02*
X105410000Y-112375000D01*
X103803999Y-102300001D02*
X103439999Y-101936001D01*
X106040001Y-105010001D02*
X106040001Y-103269999D01*
X106040001Y-103269999D02*
X105070003Y-102300001D01*
X105070003Y-102300001D02*
X103803999Y-102300001D01*
X103439999Y-101936001D02*
X103439999Y-100840001D01*
X103439999Y-100840001D02*
X103490000Y-100790000D01*
X103539990Y-98390010D02*
X119135509Y-98390010D01*
X103490000Y-98890000D02*
X103490000Y-98440000D01*
X103490000Y-98440000D02*
X103539990Y-98390010D01*
X119135509Y-98390010D02*
X119742000Y-98996500D01*
X119742000Y-98996500D02*
X120650000Y-98996500D01*
X99568000Y-101600000D02*
X100096002Y-101600000D01*
X100096002Y-101600000D02*
X102806002Y-98890000D01*
X102806002Y-98890000D02*
X103490000Y-98890000D01*
X132715000Y-113030000D02*
X133965001Y-114280001D01*
X133965001Y-114280001D02*
X133965001Y-117023526D01*
X133965001Y-117023526D02*
X136067475Y-119126000D01*
X110490000Y-121920000D02*
X110065736Y-121920000D01*
X106640001Y-127569999D02*
X104704999Y-127569999D01*
X110065736Y-121920000D02*
X106640001Y-125345735D01*
X106640001Y-125345735D02*
X106640001Y-127569999D01*
X104704999Y-127569999D02*
X104339999Y-127934999D01*
X104339999Y-127934999D02*
X104339999Y-129875001D01*
X104339999Y-129875001D02*
X104704999Y-130240001D01*
X104704999Y-130240001D02*
X108854999Y-130240001D01*
X109140000Y-129955000D02*
X109140000Y-128905000D01*
X108854999Y-130240001D02*
X109140000Y-129955000D01*
X106680000Y-113745000D02*
X106680000Y-114895000D01*
X106680000Y-114895000D02*
X109052525Y-117267525D01*
X109052525Y-117267525D02*
X109220000Y-118110000D01*
X110490000Y-107950000D02*
X110490000Y-110985000D01*
X110490000Y-110985000D02*
X107730000Y-113745000D01*
X107730000Y-113745000D02*
X106680000Y-113745000D01*
X132715000Y-113030000D02*
X131445000Y-114300000D01*
X131445000Y-114300000D02*
X118618000Y-114300000D01*
X123190000Y-137160000D02*
X123190000Y-132150998D01*
X116858999Y-127019999D02*
X115600010Y-128278988D01*
X123190000Y-132150998D02*
X118059001Y-127019999D01*
X118059001Y-127019999D02*
X116858999Y-127019999D01*
X115600010Y-128278988D02*
X115600010Y-133350000D01*
X144780000Y-138430000D02*
X144780000Y-142298544D01*
X144780000Y-142298544D02*
X142318543Y-144760001D01*
X142318543Y-144760001D02*
X129520001Y-144760001D01*
X129520001Y-144760001D02*
X128270000Y-143510000D01*
X144780000Y-125730000D02*
X144780000Y-132080000D01*
X138430000Y-133350000D02*
X137179999Y-134600001D01*
X137179999Y-134600001D02*
X132114999Y-134600001D01*
X132114999Y-134600001D02*
X124895001Y-141819999D01*
X124895001Y-141819999D02*
X118308999Y-141819999D01*
X118308999Y-141819999D02*
X117459000Y-140970000D01*
X138430000Y-118110000D02*
X138430000Y-133350000D01*
X137922000Y-137668000D02*
X134874000Y-140716000D01*
X124460000Y-147320000D02*
X116878998Y-147320000D01*
X116878998Y-147320000D02*
X116208999Y-146650001D01*
X116208999Y-146650001D02*
X116208999Y-144760001D01*
X116208999Y-144760001D02*
X117459000Y-143510000D01*
X146050000Y-115570000D02*
X146050000Y-132080000D01*
X146050000Y-132080000D02*
X144780000Y-133350000D01*
X117459000Y-146050000D02*
X124226002Y-146050000D01*
X124226002Y-146050000D02*
X130830002Y-152654000D01*
X130830002Y-152654000D02*
X141103602Y-152654000D01*
X141103602Y-152654000D02*
X146750001Y-147007601D01*
X146750001Y-147007601D02*
X146750001Y-115233999D01*
X146750001Y-115233999D02*
X144546002Y-113030000D01*
X144546002Y-113030000D02*
X142240000Y-113030000D01*
X142240000Y-113030000D02*
X142540000Y-113030000D01*
X111760000Y-120095000D02*
X111760000Y-121789999D01*
X111760000Y-121789999D02*
X113284000Y-122682000D01*
X129540000Y-92075000D02*
X129540000Y-97790000D01*
X119380000Y-89535000D02*
X120099999Y-90254999D01*
X120099999Y-90254999D02*
X126280001Y-90254999D01*
X126280001Y-90254999D02*
X127000000Y-89535000D01*
X121920000Y-92075000D02*
X121920000Y-96520000D01*
X121920000Y-96520000D02*
X123190000Y-97790000D01*
X105410000Y-132080000D02*
X105410000Y-133965000D01*
X105410000Y-133965000D02*
X105390000Y-133985000D01*
X92710000Y-96520000D02*
X91440000Y-97790000D01*
X91440000Y-97790000D02*
X91440000Y-101600000D01*
X135890000Y-94000000D02*
X135890000Y-95250000D01*
X135890000Y-95250000D02*
X134620000Y-96520000D01*
X129540000Y-139700000D02*
X133295002Y-139700000D01*
X133295002Y-139700000D02*
X140539990Y-132455012D01*
X140539990Y-97810010D02*
X142875000Y-95475000D01*
X140539990Y-132455012D02*
X140539990Y-97810010D01*
X142875000Y-95475000D02*
X142875000Y-94000000D01*
X118110000Y-139700000D02*
X120650000Y-139700000D01*
X105390000Y-137795000D02*
X106540000Y-137795000D01*
X106540000Y-137795000D02*
X108445000Y-139700000D01*
X108445000Y-139700000D02*
X113030000Y-139700000D01*
X143510000Y-91925002D02*
X143510000Y-93365000D01*
X143510000Y-93365000D02*
X142875000Y-94000000D01*
X97155000Y-90805000D02*
X98425000Y-90805000D01*
X98425000Y-90805000D02*
X99060000Y-91440000D01*
X110490000Y-123190000D02*
X110490000Y-123745000D01*
X110490000Y-123745000D02*
X111840000Y-125095000D01*
X101600000Y-113745000D02*
X101600000Y-114300000D01*
X101600000Y-114300000D02*
X102870000Y-115570000D01*
X111760000Y-127000000D02*
X111760000Y-128825000D01*
X111760000Y-128825000D02*
X111840000Y-128905000D01*
X106680000Y-120095000D02*
X105965000Y-120095000D01*
X105965000Y-120095000D02*
X105410000Y-120650000D01*
X106680000Y-128270000D02*
X106125000Y-128270000D01*
X106125000Y-128270000D02*
X105490000Y-128905000D01*
X101600000Y-120095000D02*
X102315000Y-120095000D01*
X102315000Y-120095000D02*
X102870000Y-120650000D01*
X110409998Y-104140000D02*
X110409998Y-103370000D01*
X110409998Y-103370000D02*
X110589999Y-103189999D01*
X120650000Y-101301500D02*
X120650000Y-100393500D01*
X110589999Y-103189999D02*
X118761501Y-103189999D01*
X118761501Y-103189999D02*
X120650000Y-101301500D01*
X93980000Y-128270000D02*
X93980000Y-132080000D01*
X93980000Y-132080000D02*
X92710000Y-133350000D01*
X120650000Y-100393500D02*
X121558000Y-100393500D01*
X121558000Y-100393500D02*
X122466001Y-101301501D01*
X122466001Y-101301501D02*
X126453999Y-101301501D01*
X126453999Y-101301501D02*
X127362000Y-100393500D01*
X127362000Y-100393500D02*
X128270000Y-100393500D01*
X121179502Y-97790000D02*
X102870000Y-97790000D01*
X92710000Y-106680000D02*
X92710000Y-114300000D01*
X93980000Y-105410000D02*
X92710000Y-106680000D01*
X124460000Y-100393500D02*
X123783002Y-100393500D01*
X123783002Y-100393500D02*
X121179502Y-97790000D01*
X132715000Y-133350000D02*
X135382000Y-133350000D01*
X92710000Y-138430000D02*
X92410000Y-138430000D01*
X92410000Y-138430000D02*
X88900000Y-141940000D01*
X88900000Y-141940000D02*
X88900000Y-148590000D01*
X116209000Y-107950000D02*
X117459000Y-107950000D01*
X88900000Y-148590000D02*
X93310008Y-153000008D01*
X112429992Y-153000008D02*
X114900009Y-150529991D01*
X93310008Y-153000008D02*
X112429992Y-153000008D01*
X114900009Y-150529991D02*
X114900009Y-109258991D01*
X114900009Y-109258991D02*
X116209000Y-107950000D01*
X92710000Y-140970000D02*
X92410000Y-140970000D01*
X93980000Y-152400000D02*
X110490000Y-152400000D01*
X130175000Y-105410000D02*
X132715000Y-107950000D01*
X92410000Y-140970000D02*
X90170000Y-143210000D01*
X90170000Y-143210000D02*
X90170000Y-148590000D01*
X90170000Y-148590000D02*
X93980000Y-152400000D01*
X110490000Y-152400000D02*
X114299999Y-148590001D01*
X116840000Y-105410000D02*
X130175000Y-105410000D01*
X114299999Y-148590001D02*
X114299999Y-107950001D01*
X114299999Y-107950001D02*
X116840000Y-105410000D01*
D25*
G36*
X145316359Y-114981225D02*
X145257808Y-115039673D01*
X145115162Y-115383201D01*
X145114838Y-115755167D01*
X145215000Y-115997578D01*
X145215000Y-124898225D01*
X144966799Y-124795162D01*
X144594833Y-124794838D01*
X144251057Y-124936883D01*
X143987808Y-125199673D01*
X143845162Y-125543201D01*
X143844838Y-125915167D01*
X143945000Y-126157578D01*
X143945000Y-131652766D01*
X143845162Y-131893201D01*
X143844838Y-132265167D01*
X143986883Y-132608943D01*
X144092710Y-132714954D01*
X143987808Y-132819673D01*
X143845162Y-133163201D01*
X143844838Y-133535167D01*
X143986883Y-133878943D01*
X144249673Y-134142192D01*
X144593201Y-134284838D01*
X144965167Y-134285162D01*
X145308943Y-134143117D01*
X145572192Y-133880327D01*
X145672778Y-133638090D01*
X145915001Y-133395867D01*
X145915001Y-146661733D01*
X145321836Y-147254898D01*
X145294383Y-147188457D01*
X144913548Y-146806957D01*
X144415709Y-146600236D01*
X143876656Y-146599765D01*
X143378457Y-146805617D01*
X142996957Y-147186452D01*
X142790236Y-147684291D01*
X142789765Y-148223344D01*
X142995617Y-148721543D01*
X143376452Y-149103043D01*
X143445161Y-149131573D01*
X142781836Y-149794898D01*
X142754383Y-149728457D01*
X142373548Y-149346957D01*
X141875709Y-149140236D01*
X141336656Y-149139765D01*
X140838457Y-149345617D01*
X140456957Y-149726452D01*
X140250236Y-150224291D01*
X140249765Y-150763344D01*
X140455617Y-151261543D01*
X140836452Y-151643043D01*
X140905161Y-151671573D01*
X140757734Y-151819000D01*
X131175870Y-151819000D01*
X124816436Y-145459566D01*
X124545543Y-145278561D01*
X124226002Y-145215000D01*
X118720757Y-145215000D01*
X118718656Y-145209914D01*
X118301283Y-144791812D01*
X118273443Y-144780252D01*
X118299086Y-144769656D01*
X118717188Y-144352283D01*
X118943742Y-143806681D01*
X118943839Y-143695167D01*
X127334838Y-143695167D01*
X127476883Y-144038943D01*
X127739673Y-144302192D01*
X127981910Y-144402778D01*
X128929567Y-145350435D01*
X129200460Y-145531440D01*
X129520001Y-145595001D01*
X131295997Y-145595001D01*
X131230258Y-145753319D01*
X131229743Y-146344089D01*
X131455344Y-146890086D01*
X131872717Y-147308188D01*
X131900557Y-147319748D01*
X131874914Y-147330344D01*
X131456812Y-147747717D01*
X131230258Y-148293319D01*
X131229743Y-148884089D01*
X131455344Y-149430086D01*
X131872717Y-149848188D01*
X132418319Y-150074742D01*
X133009089Y-150075257D01*
X133555086Y-149849656D01*
X133973188Y-149432283D01*
X134192229Y-148904774D01*
X138294831Y-148904774D01*
X138359131Y-149142611D01*
X138867342Y-149322333D01*
X139405644Y-149293892D01*
X139770869Y-149142611D01*
X139835169Y-148904774D01*
X139065000Y-148134605D01*
X138294831Y-148904774D01*
X134192229Y-148904774D01*
X134199742Y-148886681D01*
X134200257Y-148295911D01*
X133977726Y-147757342D01*
X137697667Y-147757342D01*
X137726108Y-148295644D01*
X137877389Y-148660869D01*
X138115226Y-148725169D01*
X138885395Y-147955000D01*
X139244605Y-147955000D01*
X140014774Y-148725169D01*
X140252611Y-148660869D01*
X140432333Y-148152658D01*
X140403892Y-147614356D01*
X140252611Y-147249131D01*
X140014774Y-147184831D01*
X139244605Y-147955000D01*
X138885395Y-147955000D01*
X138115226Y-147184831D01*
X137877389Y-147249131D01*
X137697667Y-147757342D01*
X133977726Y-147757342D01*
X133974656Y-147749914D01*
X133557283Y-147331812D01*
X133529443Y-147320252D01*
X133555086Y-147309656D01*
X133860047Y-147005226D01*
X138294831Y-147005226D01*
X139065000Y-147775395D01*
X139835169Y-147005226D01*
X139770869Y-146767389D01*
X139262658Y-146587667D01*
X138724356Y-146616108D01*
X138359131Y-146767389D01*
X138294831Y-147005226D01*
X133860047Y-147005226D01*
X133973188Y-146892283D01*
X134199742Y-146346681D01*
X134200257Y-145755911D01*
X134133770Y-145595001D01*
X142318543Y-145595001D01*
X142638084Y-145531440D01*
X142908977Y-145350435D01*
X145370434Y-142888978D01*
X145373551Y-142884313D01*
X145551439Y-142618085D01*
X145615000Y-142298544D01*
X145615000Y-138857234D01*
X145714838Y-138616799D01*
X145715162Y-138244833D01*
X145573117Y-137901057D01*
X145310327Y-137637808D01*
X144966799Y-137495162D01*
X144594833Y-137494838D01*
X144251057Y-137636883D01*
X143987808Y-137899673D01*
X143845162Y-138243201D01*
X143844838Y-138615167D01*
X143945000Y-138857578D01*
X143945000Y-141952676D01*
X141972675Y-143925001D01*
X134144144Y-143925001D01*
X134211718Y-143738721D01*
X134185315Y-143148542D01*
X134010259Y-142725920D01*
X133758958Y-142645647D01*
X132894605Y-143510000D01*
X132908748Y-143524143D01*
X132729143Y-143703748D01*
X132715000Y-143689605D01*
X132700858Y-143703748D01*
X132521253Y-143524143D01*
X132535395Y-143510000D01*
X131671042Y-142645647D01*
X131419741Y-142725920D01*
X131218282Y-143281279D01*
X131244685Y-143871458D01*
X131266863Y-143925001D01*
X129865869Y-143925001D01*
X129162535Y-143221667D01*
X129063117Y-142981057D01*
X128800327Y-142717808D01*
X128456799Y-142575162D01*
X128084833Y-142574838D01*
X127741057Y-142716883D01*
X127477808Y-142979673D01*
X127335162Y-143323201D01*
X127334838Y-143695167D01*
X118943839Y-143695167D01*
X118944257Y-143215911D01*
X118718656Y-142669914D01*
X118703767Y-142654999D01*
X124895001Y-142654999D01*
X125214542Y-142591438D01*
X125485435Y-142410433D01*
X131370681Y-136525187D01*
X131455344Y-136730086D01*
X131872717Y-137148188D01*
X131900557Y-137159748D01*
X131874914Y-137170344D01*
X131456812Y-137587717D01*
X131230258Y-138133319D01*
X131229743Y-138724089D01*
X131287966Y-138865000D01*
X129967234Y-138865000D01*
X129726799Y-138765162D01*
X129354833Y-138764838D01*
X129011057Y-138906883D01*
X128747808Y-139169673D01*
X128605162Y-139513201D01*
X128604838Y-139885167D01*
X128746883Y-140228943D01*
X129009673Y-140492192D01*
X129353201Y-140634838D01*
X129725167Y-140635162D01*
X129967578Y-140535000D01*
X131287693Y-140535000D01*
X131230258Y-140673319D01*
X131229743Y-141264089D01*
X131455344Y-141810086D01*
X131872717Y-142228188D01*
X131920312Y-142247951D01*
X131850647Y-142466042D01*
X132715000Y-143330395D01*
X133579353Y-142466042D01*
X133509819Y-142248360D01*
X133555086Y-142229656D01*
X133973188Y-141812283D01*
X134171200Y-141335418D01*
X134343673Y-141508192D01*
X134687201Y-141650838D01*
X135059167Y-141651162D01*
X135402943Y-141509117D01*
X135666192Y-141246327D01*
X135766778Y-141004090D01*
X138210333Y-138560535D01*
X138450943Y-138461117D01*
X138714192Y-138198327D01*
X138856838Y-137854799D01*
X138857162Y-137482833D01*
X138715117Y-137139057D01*
X138452327Y-136875808D01*
X138108799Y-136733162D01*
X137736833Y-136732838D01*
X137393057Y-136874883D01*
X137129808Y-137137673D01*
X137029222Y-137379910D01*
X134585667Y-139823465D01*
X134345057Y-139922883D01*
X134081808Y-140185673D01*
X134039648Y-140287206D01*
X133995503Y-140180367D01*
X141130424Y-133045446D01*
X141221889Y-132908559D01*
X141311429Y-132774553D01*
X141374990Y-132455012D01*
X141374990Y-124837440D01*
X143540000Y-124837440D01*
X143775317Y-124793162D01*
X143991441Y-124654090D01*
X144136431Y-124441890D01*
X144187440Y-124190000D01*
X144187440Y-122190000D01*
X144143162Y-121954683D01*
X144004090Y-121738559D01*
X143849671Y-121633049D01*
X144088452Y-121275687D01*
X144212909Y-120650000D01*
X144088452Y-120024313D01*
X143734029Y-119493880D01*
X143563595Y-119380000D01*
X143734029Y-119266120D01*
X144088452Y-118735687D01*
X144212909Y-118110000D01*
X144088452Y-117484313D01*
X143734029Y-116953880D01*
X143563595Y-116840000D01*
X143734029Y-116726120D01*
X144088452Y-116195687D01*
X144212909Y-115570000D01*
X144088452Y-114944313D01*
X143734029Y-114413880D01*
X143563595Y-114300000D01*
X143734029Y-114186120D01*
X143948594Y-113865000D01*
X144200134Y-113865000D01*
X145316359Y-114981225D01*
X145316359Y-114981225D01*
G37*
X145316359Y-114981225D02*
X145257808Y-115039673D01*
X145115162Y-115383201D01*
X145114838Y-115755167D01*
X145215000Y-115997578D01*
X145215000Y-124898225D01*
X144966799Y-124795162D01*
X144594833Y-124794838D01*
X144251057Y-124936883D01*
X143987808Y-125199673D01*
X143845162Y-125543201D01*
X143844838Y-125915167D01*
X143945000Y-126157578D01*
X143945000Y-131652766D01*
X143845162Y-131893201D01*
X143844838Y-132265167D01*
X143986883Y-132608943D01*
X144092710Y-132714954D01*
X143987808Y-132819673D01*
X143845162Y-133163201D01*
X143844838Y-133535167D01*
X143986883Y-133878943D01*
X144249673Y-134142192D01*
X144593201Y-134284838D01*
X144965167Y-134285162D01*
X145308943Y-134143117D01*
X145572192Y-133880327D01*
X145672778Y-133638090D01*
X145915001Y-133395867D01*
X145915001Y-146661733D01*
X145321836Y-147254898D01*
X145294383Y-147188457D01*
X144913548Y-146806957D01*
X144415709Y-146600236D01*
X143876656Y-146599765D01*
X143378457Y-146805617D01*
X142996957Y-147186452D01*
X142790236Y-147684291D01*
X142789765Y-148223344D01*
X142995617Y-148721543D01*
X143376452Y-149103043D01*
X143445161Y-149131573D01*
X142781836Y-149794898D01*
X142754383Y-149728457D01*
X142373548Y-149346957D01*
X141875709Y-149140236D01*
X141336656Y-149139765D01*
X140838457Y-149345617D01*
X140456957Y-149726452D01*
X140250236Y-150224291D01*
X140249765Y-150763344D01*
X140455617Y-151261543D01*
X140836452Y-151643043D01*
X140905161Y-151671573D01*
X140757734Y-151819000D01*
X131175870Y-151819000D01*
X124816436Y-145459566D01*
X124545543Y-145278561D01*
X124226002Y-145215000D01*
X118720757Y-145215000D01*
X118718656Y-145209914D01*
X118301283Y-144791812D01*
X118273443Y-144780252D01*
X118299086Y-144769656D01*
X118717188Y-144352283D01*
X118943742Y-143806681D01*
X118943839Y-143695167D01*
X127334838Y-143695167D01*
X127476883Y-144038943D01*
X127739673Y-144302192D01*
X127981910Y-144402778D01*
X128929567Y-145350435D01*
X129200460Y-145531440D01*
X129520001Y-145595001D01*
X131295997Y-145595001D01*
X131230258Y-145753319D01*
X131229743Y-146344089D01*
X131455344Y-146890086D01*
X131872717Y-147308188D01*
X131900557Y-147319748D01*
X131874914Y-147330344D01*
X131456812Y-147747717D01*
X131230258Y-148293319D01*
X131229743Y-148884089D01*
X131455344Y-149430086D01*
X131872717Y-149848188D01*
X132418319Y-150074742D01*
X133009089Y-150075257D01*
X133555086Y-149849656D01*
X133973188Y-149432283D01*
X134192229Y-148904774D01*
X138294831Y-148904774D01*
X138359131Y-149142611D01*
X138867342Y-149322333D01*
X139405644Y-149293892D01*
X139770869Y-149142611D01*
X139835169Y-148904774D01*
X139065000Y-148134605D01*
X138294831Y-148904774D01*
X134192229Y-148904774D01*
X134199742Y-148886681D01*
X134200257Y-148295911D01*
X133977726Y-147757342D01*
X137697667Y-147757342D01*
X137726108Y-148295644D01*
X137877389Y-148660869D01*
X138115226Y-148725169D01*
X138885395Y-147955000D01*
X139244605Y-147955000D01*
X140014774Y-148725169D01*
X140252611Y-148660869D01*
X140432333Y-148152658D01*
X140403892Y-147614356D01*
X140252611Y-147249131D01*
X140014774Y-147184831D01*
X139244605Y-147955000D01*
X138885395Y-147955000D01*
X138115226Y-147184831D01*
X137877389Y-147249131D01*
X137697667Y-147757342D01*
X133977726Y-147757342D01*
X133974656Y-147749914D01*
X133557283Y-147331812D01*
X133529443Y-147320252D01*
X133555086Y-147309656D01*
X133860047Y-147005226D01*
X138294831Y-147005226D01*
X139065000Y-147775395D01*
X139835169Y-147005226D01*
X139770869Y-146767389D01*
X139262658Y-146587667D01*
X138724356Y-146616108D01*
X138359131Y-146767389D01*
X138294831Y-147005226D01*
X133860047Y-147005226D01*
X133973188Y-146892283D01*
X134199742Y-146346681D01*
X134200257Y-145755911D01*
X134133770Y-145595001D01*
X142318543Y-145595001D01*
X142638084Y-145531440D01*
X142908977Y-145350435D01*
X145370434Y-142888978D01*
X145373551Y-142884313D01*
X145551439Y-142618085D01*
X145615000Y-142298544D01*
X145615000Y-138857234D01*
X145714838Y-138616799D01*
X145715162Y-138244833D01*
X145573117Y-137901057D01*
X145310327Y-137637808D01*
X144966799Y-137495162D01*
X144594833Y-137494838D01*
X144251057Y-137636883D01*
X143987808Y-137899673D01*
X143845162Y-138243201D01*
X143844838Y-138615167D01*
X143945000Y-138857578D01*
X143945000Y-141952676D01*
X141972675Y-143925001D01*
X134144144Y-143925001D01*
X134211718Y-143738721D01*
X134185315Y-143148542D01*
X134010259Y-142725920D01*
X133758958Y-142645647D01*
X132894605Y-143510000D01*
X132908748Y-143524143D01*
X132729143Y-143703748D01*
X132715000Y-143689605D01*
X132700858Y-143703748D01*
X132521253Y-143524143D01*
X132535395Y-143510000D01*
X131671042Y-142645647D01*
X131419741Y-142725920D01*
X131218282Y-143281279D01*
X131244685Y-143871458D01*
X131266863Y-143925001D01*
X129865869Y-143925001D01*
X129162535Y-143221667D01*
X129063117Y-142981057D01*
X128800327Y-142717808D01*
X128456799Y-142575162D01*
X128084833Y-142574838D01*
X127741057Y-142716883D01*
X127477808Y-142979673D01*
X127335162Y-143323201D01*
X127334838Y-143695167D01*
X118943839Y-143695167D01*
X118944257Y-143215911D01*
X118718656Y-142669914D01*
X118703767Y-142654999D01*
X124895001Y-142654999D01*
X125214542Y-142591438D01*
X125485435Y-142410433D01*
X131370681Y-136525187D01*
X131455344Y-136730086D01*
X131872717Y-137148188D01*
X131900557Y-137159748D01*
X131874914Y-137170344D01*
X131456812Y-137587717D01*
X131230258Y-138133319D01*
X131229743Y-138724089D01*
X131287966Y-138865000D01*
X129967234Y-138865000D01*
X129726799Y-138765162D01*
X129354833Y-138764838D01*
X129011057Y-138906883D01*
X128747808Y-139169673D01*
X128605162Y-139513201D01*
X128604838Y-139885167D01*
X128746883Y-140228943D01*
X129009673Y-140492192D01*
X129353201Y-140634838D01*
X129725167Y-140635162D01*
X129967578Y-140535000D01*
X131287693Y-140535000D01*
X131230258Y-140673319D01*
X131229743Y-141264089D01*
X131455344Y-141810086D01*
X131872717Y-142228188D01*
X131920312Y-142247951D01*
X131850647Y-142466042D01*
X132715000Y-143330395D01*
X133579353Y-142466042D01*
X133509819Y-142248360D01*
X133555086Y-142229656D01*
X133973188Y-141812283D01*
X134171200Y-141335418D01*
X134343673Y-141508192D01*
X134687201Y-141650838D01*
X135059167Y-141651162D01*
X135402943Y-141509117D01*
X135666192Y-141246327D01*
X135766778Y-141004090D01*
X138210333Y-138560535D01*
X138450943Y-138461117D01*
X138714192Y-138198327D01*
X138856838Y-137854799D01*
X138857162Y-137482833D01*
X138715117Y-137139057D01*
X138452327Y-136875808D01*
X138108799Y-136733162D01*
X137736833Y-136732838D01*
X137393057Y-136874883D01*
X137129808Y-137137673D01*
X137029222Y-137379910D01*
X134585667Y-139823465D01*
X134345057Y-139922883D01*
X134081808Y-140185673D01*
X134039648Y-140287206D01*
X133995503Y-140180367D01*
X141130424Y-133045446D01*
X141221889Y-132908559D01*
X141311429Y-132774553D01*
X141374990Y-132455012D01*
X141374990Y-124837440D01*
X143540000Y-124837440D01*
X143775317Y-124793162D01*
X143991441Y-124654090D01*
X144136431Y-124441890D01*
X144187440Y-124190000D01*
X144187440Y-122190000D01*
X144143162Y-121954683D01*
X144004090Y-121738559D01*
X143849671Y-121633049D01*
X144088452Y-121275687D01*
X144212909Y-120650000D01*
X144088452Y-120024313D01*
X143734029Y-119493880D01*
X143563595Y-119380000D01*
X143734029Y-119266120D01*
X144088452Y-118735687D01*
X144212909Y-118110000D01*
X144088452Y-117484313D01*
X143734029Y-116953880D01*
X143563595Y-116840000D01*
X143734029Y-116726120D01*
X144088452Y-116195687D01*
X144212909Y-115570000D01*
X144088452Y-114944313D01*
X143734029Y-114413880D01*
X143563595Y-114300000D01*
X143734029Y-114186120D01*
X143948594Y-113865000D01*
X144200134Y-113865000D01*
X145316359Y-114981225D01*
G36*
X118025236Y-89264291D02*
X118024765Y-89803344D01*
X118230617Y-90301543D01*
X118611452Y-90683043D01*
X119109291Y-90889764D01*
X119576522Y-90890172D01*
X119780458Y-91026438D01*
X120099999Y-91089999D01*
X120988788Y-91089999D01*
X120771957Y-91306452D01*
X120565236Y-91804291D01*
X120564765Y-92343344D01*
X120770617Y-92841543D01*
X121085000Y-93156475D01*
X121085000Y-96520000D01*
X121148561Y-96839541D01*
X121232791Y-96965600D01*
X121179502Y-96955000D01*
X103297234Y-96955000D01*
X103056799Y-96855162D01*
X102684833Y-96854838D01*
X102341057Y-96996883D01*
X102077808Y-97259673D01*
X101935162Y-97603201D01*
X101934838Y-97975167D01*
X102076883Y-98318943D01*
X102136485Y-98378649D01*
X99822048Y-100693086D01*
X99754799Y-100665162D01*
X99382833Y-100664838D01*
X99039057Y-100806883D01*
X98775808Y-101069673D01*
X98633162Y-101413201D01*
X98632838Y-101785167D01*
X98774883Y-102128943D01*
X99037673Y-102392192D01*
X99381201Y-102534838D01*
X99753167Y-102535162D01*
X99995578Y-102435000D01*
X100096002Y-102435000D01*
X100415543Y-102371439D01*
X100686436Y-102190434D01*
X102655000Y-100221870D01*
X102655000Y-100588630D01*
X102604999Y-100840001D01*
X102604999Y-101936001D01*
X102668560Y-102255542D01*
X102788470Y-102435000D01*
X102849565Y-102526435D01*
X103213565Y-102890435D01*
X103484459Y-103071441D01*
X103803999Y-103135001D01*
X104724135Y-103135001D01*
X105205001Y-103615867D01*
X105205001Y-105010001D01*
X105205009Y-105010041D01*
X105205009Y-109219121D01*
X104819566Y-109604564D01*
X104638561Y-109875457D01*
X104575000Y-110194998D01*
X104575000Y-112375000D01*
X104638561Y-112694541D01*
X104782526Y-112910000D01*
X104819566Y-112965434D01*
X105845000Y-113990868D01*
X105845000Y-114895000D01*
X105908561Y-115214541D01*
X106021256Y-115383201D01*
X106089566Y-115485434D01*
X106614132Y-116010000D01*
X106552998Y-116010000D01*
X106552998Y-116168748D01*
X106394250Y-116010000D01*
X105903690Y-116010000D01*
X105670301Y-116106673D01*
X105491673Y-116285302D01*
X105395000Y-116518691D01*
X105395000Y-117109250D01*
X105553750Y-117268000D01*
X106553000Y-117268000D01*
X106553000Y-117248000D01*
X106807000Y-117248000D01*
X106807000Y-117268000D01*
X107806250Y-117268000D01*
X107839191Y-117235059D01*
X108282946Y-117678814D01*
X108316517Y-117847690D01*
X108285162Y-117923201D01*
X108284838Y-118295167D01*
X108426883Y-118638943D01*
X108689673Y-118902192D01*
X109030440Y-119043692D01*
X107977440Y-120096692D01*
X107977440Y-119345000D01*
X107933162Y-119109683D01*
X107794090Y-118893559D01*
X107581890Y-118748569D01*
X107548510Y-118741809D01*
X107689699Y-118683327D01*
X107868327Y-118504698D01*
X107965000Y-118271309D01*
X107965000Y-117680750D01*
X107806250Y-117522000D01*
X106807000Y-117522000D01*
X106807000Y-117542000D01*
X106553000Y-117542000D01*
X106553000Y-117522000D01*
X105553750Y-117522000D01*
X105395000Y-117680750D01*
X105395000Y-118271309D01*
X105491673Y-118504698D01*
X105670301Y-118683327D01*
X105806287Y-118739654D01*
X105794683Y-118741838D01*
X105578559Y-118880910D01*
X105433569Y-119093110D01*
X105382560Y-119345000D01*
X105382560Y-119499225D01*
X105374566Y-119504566D01*
X105121667Y-119757465D01*
X104881057Y-119856883D01*
X104617808Y-120119673D01*
X104475162Y-120463201D01*
X104474838Y-120835167D01*
X104616883Y-121178943D01*
X104879673Y-121442192D01*
X105220440Y-121583692D01*
X103006572Y-123797560D01*
X102040000Y-123797560D01*
X101804683Y-123841838D01*
X101588559Y-123980910D01*
X101443569Y-124193110D01*
X101392560Y-124445000D01*
X101392560Y-125745000D01*
X101436838Y-125980317D01*
X101575910Y-126196441D01*
X101788110Y-126341431D01*
X102040000Y-126392440D01*
X103540000Y-126392440D01*
X103775317Y-126348162D01*
X103991441Y-126209090D01*
X104136431Y-125996890D01*
X104143191Y-125963510D01*
X104201673Y-126104699D01*
X104380302Y-126283327D01*
X104613691Y-126380000D01*
X105204250Y-126380000D01*
X105363000Y-126221250D01*
X105363000Y-125222000D01*
X105343000Y-125222000D01*
X105343000Y-124968000D01*
X105363000Y-124968000D01*
X105363000Y-123968750D01*
X105280059Y-123885809D01*
X107085867Y-122080001D01*
X108009999Y-122080001D01*
X108329540Y-122016440D01*
X108600433Y-121835435D01*
X110462560Y-119973308D01*
X110462560Y-120845000D01*
X110488903Y-120984998D01*
X110304833Y-120984838D01*
X110059345Y-121086271D01*
X109746195Y-121148561D01*
X109475302Y-121329566D01*
X106748947Y-124055921D01*
X106599698Y-123906673D01*
X106366309Y-123810000D01*
X105775750Y-123810000D01*
X105617000Y-123968750D01*
X105617000Y-124968000D01*
X105637000Y-124968000D01*
X105637000Y-125222000D01*
X105617000Y-125222000D01*
X105617000Y-126221250D01*
X105775750Y-126380000D01*
X105805001Y-126380000D01*
X105805001Y-126734999D01*
X104704999Y-126734999D01*
X104385458Y-126798560D01*
X104274051Y-126873000D01*
X104114565Y-126979565D01*
X103749565Y-127344565D01*
X103569804Y-127613596D01*
X103540000Y-127607560D01*
X102040000Y-127607560D01*
X101804683Y-127651838D01*
X101588559Y-127790910D01*
X101443569Y-128003110D01*
X101430023Y-128070000D01*
X100040868Y-128070000D01*
X99952535Y-127981667D01*
X99853117Y-127741057D01*
X99590327Y-127477808D01*
X99246799Y-127335162D01*
X98874833Y-127334838D01*
X98531057Y-127476883D01*
X98267808Y-127739673D01*
X98125162Y-128083201D01*
X98124838Y-128455167D01*
X98266883Y-128798943D01*
X98529673Y-129062192D01*
X98771910Y-129162778D01*
X99104566Y-129495434D01*
X99375460Y-129676440D01*
X99695000Y-129740000D01*
X101427370Y-129740000D01*
X101436838Y-129790317D01*
X101575910Y-130006441D01*
X101788110Y-130151431D01*
X102040000Y-130202440D01*
X103540000Y-130202440D01*
X103570058Y-130196784D01*
X103598935Y-130240001D01*
X103749565Y-130465435D01*
X104114565Y-130830435D01*
X104385458Y-131011440D01*
X104704999Y-131075001D01*
X108854999Y-131075001D01*
X109174540Y-131011440D01*
X109445433Y-130830435D01*
X109730434Y-130545434D01*
X109750161Y-130515911D01*
X109911439Y-130274541D01*
X109927172Y-130195446D01*
X110125317Y-130158162D01*
X110341441Y-130019090D01*
X110486431Y-129806890D01*
X110489081Y-129793803D01*
X110625910Y-130006441D01*
X110838110Y-130151431D01*
X111090000Y-130202440D01*
X112590000Y-130202440D01*
X112825317Y-130158162D01*
X113041441Y-130019090D01*
X113186431Y-129806890D01*
X113237440Y-129555000D01*
X113237440Y-128255000D01*
X113193162Y-128019683D01*
X113054090Y-127803559D01*
X112841890Y-127658569D01*
X112595000Y-127608573D01*
X112595000Y-127427234D01*
X112694838Y-127186799D01*
X112695162Y-126814833D01*
X112553117Y-126471057D01*
X112474637Y-126392440D01*
X112590000Y-126392440D01*
X112825317Y-126348162D01*
X113041441Y-126209090D01*
X113186431Y-125996890D01*
X113237440Y-125745000D01*
X113237440Y-124445000D01*
X113193162Y-124209683D01*
X113054090Y-123993559D01*
X112841890Y-123848569D01*
X112590000Y-123797560D01*
X111723428Y-123797560D01*
X111388992Y-123463124D01*
X111424838Y-123376799D01*
X111425162Y-123004833D01*
X111283117Y-122661057D01*
X111177290Y-122555046D01*
X111276576Y-122455933D01*
X111338209Y-122510636D01*
X112476907Y-123177119D01*
X112490883Y-123210943D01*
X112753673Y-123474192D01*
X113097201Y-123616838D01*
X113464999Y-123617158D01*
X113464999Y-138868224D01*
X113216799Y-138765162D01*
X113022816Y-138764993D01*
X113086431Y-138671890D01*
X113137440Y-138420000D01*
X113137440Y-137170000D01*
X113093162Y-136934683D01*
X112954090Y-136718559D01*
X112741890Y-136573569D01*
X112595000Y-136543823D01*
X112595000Y-136317234D01*
X112694838Y-136076799D01*
X112695162Y-135704833D01*
X112595000Y-135462422D01*
X112595000Y-135237683D01*
X112725317Y-135213162D01*
X112941441Y-135074090D01*
X113086431Y-134861890D01*
X113137440Y-134610000D01*
X113137440Y-133360000D01*
X113093162Y-133124683D01*
X112954090Y-132908559D01*
X112741890Y-132763569D01*
X112490000Y-132712560D01*
X110990000Y-132712560D01*
X110754683Y-132756838D01*
X110538559Y-132895910D01*
X110492031Y-132964006D01*
X110349698Y-132821673D01*
X110116309Y-132725000D01*
X109525750Y-132725000D01*
X109367000Y-132883750D01*
X109367000Y-133858000D01*
X109387000Y-133858000D01*
X109387000Y-134112000D01*
X109367000Y-134112000D01*
X109367000Y-135086250D01*
X109525750Y-135245000D01*
X110116309Y-135245000D01*
X110349698Y-135148327D01*
X110490936Y-135007090D01*
X110525910Y-135061441D01*
X110738110Y-135206431D01*
X110925000Y-135244277D01*
X110925000Y-135462766D01*
X110825162Y-135703201D01*
X110824838Y-136075167D01*
X110925000Y-136317578D01*
X110925000Y-136534791D01*
X110754683Y-136566838D01*
X110538559Y-136705910D01*
X110492031Y-136774006D01*
X110349698Y-136631673D01*
X110116309Y-136535000D01*
X109525750Y-136535000D01*
X109367000Y-136693750D01*
X109367000Y-137668000D01*
X109387000Y-137668000D01*
X109387000Y-137922000D01*
X109367000Y-137922000D01*
X109367000Y-137942000D01*
X109113000Y-137942000D01*
X109113000Y-137922000D01*
X108013750Y-137922000D01*
X107930809Y-138004941D01*
X107130434Y-137204566D01*
X107032393Y-137139057D01*
X106889667Y-137043690D01*
X107855000Y-137043690D01*
X107855000Y-137509250D01*
X108013750Y-137668000D01*
X109113000Y-137668000D01*
X109113000Y-136693750D01*
X108954250Y-136535000D01*
X108363691Y-136535000D01*
X108130302Y-136631673D01*
X107951673Y-136810301D01*
X107855000Y-137043690D01*
X106889667Y-137043690D01*
X106859541Y-137023561D01*
X106756011Y-137002967D01*
X106743162Y-136934683D01*
X106604090Y-136718559D01*
X106391890Y-136573569D01*
X106140000Y-136522560D01*
X104640000Y-136522560D01*
X104404683Y-136566838D01*
X104188559Y-136705910D01*
X104142031Y-136774006D01*
X103999698Y-136631673D01*
X103766309Y-136535000D01*
X103175750Y-136535000D01*
X103017000Y-136693750D01*
X103017000Y-137668000D01*
X103037000Y-137668000D01*
X103037000Y-137922000D01*
X103017000Y-137922000D01*
X103017000Y-138896250D01*
X103175750Y-139055000D01*
X103766309Y-139055000D01*
X103999698Y-138958327D01*
X104140936Y-138817090D01*
X104175910Y-138871441D01*
X104388110Y-139016431D01*
X104640000Y-139067440D01*
X106140000Y-139067440D01*
X106375317Y-139023162D01*
X106504297Y-138940165D01*
X107854566Y-140290434D01*
X108125459Y-140471439D01*
X108445000Y-140535000D01*
X112602766Y-140535000D01*
X112843201Y-140634838D01*
X113215167Y-140635162D01*
X113464999Y-140531934D01*
X113464999Y-148244133D01*
X110144132Y-151565000D01*
X94325868Y-151565000D01*
X91005000Y-148244132D01*
X91005000Y-146832941D01*
X91164078Y-147116317D01*
X91666980Y-147511942D01*
X92283000Y-147685000D01*
X92583000Y-147685000D01*
X92583000Y-146177000D01*
X92837000Y-146177000D01*
X92837000Y-147685000D01*
X93137000Y-147685000D01*
X93753020Y-147511942D01*
X94255922Y-147116317D01*
X94569144Y-146558355D01*
X94600124Y-146430434D01*
X94480777Y-146177000D01*
X92837000Y-146177000D01*
X92583000Y-146177000D01*
X92563000Y-146177000D01*
X92563000Y-145923000D01*
X92583000Y-145923000D01*
X92583000Y-145903000D01*
X92837000Y-145903000D01*
X92837000Y-145923000D01*
X94480777Y-145923000D01*
X94600124Y-145669566D01*
X94569144Y-145541645D01*
X94255922Y-144983683D01*
X94013812Y-144793219D01*
X94204029Y-144666120D01*
X94558452Y-144135687D01*
X94682909Y-143510000D01*
X94558452Y-142884313D01*
X94204029Y-142353880D01*
X94033595Y-142240000D01*
X94204029Y-142126120D01*
X94558452Y-141595687D01*
X94682909Y-140970000D01*
X94558452Y-140344313D01*
X94204029Y-139813880D01*
X94033595Y-139700000D01*
X94204029Y-139586120D01*
X94558452Y-139055687D01*
X94682909Y-138430000D01*
X94613439Y-138080750D01*
X101505000Y-138080750D01*
X101505000Y-138546310D01*
X101601673Y-138779699D01*
X101780302Y-138958327D01*
X102013691Y-139055000D01*
X102604250Y-139055000D01*
X102763000Y-138896250D01*
X102763000Y-137922000D01*
X101663750Y-137922000D01*
X101505000Y-138080750D01*
X94613439Y-138080750D01*
X94558452Y-137804313D01*
X94204029Y-137273880D01*
X94033595Y-137160000D01*
X94204029Y-137046120D01*
X94205652Y-137043690D01*
X101505000Y-137043690D01*
X101505000Y-137509250D01*
X101663750Y-137668000D01*
X102763000Y-137668000D01*
X102763000Y-136693750D01*
X102604250Y-136535000D01*
X102013691Y-136535000D01*
X101780302Y-136631673D01*
X101601673Y-136810301D01*
X101505000Y-137043690D01*
X94205652Y-137043690D01*
X94558452Y-136515687D01*
X94682909Y-135890000D01*
X94558452Y-135264313D01*
X94318907Y-134905808D01*
X94461441Y-134814090D01*
X94606431Y-134601890D01*
X94657440Y-134350000D01*
X94657440Y-134270750D01*
X101505000Y-134270750D01*
X101505000Y-134736310D01*
X101601673Y-134969699D01*
X101780302Y-135148327D01*
X102013691Y-135245000D01*
X102604250Y-135245000D01*
X102763000Y-135086250D01*
X102763000Y-134112000D01*
X101663750Y-134112000D01*
X101505000Y-134270750D01*
X94657440Y-134270750D01*
X94657440Y-133233690D01*
X101505000Y-133233690D01*
X101505000Y-133699250D01*
X101663750Y-133858000D01*
X102763000Y-133858000D01*
X102763000Y-132883750D01*
X103017000Y-132883750D01*
X103017000Y-133858000D01*
X103037000Y-133858000D01*
X103037000Y-134112000D01*
X103017000Y-134112000D01*
X103017000Y-135086250D01*
X103175750Y-135245000D01*
X103766309Y-135245000D01*
X103999698Y-135148327D01*
X104140936Y-135007090D01*
X104175910Y-135061441D01*
X104388110Y-135206431D01*
X104640000Y-135257440D01*
X106140000Y-135257440D01*
X106375317Y-135213162D01*
X106591441Y-135074090D01*
X106736431Y-134861890D01*
X106787440Y-134610000D01*
X106787440Y-134270750D01*
X107855000Y-134270750D01*
X107855000Y-134736310D01*
X107951673Y-134969699D01*
X108130302Y-135148327D01*
X108363691Y-135245000D01*
X108954250Y-135245000D01*
X109113000Y-135086250D01*
X109113000Y-134112000D01*
X108013750Y-134112000D01*
X107855000Y-134270750D01*
X106787440Y-134270750D01*
X106787440Y-133360000D01*
X106763674Y-133233690D01*
X107855000Y-133233690D01*
X107855000Y-133699250D01*
X108013750Y-133858000D01*
X109113000Y-133858000D01*
X109113000Y-132883750D01*
X108954250Y-132725000D01*
X108363691Y-132725000D01*
X108130302Y-132821673D01*
X107951673Y-133000301D01*
X107855000Y-133233690D01*
X106763674Y-133233690D01*
X106743162Y-133124683D01*
X106604090Y-132908559D01*
X106391890Y-132763569D01*
X106245000Y-132733823D01*
X106245000Y-132507234D01*
X106344838Y-132266799D01*
X106345162Y-131894833D01*
X106203117Y-131551057D01*
X105940327Y-131287808D01*
X105596799Y-131145162D01*
X105224833Y-131144838D01*
X104881057Y-131286883D01*
X104617808Y-131549673D01*
X104475162Y-131893201D01*
X104474838Y-132265167D01*
X104575000Y-132507578D01*
X104575000Y-132724791D01*
X104404683Y-132756838D01*
X104188559Y-132895910D01*
X104142031Y-132964006D01*
X103999698Y-132821673D01*
X103766309Y-132725000D01*
X103175750Y-132725000D01*
X103017000Y-132883750D01*
X102763000Y-132883750D01*
X102604250Y-132725000D01*
X102013691Y-132725000D01*
X101780302Y-132821673D01*
X101601673Y-133000301D01*
X101505000Y-133233690D01*
X94657440Y-133233690D01*
X94657440Y-132540220D01*
X94751439Y-132399541D01*
X94815000Y-132080000D01*
X94815000Y-128697234D01*
X94914838Y-128456799D01*
X94915162Y-128084833D01*
X94773117Y-127741057D01*
X94558949Y-127526515D01*
X94569144Y-127508355D01*
X94600124Y-127380434D01*
X94480777Y-127127000D01*
X92837000Y-127127000D01*
X92837000Y-127147000D01*
X92583000Y-127147000D01*
X92583000Y-127127000D01*
X92563000Y-127127000D01*
X92563000Y-126873000D01*
X92583000Y-126873000D01*
X92583000Y-126853000D01*
X92837000Y-126853000D01*
X92837000Y-126873000D01*
X94480777Y-126873000D01*
X94600124Y-126619566D01*
X94569144Y-126491645D01*
X94255922Y-125933683D01*
X94013812Y-125743219D01*
X94204029Y-125616120D01*
X94558452Y-125085687D01*
X94682909Y-124460000D01*
X94558452Y-123834313D01*
X94204029Y-123303880D01*
X94033595Y-123190000D01*
X94204029Y-123076120D01*
X94558452Y-122545687D01*
X94682909Y-121920000D01*
X94558452Y-121294313D01*
X94204029Y-120763880D01*
X94033595Y-120650000D01*
X94204029Y-120536120D01*
X94276617Y-120427485D01*
X94659566Y-120810434D01*
X94930459Y-120991439D01*
X95250000Y-121055000D01*
X96950000Y-121055000D01*
X97269541Y-120991439D01*
X97540434Y-120810434D01*
X98225000Y-120125868D01*
X98225000Y-123697766D01*
X98125162Y-123938201D01*
X98124838Y-124310167D01*
X98266883Y-124653943D01*
X98529673Y-124917192D01*
X98873201Y-125059838D01*
X99245167Y-125060162D01*
X99588943Y-124918117D01*
X99852192Y-124655327D01*
X99994838Y-124311799D01*
X99995162Y-123939833D01*
X99895000Y-123697422D01*
X99895000Y-119345000D01*
X100302560Y-119345000D01*
X100302560Y-120845000D01*
X100346838Y-121080317D01*
X100485910Y-121296441D01*
X100698110Y-121441431D01*
X100950000Y-121492440D01*
X102250000Y-121492440D01*
X102394984Y-121465159D01*
X102683201Y-121584838D01*
X103055167Y-121585162D01*
X103398943Y-121443117D01*
X103662192Y-121180327D01*
X103804838Y-120836799D01*
X103805162Y-120464833D01*
X103663117Y-120121057D01*
X103400327Y-119857808D01*
X103158090Y-119757222D01*
X102905434Y-119504566D01*
X102897440Y-119499225D01*
X102897440Y-119345000D01*
X102853162Y-119109683D01*
X102714090Y-118893559D01*
X102501890Y-118748569D01*
X102468510Y-118741809D01*
X102609699Y-118683327D01*
X102788327Y-118504698D01*
X102885000Y-118271309D01*
X102885000Y-117680750D01*
X102726250Y-117522000D01*
X101727000Y-117522000D01*
X101727000Y-117542000D01*
X101473000Y-117542000D01*
X101473000Y-117522000D01*
X100473750Y-117522000D01*
X100315000Y-117680750D01*
X100315000Y-118271309D01*
X100411673Y-118504698D01*
X100590301Y-118683327D01*
X100726287Y-118739654D01*
X100714683Y-118741838D01*
X100498559Y-118880910D01*
X100353569Y-119093110D01*
X100302560Y-119345000D01*
X99895000Y-119345000D01*
X99895000Y-116518691D01*
X100315000Y-116518691D01*
X100315000Y-117109250D01*
X100473750Y-117268000D01*
X101473000Y-117268000D01*
X101473000Y-116168750D01*
X101314250Y-116010000D01*
X100823690Y-116010000D01*
X100590301Y-116106673D01*
X100411673Y-116285302D01*
X100315000Y-116518691D01*
X99895000Y-116518691D01*
X99895000Y-112187234D01*
X99994838Y-111946799D01*
X99995162Y-111574833D01*
X99891933Y-111325000D01*
X100034998Y-111325000D01*
X100354539Y-111261439D01*
X100444262Y-111201488D01*
X100315000Y-111330750D01*
X100315000Y-111921309D01*
X100411673Y-112154698D01*
X100590301Y-112333327D01*
X100726287Y-112389654D01*
X100714683Y-112391838D01*
X100498559Y-112530910D01*
X100353569Y-112743110D01*
X100302560Y-112995000D01*
X100302560Y-114495000D01*
X100346838Y-114730317D01*
X100485910Y-114946441D01*
X100698110Y-115091431D01*
X100950000Y-115142440D01*
X101261572Y-115142440D01*
X101977465Y-115858333D01*
X102040133Y-116010000D01*
X101885750Y-116010000D01*
X101727000Y-116168750D01*
X101727000Y-117268000D01*
X102726250Y-117268000D01*
X102885000Y-117109250D01*
X102885000Y-116518691D01*
X102879333Y-116505009D01*
X103055167Y-116505162D01*
X103398943Y-116363117D01*
X103662192Y-116100327D01*
X103804838Y-115756799D01*
X103805162Y-115384833D01*
X103663117Y-115041057D01*
X103400327Y-114777808D01*
X103158090Y-114677222D01*
X102897440Y-114416572D01*
X102897440Y-112995000D01*
X102853162Y-112759683D01*
X102714090Y-112543559D01*
X102501890Y-112398569D01*
X102468510Y-112391809D01*
X102609699Y-112333327D01*
X102788327Y-112154698D01*
X102885000Y-111921309D01*
X102885000Y-111330750D01*
X102726250Y-111172000D01*
X101727000Y-111172000D01*
X101727000Y-111192000D01*
X101473000Y-111192000D01*
X101473000Y-111172000D01*
X101453000Y-111172000D01*
X101453000Y-110918000D01*
X101473000Y-110918000D01*
X101473000Y-110898000D01*
X101727000Y-110898000D01*
X101727000Y-110918000D01*
X102726250Y-110918000D01*
X102885000Y-110759250D01*
X102885000Y-110168691D01*
X102788327Y-109935302D01*
X102609699Y-109756673D01*
X102376310Y-109660000D01*
X102187160Y-109660000D01*
X102392192Y-109455325D01*
X102534838Y-109111797D01*
X102535162Y-108739831D01*
X102393117Y-108396055D01*
X102204130Y-108206738D01*
X104463547Y-105947321D01*
X104618933Y-105883117D01*
X104882182Y-105620327D01*
X105024828Y-105276799D01*
X105025152Y-104904833D01*
X104883107Y-104561057D01*
X104620317Y-104297808D01*
X104276789Y-104155162D01*
X103904823Y-104154838D01*
X103561047Y-104296883D01*
X103297798Y-104559673D01*
X103161700Y-104887432D01*
X99664132Y-108385000D01*
X96520000Y-108385000D01*
X96200459Y-108448561D01*
X95929566Y-108629566D01*
X95748561Y-108900459D01*
X95685000Y-109220000D01*
X95685000Y-117982766D01*
X95585162Y-118223201D01*
X95584838Y-118595167D01*
X95726883Y-118938943D01*
X95989673Y-119202192D01*
X96333201Y-119344838D01*
X96644023Y-119345109D01*
X96604132Y-119385000D01*
X95595868Y-119385000D01*
X95000434Y-118789566D01*
X94947674Y-118754313D01*
X94729541Y-118608561D01*
X94419911Y-118546971D01*
X94204029Y-118223880D01*
X94033595Y-118110000D01*
X94204029Y-117996120D01*
X94558452Y-117465687D01*
X94682909Y-116840000D01*
X94558452Y-116214313D01*
X94318907Y-115855808D01*
X94461441Y-115764090D01*
X94606431Y-115551890D01*
X94657440Y-115300000D01*
X94657440Y-113300000D01*
X94613162Y-113064683D01*
X94474090Y-112848559D01*
X94261890Y-112703569D01*
X94010000Y-112652560D01*
X93545000Y-112652560D01*
X93545000Y-107025868D01*
X94268333Y-106302535D01*
X94508943Y-106203117D01*
X94772192Y-105940327D01*
X94914838Y-105596799D01*
X94915162Y-105224833D01*
X94773117Y-104881057D01*
X94510327Y-104617808D01*
X94166799Y-104475162D01*
X93794833Y-104474838D01*
X93451057Y-104616883D01*
X93187808Y-104879673D01*
X93087222Y-105121910D01*
X92446193Y-105762939D01*
X92211384Y-105527720D01*
X91943908Y-105416654D01*
X92148878Y-105331753D01*
X92213793Y-105093398D01*
X91440000Y-104319605D01*
X90666207Y-105093398D01*
X90731122Y-105331753D01*
X90952217Y-105410025D01*
X90670628Y-105526376D01*
X90287720Y-105908616D01*
X90080237Y-106408292D01*
X90079764Y-106949334D01*
X90286376Y-107449372D01*
X90668616Y-107832280D01*
X91168292Y-108039763D01*
X91709334Y-108040236D01*
X91875000Y-107971784D01*
X91875000Y-112652560D01*
X91410000Y-112652560D01*
X91174683Y-112696838D01*
X90958559Y-112835910D01*
X90813569Y-113048110D01*
X90762560Y-113300000D01*
X90762560Y-115300000D01*
X90806838Y-115535317D01*
X90945910Y-115751441D01*
X91100329Y-115856951D01*
X90861548Y-116214313D01*
X90737091Y-116840000D01*
X90861548Y-117465687D01*
X91215971Y-117996120D01*
X91386405Y-118110000D01*
X91215971Y-118223880D01*
X90861548Y-118754313D01*
X90737091Y-119380000D01*
X90861548Y-120005687D01*
X91215971Y-120536120D01*
X91386405Y-120650000D01*
X91215971Y-120763880D01*
X90861548Y-121294313D01*
X90737091Y-121920000D01*
X90861548Y-122545687D01*
X91215971Y-123076120D01*
X91386405Y-123190000D01*
X91215971Y-123303880D01*
X90861548Y-123834313D01*
X90737091Y-124460000D01*
X90861548Y-125085687D01*
X91215971Y-125616120D01*
X91406188Y-125743219D01*
X91164078Y-125933683D01*
X90850856Y-126491645D01*
X90844793Y-126516680D01*
X89735000Y-125406887D01*
X89735000Y-103941146D01*
X90067688Y-103941146D01*
X90096051Y-104481444D01*
X90248247Y-104848878D01*
X90486602Y-104913793D01*
X91260395Y-104140000D01*
X91619605Y-104140000D01*
X92393398Y-104913793D01*
X92631753Y-104848878D01*
X92812312Y-104338854D01*
X92783949Y-103798556D01*
X92631753Y-103431122D01*
X92393398Y-103366207D01*
X91619605Y-104140000D01*
X91260395Y-104140000D01*
X90486602Y-103366207D01*
X90248247Y-103431122D01*
X90067688Y-103941146D01*
X89735000Y-103941146D01*
X89735000Y-101869334D01*
X90079764Y-101869334D01*
X90286376Y-102369372D01*
X90668616Y-102752280D01*
X90936092Y-102863346D01*
X90731122Y-102948247D01*
X90666207Y-103186602D01*
X91440000Y-103960395D01*
X92213793Y-103186602D01*
X92148878Y-102948247D01*
X91927783Y-102869975D01*
X92209372Y-102753624D01*
X92592280Y-102371384D01*
X92799763Y-101871708D01*
X92800236Y-101330666D01*
X92593624Y-100830628D01*
X92275000Y-100511447D01*
X92275000Y-98135868D01*
X92998333Y-97412535D01*
X93238943Y-97313117D01*
X93502192Y-97050327D01*
X93644838Y-96706799D01*
X93645162Y-96334833D01*
X93503117Y-95991057D01*
X93240327Y-95727808D01*
X92896799Y-95585162D01*
X92524833Y-95584838D01*
X92181057Y-95726883D01*
X91917808Y-95989673D01*
X91817222Y-96231910D01*
X90849566Y-97199566D01*
X90668561Y-97470459D01*
X90605000Y-97790000D01*
X90605000Y-100511890D01*
X90287720Y-100828616D01*
X90080237Y-101328292D01*
X90079764Y-101869334D01*
X89735000Y-101869334D01*
X89735000Y-92660866D01*
X90892172Y-91503694D01*
X90921376Y-91574372D01*
X91240000Y-91893553D01*
X91240000Y-92075000D01*
X91303561Y-92394541D01*
X91394072Y-92530000D01*
X91484566Y-92665434D01*
X96897466Y-98078335D01*
X96955000Y-98217578D01*
X96955000Y-102870000D01*
X97018561Y-103189541D01*
X97123694Y-103346883D01*
X97199566Y-103460434D01*
X98252440Y-104513308D01*
X98351858Y-104753918D01*
X98614648Y-105017167D01*
X98958176Y-105159813D01*
X99330142Y-105160137D01*
X99673918Y-105018092D01*
X99937167Y-104755302D01*
X100079813Y-104411774D01*
X100080137Y-104039808D01*
X99938092Y-103696032D01*
X99675302Y-103432783D01*
X99433065Y-103332197D01*
X98625000Y-102524132D01*
X98625000Y-98217234D01*
X98724838Y-97976799D01*
X98725162Y-97604833D01*
X98583117Y-97261057D01*
X98320327Y-96997808D01*
X98078091Y-96897223D01*
X96745642Y-95564774D01*
X118609831Y-95564774D01*
X118674131Y-95802611D01*
X119182342Y-95982333D01*
X119720644Y-95953892D01*
X120085869Y-95802611D01*
X120150169Y-95564774D01*
X119380000Y-94794605D01*
X118609831Y-95564774D01*
X96745642Y-95564774D01*
X95598210Y-94417342D01*
X118012667Y-94417342D01*
X118041108Y-94955644D01*
X118192389Y-95320869D01*
X118430226Y-95385169D01*
X119200395Y-94615000D01*
X119559605Y-94615000D01*
X120329774Y-95385169D01*
X120567611Y-95320869D01*
X120747333Y-94812658D01*
X120718892Y-94274356D01*
X120567611Y-93909131D01*
X120329774Y-93844831D01*
X119559605Y-94615000D01*
X119200395Y-94615000D01*
X118430226Y-93844831D01*
X118192389Y-93909131D01*
X118012667Y-94417342D01*
X95598210Y-94417342D01*
X92992061Y-91811193D01*
X93044948Y-91758398D01*
X93841207Y-91758398D01*
X93906122Y-91996753D01*
X94416146Y-92177312D01*
X94956444Y-92148949D01*
X95323878Y-91996753D01*
X95388793Y-91758398D01*
X94615000Y-90984605D01*
X93841207Y-91758398D01*
X93044948Y-91758398D01*
X93227280Y-91576384D01*
X93338346Y-91308908D01*
X93423247Y-91513878D01*
X93661602Y-91578793D01*
X94435395Y-90805000D01*
X93661602Y-90031207D01*
X93423247Y-90096122D01*
X93344975Y-90317217D01*
X93228624Y-90035628D01*
X92928520Y-89735000D01*
X93872963Y-89735000D01*
X93841207Y-89851602D01*
X94615000Y-90625395D01*
X95388793Y-89851602D01*
X95357037Y-89735000D01*
X96301858Y-89735000D01*
X96002720Y-90033616D01*
X95891654Y-90301092D01*
X95806753Y-90096122D01*
X95568398Y-90031207D01*
X94794605Y-90805000D01*
X95568398Y-91578793D01*
X95806753Y-91513878D01*
X95885025Y-91292783D01*
X96001376Y-91574372D01*
X96383616Y-91957280D01*
X96883292Y-92164763D01*
X97424334Y-92165236D01*
X97924372Y-91958624D01*
X98161271Y-91722139D01*
X98167465Y-91728333D01*
X98266883Y-91968943D01*
X98529673Y-92232192D01*
X98873201Y-92374838D01*
X99245167Y-92375162D01*
X99588943Y-92233117D01*
X99852192Y-91970327D01*
X99994838Y-91626799D01*
X99995162Y-91254833D01*
X99853117Y-90911057D01*
X99590327Y-90647808D01*
X99348090Y-90547222D01*
X99015434Y-90214566D01*
X98918804Y-90150000D01*
X98744541Y-90033561D01*
X98425000Y-89970000D01*
X98243110Y-89970000D01*
X98008520Y-89735000D01*
X103834132Y-89735000D01*
X106411732Y-92312600D01*
X106380280Y-92388346D01*
X106379721Y-93028844D01*
X106624312Y-93620800D01*
X107076817Y-94074096D01*
X107668346Y-94319720D01*
X108308844Y-94320279D01*
X108900800Y-94075688D01*
X109132450Y-93844442D01*
X112035163Y-93844442D01*
X112130763Y-94108704D01*
X112731429Y-94331049D01*
X113371461Y-94306605D01*
X113849237Y-94108704D01*
X113944837Y-93844442D01*
X113765621Y-93665226D01*
X118609831Y-93665226D01*
X119380000Y-94435395D01*
X120150169Y-93665226D01*
X120085869Y-93427389D01*
X119577658Y-93247667D01*
X119039356Y-93276108D01*
X118674131Y-93427389D01*
X118609831Y-93665226D01*
X113765621Y-93665226D01*
X112990000Y-92889605D01*
X112035163Y-93844442D01*
X109132450Y-93844442D01*
X109354096Y-93623183D01*
X109599720Y-93031654D01*
X109600226Y-92451429D01*
X111368951Y-92451429D01*
X111393395Y-93091461D01*
X111591296Y-93569237D01*
X111855558Y-93664837D01*
X112810395Y-92710000D01*
X113169605Y-92710000D01*
X114124442Y-93664837D01*
X114388704Y-93569237D01*
X114611049Y-92968571D01*
X114586605Y-92328539D01*
X114388704Y-91850763D01*
X114124442Y-91755163D01*
X113169605Y-92710000D01*
X112810395Y-92710000D01*
X111855558Y-91755163D01*
X111591296Y-91850763D01*
X111368951Y-92451429D01*
X109600226Y-92451429D01*
X109600279Y-92391156D01*
X109567951Y-92312917D01*
X110305310Y-91575558D01*
X112035163Y-91575558D01*
X112990000Y-92530395D01*
X113944837Y-91575558D01*
X113849237Y-91311296D01*
X113248571Y-91088951D01*
X112608539Y-91113395D01*
X112130763Y-91311296D01*
X112035163Y-91575558D01*
X110305310Y-91575558D01*
X112830869Y-89049999D01*
X118114218Y-89049999D01*
X118025236Y-89264291D01*
X118025236Y-89264291D01*
G37*
X118025236Y-89264291D02*
X118024765Y-89803344D01*
X118230617Y-90301543D01*
X118611452Y-90683043D01*
X119109291Y-90889764D01*
X119576522Y-90890172D01*
X119780458Y-91026438D01*
X120099999Y-91089999D01*
X120988788Y-91089999D01*
X120771957Y-91306452D01*
X120565236Y-91804291D01*
X120564765Y-92343344D01*
X120770617Y-92841543D01*
X121085000Y-93156475D01*
X121085000Y-96520000D01*
X121148561Y-96839541D01*
X121232791Y-96965600D01*
X121179502Y-96955000D01*
X103297234Y-96955000D01*
X103056799Y-96855162D01*
X102684833Y-96854838D01*
X102341057Y-96996883D01*
X102077808Y-97259673D01*
X101935162Y-97603201D01*
X101934838Y-97975167D01*
X102076883Y-98318943D01*
X102136485Y-98378649D01*
X99822048Y-100693086D01*
X99754799Y-100665162D01*
X99382833Y-100664838D01*
X99039057Y-100806883D01*
X98775808Y-101069673D01*
X98633162Y-101413201D01*
X98632838Y-101785167D01*
X98774883Y-102128943D01*
X99037673Y-102392192D01*
X99381201Y-102534838D01*
X99753167Y-102535162D01*
X99995578Y-102435000D01*
X100096002Y-102435000D01*
X100415543Y-102371439D01*
X100686436Y-102190434D01*
X102655000Y-100221870D01*
X102655000Y-100588630D01*
X102604999Y-100840001D01*
X102604999Y-101936001D01*
X102668560Y-102255542D01*
X102788470Y-102435000D01*
X102849565Y-102526435D01*
X103213565Y-102890435D01*
X103484459Y-103071441D01*
X103803999Y-103135001D01*
X104724135Y-103135001D01*
X105205001Y-103615867D01*
X105205001Y-105010001D01*
X105205009Y-105010041D01*
X105205009Y-109219121D01*
X104819566Y-109604564D01*
X104638561Y-109875457D01*
X104575000Y-110194998D01*
X104575000Y-112375000D01*
X104638561Y-112694541D01*
X104782526Y-112910000D01*
X104819566Y-112965434D01*
X105845000Y-113990868D01*
X105845000Y-114895000D01*
X105908561Y-115214541D01*
X106021256Y-115383201D01*
X106089566Y-115485434D01*
X106614132Y-116010000D01*
X106552998Y-116010000D01*
X106552998Y-116168748D01*
X106394250Y-116010000D01*
X105903690Y-116010000D01*
X105670301Y-116106673D01*
X105491673Y-116285302D01*
X105395000Y-116518691D01*
X105395000Y-117109250D01*
X105553750Y-117268000D01*
X106553000Y-117268000D01*
X106553000Y-117248000D01*
X106807000Y-117248000D01*
X106807000Y-117268000D01*
X107806250Y-117268000D01*
X107839191Y-117235059D01*
X108282946Y-117678814D01*
X108316517Y-117847690D01*
X108285162Y-117923201D01*
X108284838Y-118295167D01*
X108426883Y-118638943D01*
X108689673Y-118902192D01*
X109030440Y-119043692D01*
X107977440Y-120096692D01*
X107977440Y-119345000D01*
X107933162Y-119109683D01*
X107794090Y-118893559D01*
X107581890Y-118748569D01*
X107548510Y-118741809D01*
X107689699Y-118683327D01*
X107868327Y-118504698D01*
X107965000Y-118271309D01*
X107965000Y-117680750D01*
X107806250Y-117522000D01*
X106807000Y-117522000D01*
X106807000Y-117542000D01*
X106553000Y-117542000D01*
X106553000Y-117522000D01*
X105553750Y-117522000D01*
X105395000Y-117680750D01*
X105395000Y-118271309D01*
X105491673Y-118504698D01*
X105670301Y-118683327D01*
X105806287Y-118739654D01*
X105794683Y-118741838D01*
X105578559Y-118880910D01*
X105433569Y-119093110D01*
X105382560Y-119345000D01*
X105382560Y-119499225D01*
X105374566Y-119504566D01*
X105121667Y-119757465D01*
X104881057Y-119856883D01*
X104617808Y-120119673D01*
X104475162Y-120463201D01*
X104474838Y-120835167D01*
X104616883Y-121178943D01*
X104879673Y-121442192D01*
X105220440Y-121583692D01*
X103006572Y-123797560D01*
X102040000Y-123797560D01*
X101804683Y-123841838D01*
X101588559Y-123980910D01*
X101443569Y-124193110D01*
X101392560Y-124445000D01*
X101392560Y-125745000D01*
X101436838Y-125980317D01*
X101575910Y-126196441D01*
X101788110Y-126341431D01*
X102040000Y-126392440D01*
X103540000Y-126392440D01*
X103775317Y-126348162D01*
X103991441Y-126209090D01*
X104136431Y-125996890D01*
X104143191Y-125963510D01*
X104201673Y-126104699D01*
X104380302Y-126283327D01*
X104613691Y-126380000D01*
X105204250Y-126380000D01*
X105363000Y-126221250D01*
X105363000Y-125222000D01*
X105343000Y-125222000D01*
X105343000Y-124968000D01*
X105363000Y-124968000D01*
X105363000Y-123968750D01*
X105280059Y-123885809D01*
X107085867Y-122080001D01*
X108009999Y-122080001D01*
X108329540Y-122016440D01*
X108600433Y-121835435D01*
X110462560Y-119973308D01*
X110462560Y-120845000D01*
X110488903Y-120984998D01*
X110304833Y-120984838D01*
X110059345Y-121086271D01*
X109746195Y-121148561D01*
X109475302Y-121329566D01*
X106748947Y-124055921D01*
X106599698Y-123906673D01*
X106366309Y-123810000D01*
X105775750Y-123810000D01*
X105617000Y-123968750D01*
X105617000Y-124968000D01*
X105637000Y-124968000D01*
X105637000Y-125222000D01*
X105617000Y-125222000D01*
X105617000Y-126221250D01*
X105775750Y-126380000D01*
X105805001Y-126380000D01*
X105805001Y-126734999D01*
X104704999Y-126734999D01*
X104385458Y-126798560D01*
X104274051Y-126873000D01*
X104114565Y-126979565D01*
X103749565Y-127344565D01*
X103569804Y-127613596D01*
X103540000Y-127607560D01*
X102040000Y-127607560D01*
X101804683Y-127651838D01*
X101588559Y-127790910D01*
X101443569Y-128003110D01*
X101430023Y-128070000D01*
X100040868Y-128070000D01*
X99952535Y-127981667D01*
X99853117Y-127741057D01*
X99590327Y-127477808D01*
X99246799Y-127335162D01*
X98874833Y-127334838D01*
X98531057Y-127476883D01*
X98267808Y-127739673D01*
X98125162Y-128083201D01*
X98124838Y-128455167D01*
X98266883Y-128798943D01*
X98529673Y-129062192D01*
X98771910Y-129162778D01*
X99104566Y-129495434D01*
X99375460Y-129676440D01*
X99695000Y-129740000D01*
X101427370Y-129740000D01*
X101436838Y-129790317D01*
X101575910Y-130006441D01*
X101788110Y-130151431D01*
X102040000Y-130202440D01*
X103540000Y-130202440D01*
X103570058Y-130196784D01*
X103598935Y-130240001D01*
X103749565Y-130465435D01*
X104114565Y-130830435D01*
X104385458Y-131011440D01*
X104704999Y-131075001D01*
X108854999Y-131075001D01*
X109174540Y-131011440D01*
X109445433Y-130830435D01*
X109730434Y-130545434D01*
X109750161Y-130515911D01*
X109911439Y-130274541D01*
X109927172Y-130195446D01*
X110125317Y-130158162D01*
X110341441Y-130019090D01*
X110486431Y-129806890D01*
X110489081Y-129793803D01*
X110625910Y-130006441D01*
X110838110Y-130151431D01*
X111090000Y-130202440D01*
X112590000Y-130202440D01*
X112825317Y-130158162D01*
X113041441Y-130019090D01*
X113186431Y-129806890D01*
X113237440Y-129555000D01*
X113237440Y-128255000D01*
X113193162Y-128019683D01*
X113054090Y-127803559D01*
X112841890Y-127658569D01*
X112595000Y-127608573D01*
X112595000Y-127427234D01*
X112694838Y-127186799D01*
X112695162Y-126814833D01*
X112553117Y-126471057D01*
X112474637Y-126392440D01*
X112590000Y-126392440D01*
X112825317Y-126348162D01*
X113041441Y-126209090D01*
X113186431Y-125996890D01*
X113237440Y-125745000D01*
X113237440Y-124445000D01*
X113193162Y-124209683D01*
X113054090Y-123993559D01*
X112841890Y-123848569D01*
X112590000Y-123797560D01*
X111723428Y-123797560D01*
X111388992Y-123463124D01*
X111424838Y-123376799D01*
X111425162Y-123004833D01*
X111283117Y-122661057D01*
X111177290Y-122555046D01*
X111276576Y-122455933D01*
X111338209Y-122510636D01*
X112476907Y-123177119D01*
X112490883Y-123210943D01*
X112753673Y-123474192D01*
X113097201Y-123616838D01*
X113464999Y-123617158D01*
X113464999Y-138868224D01*
X113216799Y-138765162D01*
X113022816Y-138764993D01*
X113086431Y-138671890D01*
X113137440Y-138420000D01*
X113137440Y-137170000D01*
X113093162Y-136934683D01*
X112954090Y-136718559D01*
X112741890Y-136573569D01*
X112595000Y-136543823D01*
X112595000Y-136317234D01*
X112694838Y-136076799D01*
X112695162Y-135704833D01*
X112595000Y-135462422D01*
X112595000Y-135237683D01*
X112725317Y-135213162D01*
X112941441Y-135074090D01*
X113086431Y-134861890D01*
X113137440Y-134610000D01*
X113137440Y-133360000D01*
X113093162Y-133124683D01*
X112954090Y-132908559D01*
X112741890Y-132763569D01*
X112490000Y-132712560D01*
X110990000Y-132712560D01*
X110754683Y-132756838D01*
X110538559Y-132895910D01*
X110492031Y-132964006D01*
X110349698Y-132821673D01*
X110116309Y-132725000D01*
X109525750Y-132725000D01*
X109367000Y-132883750D01*
X109367000Y-133858000D01*
X109387000Y-133858000D01*
X109387000Y-134112000D01*
X109367000Y-134112000D01*
X109367000Y-135086250D01*
X109525750Y-135245000D01*
X110116309Y-135245000D01*
X110349698Y-135148327D01*
X110490936Y-135007090D01*
X110525910Y-135061441D01*
X110738110Y-135206431D01*
X110925000Y-135244277D01*
X110925000Y-135462766D01*
X110825162Y-135703201D01*
X110824838Y-136075167D01*
X110925000Y-136317578D01*
X110925000Y-136534791D01*
X110754683Y-136566838D01*
X110538559Y-136705910D01*
X110492031Y-136774006D01*
X110349698Y-136631673D01*
X110116309Y-136535000D01*
X109525750Y-136535000D01*
X109367000Y-136693750D01*
X109367000Y-137668000D01*
X109387000Y-137668000D01*
X109387000Y-137922000D01*
X109367000Y-137922000D01*
X109367000Y-137942000D01*
X109113000Y-137942000D01*
X109113000Y-137922000D01*
X108013750Y-137922000D01*
X107930809Y-138004941D01*
X107130434Y-137204566D01*
X107032393Y-137139057D01*
X106889667Y-137043690D01*
X107855000Y-137043690D01*
X107855000Y-137509250D01*
X108013750Y-137668000D01*
X109113000Y-137668000D01*
X109113000Y-136693750D01*
X108954250Y-136535000D01*
X108363691Y-136535000D01*
X108130302Y-136631673D01*
X107951673Y-136810301D01*
X107855000Y-137043690D01*
X106889667Y-137043690D01*
X106859541Y-137023561D01*
X106756011Y-137002967D01*
X106743162Y-136934683D01*
X106604090Y-136718559D01*
X106391890Y-136573569D01*
X106140000Y-136522560D01*
X104640000Y-136522560D01*
X104404683Y-136566838D01*
X104188559Y-136705910D01*
X104142031Y-136774006D01*
X103999698Y-136631673D01*
X103766309Y-136535000D01*
X103175750Y-136535000D01*
X103017000Y-136693750D01*
X103017000Y-137668000D01*
X103037000Y-137668000D01*
X103037000Y-137922000D01*
X103017000Y-137922000D01*
X103017000Y-138896250D01*
X103175750Y-139055000D01*
X103766309Y-139055000D01*
X103999698Y-138958327D01*
X104140936Y-138817090D01*
X104175910Y-138871441D01*
X104388110Y-139016431D01*
X104640000Y-139067440D01*
X106140000Y-139067440D01*
X106375317Y-139023162D01*
X106504297Y-138940165D01*
X107854566Y-140290434D01*
X108125459Y-140471439D01*
X108445000Y-140535000D01*
X112602766Y-140535000D01*
X112843201Y-140634838D01*
X113215167Y-140635162D01*
X113464999Y-140531934D01*
X113464999Y-148244133D01*
X110144132Y-151565000D01*
X94325868Y-151565000D01*
X91005000Y-148244132D01*
X91005000Y-146832941D01*
X91164078Y-147116317D01*
X91666980Y-147511942D01*
X92283000Y-147685000D01*
X92583000Y-147685000D01*
X92583000Y-146177000D01*
X92837000Y-146177000D01*
X92837000Y-147685000D01*
X93137000Y-147685000D01*
X93753020Y-147511942D01*
X94255922Y-147116317D01*
X94569144Y-146558355D01*
X94600124Y-146430434D01*
X94480777Y-146177000D01*
X92837000Y-146177000D01*
X92583000Y-146177000D01*
X92563000Y-146177000D01*
X92563000Y-145923000D01*
X92583000Y-145923000D01*
X92583000Y-145903000D01*
X92837000Y-145903000D01*
X92837000Y-145923000D01*
X94480777Y-145923000D01*
X94600124Y-145669566D01*
X94569144Y-145541645D01*
X94255922Y-144983683D01*
X94013812Y-144793219D01*
X94204029Y-144666120D01*
X94558452Y-144135687D01*
X94682909Y-143510000D01*
X94558452Y-142884313D01*
X94204029Y-142353880D01*
X94033595Y-142240000D01*
X94204029Y-142126120D01*
X94558452Y-141595687D01*
X94682909Y-140970000D01*
X94558452Y-140344313D01*
X94204029Y-139813880D01*
X94033595Y-139700000D01*
X94204029Y-139586120D01*
X94558452Y-139055687D01*
X94682909Y-138430000D01*
X94613439Y-138080750D01*
X101505000Y-138080750D01*
X101505000Y-138546310D01*
X101601673Y-138779699D01*
X101780302Y-138958327D01*
X102013691Y-139055000D01*
X102604250Y-139055000D01*
X102763000Y-138896250D01*
X102763000Y-137922000D01*
X101663750Y-137922000D01*
X101505000Y-138080750D01*
X94613439Y-138080750D01*
X94558452Y-137804313D01*
X94204029Y-137273880D01*
X94033595Y-137160000D01*
X94204029Y-137046120D01*
X94205652Y-137043690D01*
X101505000Y-137043690D01*
X101505000Y-137509250D01*
X101663750Y-137668000D01*
X102763000Y-137668000D01*
X102763000Y-136693750D01*
X102604250Y-136535000D01*
X102013691Y-136535000D01*
X101780302Y-136631673D01*
X101601673Y-136810301D01*
X101505000Y-137043690D01*
X94205652Y-137043690D01*
X94558452Y-136515687D01*
X94682909Y-135890000D01*
X94558452Y-135264313D01*
X94318907Y-134905808D01*
X94461441Y-134814090D01*
X94606431Y-134601890D01*
X94657440Y-134350000D01*
X94657440Y-134270750D01*
X101505000Y-134270750D01*
X101505000Y-134736310D01*
X101601673Y-134969699D01*
X101780302Y-135148327D01*
X102013691Y-135245000D01*
X102604250Y-135245000D01*
X102763000Y-135086250D01*
X102763000Y-134112000D01*
X101663750Y-134112000D01*
X101505000Y-134270750D01*
X94657440Y-134270750D01*
X94657440Y-133233690D01*
X101505000Y-133233690D01*
X101505000Y-133699250D01*
X101663750Y-133858000D01*
X102763000Y-133858000D01*
X102763000Y-132883750D01*
X103017000Y-132883750D01*
X103017000Y-133858000D01*
X103037000Y-133858000D01*
X103037000Y-134112000D01*
X103017000Y-134112000D01*
X103017000Y-135086250D01*
X103175750Y-135245000D01*
X103766309Y-135245000D01*
X103999698Y-135148327D01*
X104140936Y-135007090D01*
X104175910Y-135061441D01*
X104388110Y-135206431D01*
X104640000Y-135257440D01*
X106140000Y-135257440D01*
X106375317Y-135213162D01*
X106591441Y-135074090D01*
X106736431Y-134861890D01*
X106787440Y-134610000D01*
X106787440Y-134270750D01*
X107855000Y-134270750D01*
X107855000Y-134736310D01*
X107951673Y-134969699D01*
X108130302Y-135148327D01*
X108363691Y-135245000D01*
X108954250Y-135245000D01*
X109113000Y-135086250D01*
X109113000Y-134112000D01*
X108013750Y-134112000D01*
X107855000Y-134270750D01*
X106787440Y-134270750D01*
X106787440Y-133360000D01*
X106763674Y-133233690D01*
X107855000Y-133233690D01*
X107855000Y-133699250D01*
X108013750Y-133858000D01*
X109113000Y-133858000D01*
X109113000Y-132883750D01*
X108954250Y-132725000D01*
X108363691Y-132725000D01*
X108130302Y-132821673D01*
X107951673Y-133000301D01*
X107855000Y-133233690D01*
X106763674Y-133233690D01*
X106743162Y-133124683D01*
X106604090Y-132908559D01*
X106391890Y-132763569D01*
X106245000Y-132733823D01*
X106245000Y-132507234D01*
X106344838Y-132266799D01*
X106345162Y-131894833D01*
X106203117Y-131551057D01*
X105940327Y-131287808D01*
X105596799Y-131145162D01*
X105224833Y-131144838D01*
X104881057Y-131286883D01*
X104617808Y-131549673D01*
X104475162Y-131893201D01*
X104474838Y-132265167D01*
X104575000Y-132507578D01*
X104575000Y-132724791D01*
X104404683Y-132756838D01*
X104188559Y-132895910D01*
X104142031Y-132964006D01*
X103999698Y-132821673D01*
X103766309Y-132725000D01*
X103175750Y-132725000D01*
X103017000Y-132883750D01*
X102763000Y-132883750D01*
X102604250Y-132725000D01*
X102013691Y-132725000D01*
X101780302Y-132821673D01*
X101601673Y-133000301D01*
X101505000Y-133233690D01*
X94657440Y-133233690D01*
X94657440Y-132540220D01*
X94751439Y-132399541D01*
X94815000Y-132080000D01*
X94815000Y-128697234D01*
X94914838Y-128456799D01*
X94915162Y-128084833D01*
X94773117Y-127741057D01*
X94558949Y-127526515D01*
X94569144Y-127508355D01*
X94600124Y-127380434D01*
X94480777Y-127127000D01*
X92837000Y-127127000D01*
X92837000Y-127147000D01*
X92583000Y-127147000D01*
X92583000Y-127127000D01*
X92563000Y-127127000D01*
X92563000Y-126873000D01*
X92583000Y-126873000D01*
X92583000Y-126853000D01*
X92837000Y-126853000D01*
X92837000Y-126873000D01*
X94480777Y-126873000D01*
X94600124Y-126619566D01*
X94569144Y-126491645D01*
X94255922Y-125933683D01*
X94013812Y-125743219D01*
X94204029Y-125616120D01*
X94558452Y-125085687D01*
X94682909Y-124460000D01*
X94558452Y-123834313D01*
X94204029Y-123303880D01*
X94033595Y-123190000D01*
X94204029Y-123076120D01*
X94558452Y-122545687D01*
X94682909Y-121920000D01*
X94558452Y-121294313D01*
X94204029Y-120763880D01*
X94033595Y-120650000D01*
X94204029Y-120536120D01*
X94276617Y-120427485D01*
X94659566Y-120810434D01*
X94930459Y-120991439D01*
X95250000Y-121055000D01*
X96950000Y-121055000D01*
X97269541Y-120991439D01*
X97540434Y-120810434D01*
X98225000Y-120125868D01*
X98225000Y-123697766D01*
X98125162Y-123938201D01*
X98124838Y-124310167D01*
X98266883Y-124653943D01*
X98529673Y-124917192D01*
X98873201Y-125059838D01*
X99245167Y-125060162D01*
X99588943Y-124918117D01*
X99852192Y-124655327D01*
X99994838Y-124311799D01*
X99995162Y-123939833D01*
X99895000Y-123697422D01*
X99895000Y-119345000D01*
X100302560Y-119345000D01*
X100302560Y-120845000D01*
X100346838Y-121080317D01*
X100485910Y-121296441D01*
X100698110Y-121441431D01*
X100950000Y-121492440D01*
X102250000Y-121492440D01*
X102394984Y-121465159D01*
X102683201Y-121584838D01*
X103055167Y-121585162D01*
X103398943Y-121443117D01*
X103662192Y-121180327D01*
X103804838Y-120836799D01*
X103805162Y-120464833D01*
X103663117Y-120121057D01*
X103400327Y-119857808D01*
X103158090Y-119757222D01*
X102905434Y-119504566D01*
X102897440Y-119499225D01*
X102897440Y-119345000D01*
X102853162Y-119109683D01*
X102714090Y-118893559D01*
X102501890Y-118748569D01*
X102468510Y-118741809D01*
X102609699Y-118683327D01*
X102788327Y-118504698D01*
X102885000Y-118271309D01*
X102885000Y-117680750D01*
X102726250Y-117522000D01*
X101727000Y-117522000D01*
X101727000Y-117542000D01*
X101473000Y-117542000D01*
X101473000Y-117522000D01*
X100473750Y-117522000D01*
X100315000Y-117680750D01*
X100315000Y-118271309D01*
X100411673Y-118504698D01*
X100590301Y-118683327D01*
X100726287Y-118739654D01*
X100714683Y-118741838D01*
X100498559Y-118880910D01*
X100353569Y-119093110D01*
X100302560Y-119345000D01*
X99895000Y-119345000D01*
X99895000Y-116518691D01*
X100315000Y-116518691D01*
X100315000Y-117109250D01*
X100473750Y-117268000D01*
X101473000Y-117268000D01*
X101473000Y-116168750D01*
X101314250Y-116010000D01*
X100823690Y-116010000D01*
X100590301Y-116106673D01*
X100411673Y-116285302D01*
X100315000Y-116518691D01*
X99895000Y-116518691D01*
X99895000Y-112187234D01*
X99994838Y-111946799D01*
X99995162Y-111574833D01*
X99891933Y-111325000D01*
X100034998Y-111325000D01*
X100354539Y-111261439D01*
X100444262Y-111201488D01*
X100315000Y-111330750D01*
X100315000Y-111921309D01*
X100411673Y-112154698D01*
X100590301Y-112333327D01*
X100726287Y-112389654D01*
X100714683Y-112391838D01*
X100498559Y-112530910D01*
X100353569Y-112743110D01*
X100302560Y-112995000D01*
X100302560Y-114495000D01*
X100346838Y-114730317D01*
X100485910Y-114946441D01*
X100698110Y-115091431D01*
X100950000Y-115142440D01*
X101261572Y-115142440D01*
X101977465Y-115858333D01*
X102040133Y-116010000D01*
X101885750Y-116010000D01*
X101727000Y-116168750D01*
X101727000Y-117268000D01*
X102726250Y-117268000D01*
X102885000Y-117109250D01*
X102885000Y-116518691D01*
X102879333Y-116505009D01*
X103055167Y-116505162D01*
X103398943Y-116363117D01*
X103662192Y-116100327D01*
X103804838Y-115756799D01*
X103805162Y-115384833D01*
X103663117Y-115041057D01*
X103400327Y-114777808D01*
X103158090Y-114677222D01*
X102897440Y-114416572D01*
X102897440Y-112995000D01*
X102853162Y-112759683D01*
X102714090Y-112543559D01*
X102501890Y-112398569D01*
X102468510Y-112391809D01*
X102609699Y-112333327D01*
X102788327Y-112154698D01*
X102885000Y-111921309D01*
X102885000Y-111330750D01*
X102726250Y-111172000D01*
X101727000Y-111172000D01*
X101727000Y-111192000D01*
X101473000Y-111192000D01*
X101473000Y-111172000D01*
X101453000Y-111172000D01*
X101453000Y-110918000D01*
X101473000Y-110918000D01*
X101473000Y-110898000D01*
X101727000Y-110898000D01*
X101727000Y-110918000D01*
X102726250Y-110918000D01*
X102885000Y-110759250D01*
X102885000Y-110168691D01*
X102788327Y-109935302D01*
X102609699Y-109756673D01*
X102376310Y-109660000D01*
X102187160Y-109660000D01*
X102392192Y-109455325D01*
X102534838Y-109111797D01*
X102535162Y-108739831D01*
X102393117Y-108396055D01*
X102204130Y-108206738D01*
X104463547Y-105947321D01*
X104618933Y-105883117D01*
X104882182Y-105620327D01*
X105024828Y-105276799D01*
X105025152Y-104904833D01*
X104883107Y-104561057D01*
X104620317Y-104297808D01*
X104276789Y-104155162D01*
X103904823Y-104154838D01*
X103561047Y-104296883D01*
X103297798Y-104559673D01*
X103161700Y-104887432D01*
X99664132Y-108385000D01*
X96520000Y-108385000D01*
X96200459Y-108448561D01*
X95929566Y-108629566D01*
X95748561Y-108900459D01*
X95685000Y-109220000D01*
X95685000Y-117982766D01*
X95585162Y-118223201D01*
X95584838Y-118595167D01*
X95726883Y-118938943D01*
X95989673Y-119202192D01*
X96333201Y-119344838D01*
X96644023Y-119345109D01*
X96604132Y-119385000D01*
X95595868Y-119385000D01*
X95000434Y-118789566D01*
X94947674Y-118754313D01*
X94729541Y-118608561D01*
X94419911Y-118546971D01*
X94204029Y-118223880D01*
X94033595Y-118110000D01*
X94204029Y-117996120D01*
X94558452Y-117465687D01*
X94682909Y-116840000D01*
X94558452Y-116214313D01*
X94318907Y-115855808D01*
X94461441Y-115764090D01*
X94606431Y-115551890D01*
X94657440Y-115300000D01*
X94657440Y-113300000D01*
X94613162Y-113064683D01*
X94474090Y-112848559D01*
X94261890Y-112703569D01*
X94010000Y-112652560D01*
X93545000Y-112652560D01*
X93545000Y-107025868D01*
X94268333Y-106302535D01*
X94508943Y-106203117D01*
X94772192Y-105940327D01*
X94914838Y-105596799D01*
X94915162Y-105224833D01*
X94773117Y-104881057D01*
X94510327Y-104617808D01*
X94166799Y-104475162D01*
X93794833Y-104474838D01*
X93451057Y-104616883D01*
X93187808Y-104879673D01*
X93087222Y-105121910D01*
X92446193Y-105762939D01*
X92211384Y-105527720D01*
X91943908Y-105416654D01*
X92148878Y-105331753D01*
X92213793Y-105093398D01*
X91440000Y-104319605D01*
X90666207Y-105093398D01*
X90731122Y-105331753D01*
X90952217Y-105410025D01*
X90670628Y-105526376D01*
X90287720Y-105908616D01*
X90080237Y-106408292D01*
X90079764Y-106949334D01*
X90286376Y-107449372D01*
X90668616Y-107832280D01*
X91168292Y-108039763D01*
X91709334Y-108040236D01*
X91875000Y-107971784D01*
X91875000Y-112652560D01*
X91410000Y-112652560D01*
X91174683Y-112696838D01*
X90958559Y-112835910D01*
X90813569Y-113048110D01*
X90762560Y-113300000D01*
X90762560Y-115300000D01*
X90806838Y-115535317D01*
X90945910Y-115751441D01*
X91100329Y-115856951D01*
X90861548Y-116214313D01*
X90737091Y-116840000D01*
X90861548Y-117465687D01*
X91215971Y-117996120D01*
X91386405Y-118110000D01*
X91215971Y-118223880D01*
X90861548Y-118754313D01*
X90737091Y-119380000D01*
X90861548Y-120005687D01*
X91215971Y-120536120D01*
X91386405Y-120650000D01*
X91215971Y-120763880D01*
X90861548Y-121294313D01*
X90737091Y-121920000D01*
X90861548Y-122545687D01*
X91215971Y-123076120D01*
X91386405Y-123190000D01*
X91215971Y-123303880D01*
X90861548Y-123834313D01*
X90737091Y-124460000D01*
X90861548Y-125085687D01*
X91215971Y-125616120D01*
X91406188Y-125743219D01*
X91164078Y-125933683D01*
X90850856Y-126491645D01*
X90844793Y-126516680D01*
X89735000Y-125406887D01*
X89735000Y-103941146D01*
X90067688Y-103941146D01*
X90096051Y-104481444D01*
X90248247Y-104848878D01*
X90486602Y-104913793D01*
X91260395Y-104140000D01*
X91619605Y-104140000D01*
X92393398Y-104913793D01*
X92631753Y-104848878D01*
X92812312Y-104338854D01*
X92783949Y-103798556D01*
X92631753Y-103431122D01*
X92393398Y-103366207D01*
X91619605Y-104140000D01*
X91260395Y-104140000D01*
X90486602Y-103366207D01*
X90248247Y-103431122D01*
X90067688Y-103941146D01*
X89735000Y-103941146D01*
X89735000Y-101869334D01*
X90079764Y-101869334D01*
X90286376Y-102369372D01*
X90668616Y-102752280D01*
X90936092Y-102863346D01*
X90731122Y-102948247D01*
X90666207Y-103186602D01*
X91440000Y-103960395D01*
X92213793Y-103186602D01*
X92148878Y-102948247D01*
X91927783Y-102869975D01*
X92209372Y-102753624D01*
X92592280Y-102371384D01*
X92799763Y-101871708D01*
X92800236Y-101330666D01*
X92593624Y-100830628D01*
X92275000Y-100511447D01*
X92275000Y-98135868D01*
X92998333Y-97412535D01*
X93238943Y-97313117D01*
X93502192Y-97050327D01*
X93644838Y-96706799D01*
X93645162Y-96334833D01*
X93503117Y-95991057D01*
X93240327Y-95727808D01*
X92896799Y-95585162D01*
X92524833Y-95584838D01*
X92181057Y-95726883D01*
X91917808Y-95989673D01*
X91817222Y-96231910D01*
X90849566Y-97199566D01*
X90668561Y-97470459D01*
X90605000Y-97790000D01*
X90605000Y-100511890D01*
X90287720Y-100828616D01*
X90080237Y-101328292D01*
X90079764Y-101869334D01*
X89735000Y-101869334D01*
X89735000Y-92660866D01*
X90892172Y-91503694D01*
X90921376Y-91574372D01*
X91240000Y-91893553D01*
X91240000Y-92075000D01*
X91303561Y-92394541D01*
X91394072Y-92530000D01*
X91484566Y-92665434D01*
X96897466Y-98078335D01*
X96955000Y-98217578D01*
X96955000Y-102870000D01*
X97018561Y-103189541D01*
X97123694Y-103346883D01*
X97199566Y-103460434D01*
X98252440Y-104513308D01*
X98351858Y-104753918D01*
X98614648Y-105017167D01*
X98958176Y-105159813D01*
X99330142Y-105160137D01*
X99673918Y-105018092D01*
X99937167Y-104755302D01*
X100079813Y-104411774D01*
X100080137Y-104039808D01*
X99938092Y-103696032D01*
X99675302Y-103432783D01*
X99433065Y-103332197D01*
X98625000Y-102524132D01*
X98625000Y-98217234D01*
X98724838Y-97976799D01*
X98725162Y-97604833D01*
X98583117Y-97261057D01*
X98320327Y-96997808D01*
X98078091Y-96897223D01*
X96745642Y-95564774D01*
X118609831Y-95564774D01*
X118674131Y-95802611D01*
X119182342Y-95982333D01*
X119720644Y-95953892D01*
X120085869Y-95802611D01*
X120150169Y-95564774D01*
X119380000Y-94794605D01*
X118609831Y-95564774D01*
X96745642Y-95564774D01*
X95598210Y-94417342D01*
X118012667Y-94417342D01*
X118041108Y-94955644D01*
X118192389Y-95320869D01*
X118430226Y-95385169D01*
X119200395Y-94615000D01*
X119559605Y-94615000D01*
X120329774Y-95385169D01*
X120567611Y-95320869D01*
X120747333Y-94812658D01*
X120718892Y-94274356D01*
X120567611Y-93909131D01*
X120329774Y-93844831D01*
X119559605Y-94615000D01*
X119200395Y-94615000D01*
X118430226Y-93844831D01*
X118192389Y-93909131D01*
X118012667Y-94417342D01*
X95598210Y-94417342D01*
X92992061Y-91811193D01*
X93044948Y-91758398D01*
X93841207Y-91758398D01*
X93906122Y-91996753D01*
X94416146Y-92177312D01*
X94956444Y-92148949D01*
X95323878Y-91996753D01*
X95388793Y-91758398D01*
X94615000Y-90984605D01*
X93841207Y-91758398D01*
X93044948Y-91758398D01*
X93227280Y-91576384D01*
X93338346Y-91308908D01*
X93423247Y-91513878D01*
X93661602Y-91578793D01*
X94435395Y-90805000D01*
X93661602Y-90031207D01*
X93423247Y-90096122D01*
X93344975Y-90317217D01*
X93228624Y-90035628D01*
X92928520Y-89735000D01*
X93872963Y-89735000D01*
X93841207Y-89851602D01*
X94615000Y-90625395D01*
X95388793Y-89851602D01*
X95357037Y-89735000D01*
X96301858Y-89735000D01*
X96002720Y-90033616D01*
X95891654Y-90301092D01*
X95806753Y-90096122D01*
X95568398Y-90031207D01*
X94794605Y-90805000D01*
X95568398Y-91578793D01*
X95806753Y-91513878D01*
X95885025Y-91292783D01*
X96001376Y-91574372D01*
X96383616Y-91957280D01*
X96883292Y-92164763D01*
X97424334Y-92165236D01*
X97924372Y-91958624D01*
X98161271Y-91722139D01*
X98167465Y-91728333D01*
X98266883Y-91968943D01*
X98529673Y-92232192D01*
X98873201Y-92374838D01*
X99245167Y-92375162D01*
X99588943Y-92233117D01*
X99852192Y-91970327D01*
X99994838Y-91626799D01*
X99995162Y-91254833D01*
X99853117Y-90911057D01*
X99590327Y-90647808D01*
X99348090Y-90547222D01*
X99015434Y-90214566D01*
X98918804Y-90150000D01*
X98744541Y-90033561D01*
X98425000Y-89970000D01*
X98243110Y-89970000D01*
X98008520Y-89735000D01*
X103834132Y-89735000D01*
X106411732Y-92312600D01*
X106380280Y-92388346D01*
X106379721Y-93028844D01*
X106624312Y-93620800D01*
X107076817Y-94074096D01*
X107668346Y-94319720D01*
X108308844Y-94320279D01*
X108900800Y-94075688D01*
X109132450Y-93844442D01*
X112035163Y-93844442D01*
X112130763Y-94108704D01*
X112731429Y-94331049D01*
X113371461Y-94306605D01*
X113849237Y-94108704D01*
X113944837Y-93844442D01*
X113765621Y-93665226D01*
X118609831Y-93665226D01*
X119380000Y-94435395D01*
X120150169Y-93665226D01*
X120085869Y-93427389D01*
X119577658Y-93247667D01*
X119039356Y-93276108D01*
X118674131Y-93427389D01*
X118609831Y-93665226D01*
X113765621Y-93665226D01*
X112990000Y-92889605D01*
X112035163Y-93844442D01*
X109132450Y-93844442D01*
X109354096Y-93623183D01*
X109599720Y-93031654D01*
X109600226Y-92451429D01*
X111368951Y-92451429D01*
X111393395Y-93091461D01*
X111591296Y-93569237D01*
X111855558Y-93664837D01*
X112810395Y-92710000D01*
X113169605Y-92710000D01*
X114124442Y-93664837D01*
X114388704Y-93569237D01*
X114611049Y-92968571D01*
X114586605Y-92328539D01*
X114388704Y-91850763D01*
X114124442Y-91755163D01*
X113169605Y-92710000D01*
X112810395Y-92710000D01*
X111855558Y-91755163D01*
X111591296Y-91850763D01*
X111368951Y-92451429D01*
X109600226Y-92451429D01*
X109600279Y-92391156D01*
X109567951Y-92312917D01*
X110305310Y-91575558D01*
X112035163Y-91575558D01*
X112990000Y-92530395D01*
X113944837Y-91575558D01*
X113849237Y-91311296D01*
X113248571Y-91088951D01*
X112608539Y-91113395D01*
X112130763Y-91311296D01*
X112035163Y-91575558D01*
X110305310Y-91575558D01*
X112830869Y-89049999D01*
X118114218Y-89049999D01*
X118025236Y-89264291D01*
G36*
X116144910Y-109251441D02*
X116357110Y-109396431D01*
X116436443Y-109412496D01*
X116200812Y-109647717D01*
X115974258Y-110193319D01*
X115973743Y-110784089D01*
X116199344Y-111330086D01*
X116616717Y-111748188D01*
X116644557Y-111759748D01*
X116618914Y-111770344D01*
X116200812Y-112187717D01*
X115974258Y-112733319D01*
X115973743Y-113324089D01*
X116199344Y-113870086D01*
X116616717Y-114288188D01*
X116644557Y-114299748D01*
X116618914Y-114310344D01*
X116200812Y-114727717D01*
X115974258Y-115273319D01*
X115973743Y-115864089D01*
X116199344Y-116410086D01*
X116616717Y-116828188D01*
X116644557Y-116839748D01*
X116618914Y-116850344D01*
X116200812Y-117267717D01*
X115974258Y-117813319D01*
X115973743Y-118404089D01*
X116199344Y-118950086D01*
X116616717Y-119368188D01*
X116664312Y-119387951D01*
X116594647Y-119606042D01*
X117459000Y-120470395D01*
X118323353Y-119606042D01*
X118253819Y-119388360D01*
X118299086Y-119369656D01*
X118717188Y-118952283D01*
X118943742Y-118406681D01*
X118944257Y-117815911D01*
X118718656Y-117269914D01*
X118301283Y-116851812D01*
X118273443Y-116840252D01*
X118299086Y-116829656D01*
X118717188Y-116412283D01*
X118943742Y-115866681D01*
X118944257Y-115275911D01*
X118909300Y-115191309D01*
X119045578Y-115135000D01*
X131293111Y-115135000D01*
X131218282Y-115341279D01*
X131244685Y-115931458D01*
X131419741Y-116354080D01*
X131671042Y-116434353D01*
X132535395Y-115570000D01*
X132521253Y-115555858D01*
X132700858Y-115376253D01*
X132715000Y-115390395D01*
X132729143Y-115376253D01*
X132908748Y-115555858D01*
X132894605Y-115570000D01*
X132908748Y-115584143D01*
X132729143Y-115763748D01*
X132715000Y-115749605D01*
X131850647Y-116613958D01*
X131920181Y-116831640D01*
X131874914Y-116850344D01*
X131456812Y-117267717D01*
X131230258Y-117813319D01*
X131229743Y-118404089D01*
X131455344Y-118950086D01*
X131872717Y-119368188D01*
X131900557Y-119379748D01*
X131874914Y-119390344D01*
X131456812Y-119807717D01*
X131230258Y-120353319D01*
X131229743Y-120944089D01*
X131455344Y-121490086D01*
X131872717Y-121908188D01*
X131900557Y-121919748D01*
X131874914Y-121930344D01*
X131456812Y-122347717D01*
X131230258Y-122893319D01*
X131229743Y-123484089D01*
X131455344Y-124030086D01*
X131872717Y-124448188D01*
X131900557Y-124459748D01*
X131874914Y-124470344D01*
X131456812Y-124887717D01*
X131230258Y-125433319D01*
X131229743Y-126024089D01*
X131455344Y-126570086D01*
X131872717Y-126988188D01*
X131900557Y-126999748D01*
X131874914Y-127010344D01*
X131456812Y-127427717D01*
X131230258Y-127973319D01*
X131229743Y-128564089D01*
X131455344Y-129110086D01*
X131872717Y-129528188D01*
X131900557Y-129539748D01*
X131874914Y-129550344D01*
X131456812Y-129967717D01*
X131230258Y-130513319D01*
X131229743Y-131104089D01*
X131455344Y-131650086D01*
X131872717Y-132068188D01*
X131900557Y-132079748D01*
X131874914Y-132090344D01*
X131456812Y-132507717D01*
X131230258Y-133053319D01*
X131229743Y-133644089D01*
X131422803Y-134111329D01*
X124549133Y-140984999D01*
X118943988Y-140984999D01*
X118944257Y-140675911D01*
X118886034Y-140535000D01*
X120222766Y-140535000D01*
X120463201Y-140634838D01*
X120835167Y-140635162D01*
X121178943Y-140493117D01*
X121442192Y-140230327D01*
X121584838Y-139886799D01*
X121585162Y-139514833D01*
X121443117Y-139171057D01*
X121180327Y-138907808D01*
X120836799Y-138765162D01*
X120464833Y-138764838D01*
X120222422Y-138865000D01*
X118886307Y-138865000D01*
X118943742Y-138726681D01*
X118944257Y-138135911D01*
X118718656Y-137589914D01*
X118301283Y-137171812D01*
X118273443Y-137160252D01*
X118299086Y-137149656D01*
X118717188Y-136732283D01*
X118943742Y-136186681D01*
X118944257Y-135595911D01*
X118718656Y-135049914D01*
X118301283Y-134631812D01*
X118273443Y-134620252D01*
X118299086Y-134609656D01*
X118717188Y-134192283D01*
X118943742Y-133646681D01*
X118944257Y-133055911D01*
X118718656Y-132509914D01*
X118301283Y-132091812D01*
X118273443Y-132080252D01*
X118299086Y-132069656D01*
X118717188Y-131652283D01*
X118943742Y-131106681D01*
X118944257Y-130515911D01*
X118718656Y-129969914D01*
X118301283Y-129551812D01*
X118273443Y-129540252D01*
X118299086Y-129529656D01*
X118717188Y-129112283D01*
X118791487Y-128933353D01*
X122355000Y-132496866D01*
X122355000Y-136732766D01*
X122255162Y-136973201D01*
X122254838Y-137345167D01*
X122396883Y-137688943D01*
X122659673Y-137952192D01*
X123003201Y-138094838D01*
X123375167Y-138095162D01*
X123718943Y-137953117D01*
X123982192Y-137690327D01*
X124124838Y-137346799D01*
X124125162Y-136974833D01*
X124025000Y-136732422D01*
X124025000Y-132150998D01*
X123961439Y-131831457D01*
X123780434Y-131560564D01*
X118739183Y-126519313D01*
X118943742Y-126026681D01*
X118944257Y-125435911D01*
X118718656Y-124889914D01*
X118301283Y-124471812D01*
X118273443Y-124460252D01*
X118299086Y-124449656D01*
X118717188Y-124032283D01*
X118943742Y-123486681D01*
X118944257Y-122895911D01*
X118941245Y-122888623D01*
X121875434Y-119954434D01*
X121939997Y-119857808D01*
X122056439Y-119683541D01*
X122120000Y-119364000D01*
X122120000Y-116632234D01*
X122219838Y-116391799D01*
X122220162Y-116019833D01*
X122078117Y-115676057D01*
X121815327Y-115412808D01*
X121471799Y-115270162D01*
X121099833Y-115269838D01*
X120756057Y-115411883D01*
X120492808Y-115674673D01*
X120350162Y-116018201D01*
X120349838Y-116390167D01*
X120450000Y-116632578D01*
X120450000Y-119018132D01*
X118940032Y-120528100D01*
X118929315Y-120288542D01*
X118754259Y-119865920D01*
X118502958Y-119785647D01*
X117638605Y-120650000D01*
X117652748Y-120664143D01*
X117473143Y-120843748D01*
X117459000Y-120829605D01*
X116594647Y-121693958D01*
X116664181Y-121911640D01*
X116618914Y-121930344D01*
X116200812Y-122347717D01*
X115974258Y-122893319D01*
X115973743Y-123484089D01*
X116199344Y-124030086D01*
X116616717Y-124448188D01*
X116644557Y-124459748D01*
X116618914Y-124470344D01*
X116200812Y-124887717D01*
X115974258Y-125433319D01*
X115973743Y-126024089D01*
X116178497Y-126519633D01*
X115735009Y-126963121D01*
X115735009Y-120421279D01*
X115962282Y-120421279D01*
X115988685Y-121011458D01*
X116163741Y-121434080D01*
X116415042Y-121514353D01*
X117279395Y-120650000D01*
X116415042Y-119785647D01*
X116163741Y-119865920D01*
X115962282Y-120421279D01*
X115735009Y-120421279D01*
X115735009Y-109604859D01*
X116122795Y-109217073D01*
X116144910Y-109251441D01*
X116144910Y-109251441D01*
G37*
X116144910Y-109251441D02*
X116357110Y-109396431D01*
X116436443Y-109412496D01*
X116200812Y-109647717D01*
X115974258Y-110193319D01*
X115973743Y-110784089D01*
X116199344Y-111330086D01*
X116616717Y-111748188D01*
X116644557Y-111759748D01*
X116618914Y-111770344D01*
X116200812Y-112187717D01*
X115974258Y-112733319D01*
X115973743Y-113324089D01*
X116199344Y-113870086D01*
X116616717Y-114288188D01*
X116644557Y-114299748D01*
X116618914Y-114310344D01*
X116200812Y-114727717D01*
X115974258Y-115273319D01*
X115973743Y-115864089D01*
X116199344Y-116410086D01*
X116616717Y-116828188D01*
X116644557Y-116839748D01*
X116618914Y-116850344D01*
X116200812Y-117267717D01*
X115974258Y-117813319D01*
X115973743Y-118404089D01*
X116199344Y-118950086D01*
X116616717Y-119368188D01*
X116664312Y-119387951D01*
X116594647Y-119606042D01*
X117459000Y-120470395D01*
X118323353Y-119606042D01*
X118253819Y-119388360D01*
X118299086Y-119369656D01*
X118717188Y-118952283D01*
X118943742Y-118406681D01*
X118944257Y-117815911D01*
X118718656Y-117269914D01*
X118301283Y-116851812D01*
X118273443Y-116840252D01*
X118299086Y-116829656D01*
X118717188Y-116412283D01*
X118943742Y-115866681D01*
X118944257Y-115275911D01*
X118909300Y-115191309D01*
X119045578Y-115135000D01*
X131293111Y-115135000D01*
X131218282Y-115341279D01*
X131244685Y-115931458D01*
X131419741Y-116354080D01*
X131671042Y-116434353D01*
X132535395Y-115570000D01*
X132521253Y-115555858D01*
X132700858Y-115376253D01*
X132715000Y-115390395D01*
X132729143Y-115376253D01*
X132908748Y-115555858D01*
X132894605Y-115570000D01*
X132908748Y-115584143D01*
X132729143Y-115763748D01*
X132715000Y-115749605D01*
X131850647Y-116613958D01*
X131920181Y-116831640D01*
X131874914Y-116850344D01*
X131456812Y-117267717D01*
X131230258Y-117813319D01*
X131229743Y-118404089D01*
X131455344Y-118950086D01*
X131872717Y-119368188D01*
X131900557Y-119379748D01*
X131874914Y-119390344D01*
X131456812Y-119807717D01*
X131230258Y-120353319D01*
X131229743Y-120944089D01*
X131455344Y-121490086D01*
X131872717Y-121908188D01*
X131900557Y-121919748D01*
X131874914Y-121930344D01*
X131456812Y-122347717D01*
X131230258Y-122893319D01*
X131229743Y-123484089D01*
X131455344Y-124030086D01*
X131872717Y-124448188D01*
X131900557Y-124459748D01*
X131874914Y-124470344D01*
X131456812Y-124887717D01*
X131230258Y-125433319D01*
X131229743Y-126024089D01*
X131455344Y-126570086D01*
X131872717Y-126988188D01*
X131900557Y-126999748D01*
X131874914Y-127010344D01*
X131456812Y-127427717D01*
X131230258Y-127973319D01*
X131229743Y-128564089D01*
X131455344Y-129110086D01*
X131872717Y-129528188D01*
X131900557Y-129539748D01*
X131874914Y-129550344D01*
X131456812Y-129967717D01*
X131230258Y-130513319D01*
X131229743Y-131104089D01*
X131455344Y-131650086D01*
X131872717Y-132068188D01*
X131900557Y-132079748D01*
X131874914Y-132090344D01*
X131456812Y-132507717D01*
X131230258Y-133053319D01*
X131229743Y-133644089D01*
X131422803Y-134111329D01*
X124549133Y-140984999D01*
X118943988Y-140984999D01*
X118944257Y-140675911D01*
X118886034Y-140535000D01*
X120222766Y-140535000D01*
X120463201Y-140634838D01*
X120835167Y-140635162D01*
X121178943Y-140493117D01*
X121442192Y-140230327D01*
X121584838Y-139886799D01*
X121585162Y-139514833D01*
X121443117Y-139171057D01*
X121180327Y-138907808D01*
X120836799Y-138765162D01*
X120464833Y-138764838D01*
X120222422Y-138865000D01*
X118886307Y-138865000D01*
X118943742Y-138726681D01*
X118944257Y-138135911D01*
X118718656Y-137589914D01*
X118301283Y-137171812D01*
X118273443Y-137160252D01*
X118299086Y-137149656D01*
X118717188Y-136732283D01*
X118943742Y-136186681D01*
X118944257Y-135595911D01*
X118718656Y-135049914D01*
X118301283Y-134631812D01*
X118273443Y-134620252D01*
X118299086Y-134609656D01*
X118717188Y-134192283D01*
X118943742Y-133646681D01*
X118944257Y-133055911D01*
X118718656Y-132509914D01*
X118301283Y-132091812D01*
X118273443Y-132080252D01*
X118299086Y-132069656D01*
X118717188Y-131652283D01*
X118943742Y-131106681D01*
X118944257Y-130515911D01*
X118718656Y-129969914D01*
X118301283Y-129551812D01*
X118273443Y-129540252D01*
X118299086Y-129529656D01*
X118717188Y-129112283D01*
X118791487Y-128933353D01*
X122355000Y-132496866D01*
X122355000Y-136732766D01*
X122255162Y-136973201D01*
X122254838Y-137345167D01*
X122396883Y-137688943D01*
X122659673Y-137952192D01*
X123003201Y-138094838D01*
X123375167Y-138095162D01*
X123718943Y-137953117D01*
X123982192Y-137690327D01*
X124124838Y-137346799D01*
X124125162Y-136974833D01*
X124025000Y-136732422D01*
X124025000Y-132150998D01*
X123961439Y-131831457D01*
X123780434Y-131560564D01*
X118739183Y-126519313D01*
X118943742Y-126026681D01*
X118944257Y-125435911D01*
X118718656Y-124889914D01*
X118301283Y-124471812D01*
X118273443Y-124460252D01*
X118299086Y-124449656D01*
X118717188Y-124032283D01*
X118943742Y-123486681D01*
X118944257Y-122895911D01*
X118941245Y-122888623D01*
X121875434Y-119954434D01*
X121939997Y-119857808D01*
X122056439Y-119683541D01*
X122120000Y-119364000D01*
X122120000Y-116632234D01*
X122219838Y-116391799D01*
X122220162Y-116019833D01*
X122078117Y-115676057D01*
X121815327Y-115412808D01*
X121471799Y-115270162D01*
X121099833Y-115269838D01*
X120756057Y-115411883D01*
X120492808Y-115674673D01*
X120350162Y-116018201D01*
X120349838Y-116390167D01*
X120450000Y-116632578D01*
X120450000Y-119018132D01*
X118940032Y-120528100D01*
X118929315Y-120288542D01*
X118754259Y-119865920D01*
X118502958Y-119785647D01*
X117638605Y-120650000D01*
X117652748Y-120664143D01*
X117473143Y-120843748D01*
X117459000Y-120829605D01*
X116594647Y-121693958D01*
X116664181Y-121911640D01*
X116618914Y-121930344D01*
X116200812Y-122347717D01*
X115974258Y-122893319D01*
X115973743Y-123484089D01*
X116199344Y-124030086D01*
X116616717Y-124448188D01*
X116644557Y-124459748D01*
X116618914Y-124470344D01*
X116200812Y-124887717D01*
X115974258Y-125433319D01*
X115973743Y-126024089D01*
X116178497Y-126519633D01*
X115735009Y-126963121D01*
X115735009Y-120421279D01*
X115962282Y-120421279D01*
X115988685Y-121011458D01*
X116163741Y-121434080D01*
X116415042Y-121514353D01*
X117279395Y-120650000D01*
X116415042Y-119785647D01*
X116163741Y-119865920D01*
X115962282Y-120421279D01*
X115735009Y-120421279D01*
X115735009Y-109604859D01*
X116122795Y-109217073D01*
X116144910Y-109251441D01*
G36*
X132149566Y-90740434D02*
X132420460Y-90921440D01*
X132492560Y-90935781D01*
X132492560Y-91225000D01*
X132536838Y-91460317D01*
X132675910Y-91676441D01*
X132888110Y-91821431D01*
X133140000Y-91872440D01*
X138640000Y-91872440D01*
X138875317Y-91828162D01*
X139091441Y-91689090D01*
X139236431Y-91476890D01*
X139287440Y-91225000D01*
X139287440Y-90985000D01*
X139477560Y-90985000D01*
X139477560Y-91225000D01*
X139521838Y-91460317D01*
X139660910Y-91676441D01*
X139873110Y-91821431D01*
X140125000Y-91872440D01*
X142575045Y-91872440D01*
X142574838Y-92110169D01*
X142644002Y-92277560D01*
X140125000Y-92277560D01*
X139889683Y-92321838D01*
X139673559Y-92460910D01*
X139528569Y-92673110D01*
X139477560Y-92925000D01*
X139477560Y-95075000D01*
X139521838Y-95310317D01*
X139660910Y-95526441D01*
X139873110Y-95671431D01*
X140125000Y-95722440D01*
X141446692Y-95722440D01*
X139949556Y-97219576D01*
X139768551Y-97490469D01*
X139704990Y-97810010D01*
X139704990Y-132109144D01*
X139265000Y-132549134D01*
X139265000Y-118537234D01*
X139364838Y-118296799D01*
X139365162Y-117924833D01*
X139223117Y-117581057D01*
X138960327Y-117317808D01*
X138616799Y-117175162D01*
X138244833Y-117174838D01*
X137901057Y-117316883D01*
X137637808Y-117579673D01*
X137495162Y-117923201D01*
X137494838Y-118295167D01*
X137595000Y-118537578D01*
X137595000Y-132922766D01*
X137537222Y-133061910D01*
X136834131Y-133765001D01*
X136222080Y-133765001D01*
X136316838Y-133536799D01*
X136317162Y-133164833D01*
X136175117Y-132821057D01*
X135912327Y-132557808D01*
X135568799Y-132415162D01*
X135196833Y-132414838D01*
X134954422Y-132515000D01*
X133976757Y-132515000D01*
X133974656Y-132509914D01*
X133557283Y-132091812D01*
X133529443Y-132080252D01*
X133555086Y-132069656D01*
X133973188Y-131652283D01*
X134199742Y-131106681D01*
X134200257Y-130515911D01*
X133974656Y-129969914D01*
X133557283Y-129551812D01*
X133529443Y-129540252D01*
X133555086Y-129529656D01*
X133973188Y-129112283D01*
X134199742Y-128566681D01*
X134200257Y-127975911D01*
X133974656Y-127429914D01*
X133557283Y-127011812D01*
X133529443Y-127000252D01*
X133555086Y-126989656D01*
X133973188Y-126572283D01*
X134199742Y-126026681D01*
X134200257Y-125435911D01*
X133974656Y-124889914D01*
X133557283Y-124471812D01*
X133529443Y-124460252D01*
X133555086Y-124449656D01*
X133973188Y-124032283D01*
X134199742Y-123486681D01*
X134200257Y-122895911D01*
X133974656Y-122349914D01*
X133557283Y-121931812D01*
X133529443Y-121920252D01*
X133555086Y-121909656D01*
X133973188Y-121492283D01*
X134199742Y-120946681D01*
X134200257Y-120355911D01*
X133974656Y-119809914D01*
X133557283Y-119391812D01*
X133529443Y-119380252D01*
X133555086Y-119369656D01*
X133973188Y-118952283D01*
X134190220Y-118429613D01*
X135174940Y-119414333D01*
X135274358Y-119654943D01*
X135537148Y-119918192D01*
X135880676Y-120060838D01*
X136252642Y-120061162D01*
X136596418Y-119919117D01*
X136859667Y-119656327D01*
X137002313Y-119312799D01*
X137002637Y-118940833D01*
X136860592Y-118597057D01*
X136597802Y-118333808D01*
X136355565Y-118233222D01*
X134800001Y-116677658D01*
X134800001Y-114280001D01*
X134736440Y-113960460D01*
X134555435Y-113689567D01*
X134197632Y-113331764D01*
X134199742Y-113326681D01*
X134200257Y-112735911D01*
X133974656Y-112189914D01*
X133557283Y-111771812D01*
X133529443Y-111760252D01*
X133555086Y-111749656D01*
X133973188Y-111332283D01*
X134199742Y-110786681D01*
X134200257Y-110195911D01*
X133974656Y-109649914D01*
X133557283Y-109231812D01*
X133529443Y-109220252D01*
X133555086Y-109209656D01*
X133973188Y-108792283D01*
X134199742Y-108246681D01*
X134200257Y-107655911D01*
X133974656Y-107109914D01*
X133557283Y-106691812D01*
X133011681Y-106465258D01*
X132420911Y-106464743D01*
X132413623Y-106467755D01*
X130765434Y-104819566D01*
X130759213Y-104815409D01*
X130494541Y-104638561D01*
X130175000Y-104575000D01*
X116840000Y-104575000D01*
X116520459Y-104638561D01*
X116255787Y-104815409D01*
X116249566Y-104819566D01*
X113709565Y-107359567D01*
X113528560Y-107630460D01*
X113464999Y-107950001D01*
X113464999Y-121747157D01*
X113339629Y-121747048D01*
X112732799Y-121391869D01*
X112861441Y-121309090D01*
X113006431Y-121096890D01*
X113057440Y-120845000D01*
X113057440Y-119345000D01*
X113013162Y-119109683D01*
X112874090Y-118893559D01*
X112661890Y-118748569D01*
X112648803Y-118745919D01*
X112861441Y-118609090D01*
X113006431Y-118396890D01*
X113057440Y-118145000D01*
X113057440Y-116645000D01*
X113013162Y-116409683D01*
X112874090Y-116193559D01*
X112661890Y-116048569D01*
X112410000Y-115997560D01*
X111110000Y-115997560D01*
X110874683Y-116041838D01*
X110658559Y-116180910D01*
X110513569Y-116393110D01*
X110462560Y-116645000D01*
X110462560Y-117611572D01*
X110153448Y-117920684D01*
X110013117Y-117581057D01*
X109954522Y-117522360D01*
X109871500Y-117104722D01*
X109840018Y-117028691D01*
X109823964Y-116947985D01*
X109778302Y-116879647D01*
X109746857Y-116803706D01*
X109688676Y-116745511D01*
X109642959Y-116677091D01*
X107545868Y-114580000D01*
X107730000Y-114580000D01*
X108049541Y-114516439D01*
X108320434Y-114335434D01*
X111080434Y-111575434D01*
X111242902Y-111332283D01*
X111261439Y-111304541D01*
X111325000Y-110985000D01*
X111325000Y-110051775D01*
X111573201Y-110154838D01*
X111945167Y-110155162D01*
X112288943Y-110013117D01*
X112552192Y-109750327D01*
X112694838Y-109406799D01*
X112695162Y-109034833D01*
X112595000Y-108792422D01*
X112595000Y-106910002D01*
X112531439Y-106590461D01*
X112350434Y-106319568D01*
X110951473Y-104920607D01*
X111202190Y-104670327D01*
X111344836Y-104326799D01*
X111345099Y-104024999D01*
X118761501Y-104024999D01*
X119081042Y-103961438D01*
X119351935Y-103780433D01*
X121240434Y-101891934D01*
X121345294Y-101735000D01*
X121421439Y-101621041D01*
X121451840Y-101468208D01*
X121875567Y-101891935D01*
X122146460Y-102072940D01*
X122466001Y-102136501D01*
X126453999Y-102136501D01*
X126773540Y-102072940D01*
X127044433Y-101891935D01*
X127467530Y-101468838D01*
X127510110Y-101497931D01*
X127762000Y-101548940D01*
X128778000Y-101548940D01*
X129013317Y-101504662D01*
X129229441Y-101365590D01*
X129374431Y-101153390D01*
X129425440Y-100901500D01*
X129425440Y-99885500D01*
X129388279Y-99688007D01*
X129425440Y-99504500D01*
X129425440Y-98724901D01*
X129725167Y-98725162D01*
X130068943Y-98583117D01*
X130332192Y-98320327D01*
X130474838Y-97976799D01*
X130475162Y-97604833D01*
X130375000Y-97362422D01*
X130375000Y-93156045D01*
X130606448Y-92925000D01*
X132492560Y-92925000D01*
X132492560Y-95075000D01*
X132536838Y-95310317D01*
X132675910Y-95526441D01*
X132888110Y-95671431D01*
X133140000Y-95722440D01*
X134101810Y-95722440D01*
X134091057Y-95726883D01*
X133827808Y-95989673D01*
X133685162Y-96333201D01*
X133684838Y-96705167D01*
X133826883Y-97048943D01*
X134089673Y-97312192D01*
X134433201Y-97454838D01*
X134805167Y-97455162D01*
X135148943Y-97313117D01*
X135412192Y-97050327D01*
X135512778Y-96808090D01*
X136480434Y-95840434D01*
X136559275Y-95722440D01*
X138640000Y-95722440D01*
X138875317Y-95678162D01*
X139091441Y-95539090D01*
X139236431Y-95326890D01*
X139287440Y-95075000D01*
X139287440Y-92925000D01*
X139243162Y-92689683D01*
X139104090Y-92473559D01*
X138891890Y-92328569D01*
X138640000Y-92277560D01*
X133140000Y-92277560D01*
X132904683Y-92321838D01*
X132688559Y-92460910D01*
X132543569Y-92673110D01*
X132492560Y-92925000D01*
X130606448Y-92925000D01*
X130688043Y-92843548D01*
X130894764Y-92345709D01*
X130895235Y-91806656D01*
X130689383Y-91308457D01*
X130308548Y-90926957D01*
X129810709Y-90720236D01*
X129271656Y-90719765D01*
X128773457Y-90925617D01*
X128391957Y-91306452D01*
X128185236Y-91804291D01*
X128184765Y-92343344D01*
X128390617Y-92841543D01*
X128705000Y-93156475D01*
X128705000Y-96958225D01*
X128456799Y-96855162D01*
X128084833Y-96854838D01*
X127842422Y-96955000D01*
X124758500Y-96955000D01*
X124438960Y-97018560D01*
X124168066Y-97199566D01*
X124019214Y-97348418D01*
X123983117Y-97261057D01*
X123720327Y-96997808D01*
X123478090Y-96897222D01*
X122755000Y-96174132D01*
X122755000Y-95564774D01*
X126229831Y-95564774D01*
X126294131Y-95802611D01*
X126802342Y-95982333D01*
X127340644Y-95953892D01*
X127705869Y-95802611D01*
X127770169Y-95564774D01*
X127000000Y-94794605D01*
X126229831Y-95564774D01*
X122755000Y-95564774D01*
X122755000Y-94417342D01*
X125632667Y-94417342D01*
X125661108Y-94955644D01*
X125812389Y-95320869D01*
X126050226Y-95385169D01*
X126820395Y-94615000D01*
X127179605Y-94615000D01*
X127949774Y-95385169D01*
X128187611Y-95320869D01*
X128367333Y-94812658D01*
X128338892Y-94274356D01*
X128187611Y-93909131D01*
X127949774Y-93844831D01*
X127179605Y-94615000D01*
X126820395Y-94615000D01*
X126050226Y-93844831D01*
X125812389Y-93909131D01*
X125632667Y-94417342D01*
X122755000Y-94417342D01*
X122755000Y-93665226D01*
X126229831Y-93665226D01*
X127000000Y-94435395D01*
X127770169Y-93665226D01*
X127705869Y-93427389D01*
X127197658Y-93247667D01*
X126659356Y-93276108D01*
X126294131Y-93427389D01*
X126229831Y-93665226D01*
X122755000Y-93665226D01*
X122755000Y-93156045D01*
X123068043Y-92843548D01*
X123274764Y-92345709D01*
X123275235Y-91806656D01*
X123069383Y-91308457D01*
X122851306Y-91089999D01*
X126280001Y-91089999D01*
X126599542Y-91026438D01*
X126803991Y-90889829D01*
X127268344Y-90890235D01*
X127766543Y-90684383D01*
X128148043Y-90303548D01*
X128354764Y-89805709D01*
X128355235Y-89266656D01*
X128265714Y-89049999D01*
X130459131Y-89049999D01*
X132149566Y-90740434D01*
X132149566Y-90740434D01*
G37*
X132149566Y-90740434D02*
X132420460Y-90921440D01*
X132492560Y-90935781D01*
X132492560Y-91225000D01*
X132536838Y-91460317D01*
X132675910Y-91676441D01*
X132888110Y-91821431D01*
X133140000Y-91872440D01*
X138640000Y-91872440D01*
X138875317Y-91828162D01*
X139091441Y-91689090D01*
X139236431Y-91476890D01*
X139287440Y-91225000D01*
X139287440Y-90985000D01*
X139477560Y-90985000D01*
X139477560Y-91225000D01*
X139521838Y-91460317D01*
X139660910Y-91676441D01*
X139873110Y-91821431D01*
X140125000Y-91872440D01*
X142575045Y-91872440D01*
X142574838Y-92110169D01*
X142644002Y-92277560D01*
X140125000Y-92277560D01*
X139889683Y-92321838D01*
X139673559Y-92460910D01*
X139528569Y-92673110D01*
X139477560Y-92925000D01*
X139477560Y-95075000D01*
X139521838Y-95310317D01*
X139660910Y-95526441D01*
X139873110Y-95671431D01*
X140125000Y-95722440D01*
X141446692Y-95722440D01*
X139949556Y-97219576D01*
X139768551Y-97490469D01*
X139704990Y-97810010D01*
X139704990Y-132109144D01*
X139265000Y-132549134D01*
X139265000Y-118537234D01*
X139364838Y-118296799D01*
X139365162Y-117924833D01*
X139223117Y-117581057D01*
X138960327Y-117317808D01*
X138616799Y-117175162D01*
X138244833Y-117174838D01*
X137901057Y-117316883D01*
X137637808Y-117579673D01*
X137495162Y-117923201D01*
X137494838Y-118295167D01*
X137595000Y-118537578D01*
X137595000Y-132922766D01*
X137537222Y-133061910D01*
X136834131Y-133765001D01*
X136222080Y-133765001D01*
X136316838Y-133536799D01*
X136317162Y-133164833D01*
X136175117Y-132821057D01*
X135912327Y-132557808D01*
X135568799Y-132415162D01*
X135196833Y-132414838D01*
X134954422Y-132515000D01*
X133976757Y-132515000D01*
X133974656Y-132509914D01*
X133557283Y-132091812D01*
X133529443Y-132080252D01*
X133555086Y-132069656D01*
X133973188Y-131652283D01*
X134199742Y-131106681D01*
X134200257Y-130515911D01*
X133974656Y-129969914D01*
X133557283Y-129551812D01*
X133529443Y-129540252D01*
X133555086Y-129529656D01*
X133973188Y-129112283D01*
X134199742Y-128566681D01*
X134200257Y-127975911D01*
X133974656Y-127429914D01*
X133557283Y-127011812D01*
X133529443Y-127000252D01*
X133555086Y-126989656D01*
X133973188Y-126572283D01*
X134199742Y-126026681D01*
X134200257Y-125435911D01*
X133974656Y-124889914D01*
X133557283Y-124471812D01*
X133529443Y-124460252D01*
X133555086Y-124449656D01*
X133973188Y-124032283D01*
X134199742Y-123486681D01*
X134200257Y-122895911D01*
X133974656Y-122349914D01*
X133557283Y-121931812D01*
X133529443Y-121920252D01*
X133555086Y-121909656D01*
X133973188Y-121492283D01*
X134199742Y-120946681D01*
X134200257Y-120355911D01*
X133974656Y-119809914D01*
X133557283Y-119391812D01*
X133529443Y-119380252D01*
X133555086Y-119369656D01*
X133973188Y-118952283D01*
X134190220Y-118429613D01*
X135174940Y-119414333D01*
X135274358Y-119654943D01*
X135537148Y-119918192D01*
X135880676Y-120060838D01*
X136252642Y-120061162D01*
X136596418Y-119919117D01*
X136859667Y-119656327D01*
X137002313Y-119312799D01*
X137002637Y-118940833D01*
X136860592Y-118597057D01*
X136597802Y-118333808D01*
X136355565Y-118233222D01*
X134800001Y-116677658D01*
X134800001Y-114280001D01*
X134736440Y-113960460D01*
X134555435Y-113689567D01*
X134197632Y-113331764D01*
X134199742Y-113326681D01*
X134200257Y-112735911D01*
X133974656Y-112189914D01*
X133557283Y-111771812D01*
X133529443Y-111760252D01*
X133555086Y-111749656D01*
X133973188Y-111332283D01*
X134199742Y-110786681D01*
X134200257Y-110195911D01*
X133974656Y-109649914D01*
X133557283Y-109231812D01*
X133529443Y-109220252D01*
X133555086Y-109209656D01*
X133973188Y-108792283D01*
X134199742Y-108246681D01*
X134200257Y-107655911D01*
X133974656Y-107109914D01*
X133557283Y-106691812D01*
X133011681Y-106465258D01*
X132420911Y-106464743D01*
X132413623Y-106467755D01*
X130765434Y-104819566D01*
X130759213Y-104815409D01*
X130494541Y-104638561D01*
X130175000Y-104575000D01*
X116840000Y-104575000D01*
X116520459Y-104638561D01*
X116255787Y-104815409D01*
X116249566Y-104819566D01*
X113709565Y-107359567D01*
X113528560Y-107630460D01*
X113464999Y-107950001D01*
X113464999Y-121747157D01*
X113339629Y-121747048D01*
X112732799Y-121391869D01*
X112861441Y-121309090D01*
X113006431Y-121096890D01*
X113057440Y-120845000D01*
X113057440Y-119345000D01*
X113013162Y-119109683D01*
X112874090Y-118893559D01*
X112661890Y-118748569D01*
X112648803Y-118745919D01*
X112861441Y-118609090D01*
X113006431Y-118396890D01*
X113057440Y-118145000D01*
X113057440Y-116645000D01*
X113013162Y-116409683D01*
X112874090Y-116193559D01*
X112661890Y-116048569D01*
X112410000Y-115997560D01*
X111110000Y-115997560D01*
X110874683Y-116041838D01*
X110658559Y-116180910D01*
X110513569Y-116393110D01*
X110462560Y-116645000D01*
X110462560Y-117611572D01*
X110153448Y-117920684D01*
X110013117Y-117581057D01*
X109954522Y-117522360D01*
X109871500Y-117104722D01*
X109840018Y-117028691D01*
X109823964Y-116947985D01*
X109778302Y-116879647D01*
X109746857Y-116803706D01*
X109688676Y-116745511D01*
X109642959Y-116677091D01*
X107545868Y-114580000D01*
X107730000Y-114580000D01*
X108049541Y-114516439D01*
X108320434Y-114335434D01*
X111080434Y-111575434D01*
X111242902Y-111332283D01*
X111261439Y-111304541D01*
X111325000Y-110985000D01*
X111325000Y-110051775D01*
X111573201Y-110154838D01*
X111945167Y-110155162D01*
X112288943Y-110013117D01*
X112552192Y-109750327D01*
X112694838Y-109406799D01*
X112695162Y-109034833D01*
X112595000Y-108792422D01*
X112595000Y-106910002D01*
X112531439Y-106590461D01*
X112350434Y-106319568D01*
X110951473Y-104920607D01*
X111202190Y-104670327D01*
X111344836Y-104326799D01*
X111345099Y-104024999D01*
X118761501Y-104024999D01*
X119081042Y-103961438D01*
X119351935Y-103780433D01*
X121240434Y-101891934D01*
X121345294Y-101735000D01*
X121421439Y-101621041D01*
X121451840Y-101468208D01*
X121875567Y-101891935D01*
X122146460Y-102072940D01*
X122466001Y-102136501D01*
X126453999Y-102136501D01*
X126773540Y-102072940D01*
X127044433Y-101891935D01*
X127467530Y-101468838D01*
X127510110Y-101497931D01*
X127762000Y-101548940D01*
X128778000Y-101548940D01*
X129013317Y-101504662D01*
X129229441Y-101365590D01*
X129374431Y-101153390D01*
X129425440Y-100901500D01*
X129425440Y-99885500D01*
X129388279Y-99688007D01*
X129425440Y-99504500D01*
X129425440Y-98724901D01*
X129725167Y-98725162D01*
X130068943Y-98583117D01*
X130332192Y-98320327D01*
X130474838Y-97976799D01*
X130475162Y-97604833D01*
X130375000Y-97362422D01*
X130375000Y-93156045D01*
X130606448Y-92925000D01*
X132492560Y-92925000D01*
X132492560Y-95075000D01*
X132536838Y-95310317D01*
X132675910Y-95526441D01*
X132888110Y-95671431D01*
X133140000Y-95722440D01*
X134101810Y-95722440D01*
X134091057Y-95726883D01*
X133827808Y-95989673D01*
X133685162Y-96333201D01*
X133684838Y-96705167D01*
X133826883Y-97048943D01*
X134089673Y-97312192D01*
X134433201Y-97454838D01*
X134805167Y-97455162D01*
X135148943Y-97313117D01*
X135412192Y-97050327D01*
X135512778Y-96808090D01*
X136480434Y-95840434D01*
X136559275Y-95722440D01*
X138640000Y-95722440D01*
X138875317Y-95678162D01*
X139091441Y-95539090D01*
X139236431Y-95326890D01*
X139287440Y-95075000D01*
X139287440Y-92925000D01*
X139243162Y-92689683D01*
X139104090Y-92473559D01*
X138891890Y-92328569D01*
X138640000Y-92277560D01*
X133140000Y-92277560D01*
X132904683Y-92321838D01*
X132688559Y-92460910D01*
X132543569Y-92673110D01*
X132492560Y-92925000D01*
X130606448Y-92925000D01*
X130688043Y-92843548D01*
X130894764Y-92345709D01*
X130895235Y-91806656D01*
X130689383Y-91308457D01*
X130308548Y-90926957D01*
X129810709Y-90720236D01*
X129271656Y-90719765D01*
X128773457Y-90925617D01*
X128391957Y-91306452D01*
X128185236Y-91804291D01*
X128184765Y-92343344D01*
X128390617Y-92841543D01*
X128705000Y-93156475D01*
X128705000Y-96958225D01*
X128456799Y-96855162D01*
X128084833Y-96854838D01*
X127842422Y-96955000D01*
X124758500Y-96955000D01*
X124438960Y-97018560D01*
X124168066Y-97199566D01*
X124019214Y-97348418D01*
X123983117Y-97261057D01*
X123720327Y-96997808D01*
X123478090Y-96897222D01*
X122755000Y-96174132D01*
X122755000Y-95564774D01*
X126229831Y-95564774D01*
X126294131Y-95802611D01*
X126802342Y-95982333D01*
X127340644Y-95953892D01*
X127705869Y-95802611D01*
X127770169Y-95564774D01*
X127000000Y-94794605D01*
X126229831Y-95564774D01*
X122755000Y-95564774D01*
X122755000Y-94417342D01*
X125632667Y-94417342D01*
X125661108Y-94955644D01*
X125812389Y-95320869D01*
X126050226Y-95385169D01*
X126820395Y-94615000D01*
X127179605Y-94615000D01*
X127949774Y-95385169D01*
X128187611Y-95320869D01*
X128367333Y-94812658D01*
X128338892Y-94274356D01*
X128187611Y-93909131D01*
X127949774Y-93844831D01*
X127179605Y-94615000D01*
X126820395Y-94615000D01*
X126050226Y-93844831D01*
X125812389Y-93909131D01*
X125632667Y-94417342D01*
X122755000Y-94417342D01*
X122755000Y-93665226D01*
X126229831Y-93665226D01*
X127000000Y-94435395D01*
X127770169Y-93665226D01*
X127705869Y-93427389D01*
X127197658Y-93247667D01*
X126659356Y-93276108D01*
X126294131Y-93427389D01*
X126229831Y-93665226D01*
X122755000Y-93665226D01*
X122755000Y-93156045D01*
X123068043Y-92843548D01*
X123274764Y-92345709D01*
X123275235Y-91806656D01*
X123069383Y-91308457D01*
X122851306Y-91089999D01*
X126280001Y-91089999D01*
X126599542Y-91026438D01*
X126803991Y-90889829D01*
X127268344Y-90890235D01*
X127766543Y-90684383D01*
X128148043Y-90303548D01*
X128354764Y-89805709D01*
X128355235Y-89266656D01*
X128265714Y-89049999D01*
X130459131Y-89049999D01*
X132149566Y-90740434D01*
G36*
X146610000Y-113913130D02*
X145136436Y-112439566D01*
X145083676Y-112404313D01*
X144865543Y-112258561D01*
X144546002Y-112195000D01*
X143948594Y-112195000D01*
X143734029Y-111873880D01*
X143543812Y-111746781D01*
X143785922Y-111556317D01*
X144099144Y-110998355D01*
X144130124Y-110870434D01*
X144010777Y-110617000D01*
X142367000Y-110617000D01*
X142367000Y-110637000D01*
X142113000Y-110637000D01*
X142113000Y-110617000D01*
X142093000Y-110617000D01*
X142093000Y-110363000D01*
X142113000Y-110363000D01*
X142113000Y-108855000D01*
X142367000Y-108855000D01*
X142367000Y-110363000D01*
X144010777Y-110363000D01*
X144130124Y-110109566D01*
X144099144Y-109981645D01*
X143785922Y-109423683D01*
X143283020Y-109028058D01*
X142667000Y-108855000D01*
X142367000Y-108855000D01*
X142113000Y-108855000D01*
X141813000Y-108855000D01*
X141374990Y-108978050D01*
X141374990Y-106752746D01*
X141380763Y-106768704D01*
X141981429Y-106991049D01*
X142621461Y-106966605D01*
X143099237Y-106768704D01*
X143194837Y-106504442D01*
X142240000Y-105549605D01*
X142225858Y-105563748D01*
X142046253Y-105384143D01*
X142060395Y-105370000D01*
X142419605Y-105370000D01*
X143374442Y-106324837D01*
X143638704Y-106229237D01*
X143861049Y-105628571D01*
X143836605Y-104988539D01*
X143638704Y-104510763D01*
X143374442Y-104415163D01*
X142419605Y-105370000D01*
X142060395Y-105370000D01*
X142046253Y-105355858D01*
X142225858Y-105176253D01*
X142240000Y-105190395D01*
X143194837Y-104235558D01*
X143099237Y-103971296D01*
X142498571Y-103748951D01*
X141858539Y-103773395D01*
X141380763Y-103971296D01*
X141374990Y-103987254D01*
X141374990Y-101754099D01*
X141918346Y-101979720D01*
X142558844Y-101980279D01*
X143150800Y-101735688D01*
X143604096Y-101283183D01*
X143849720Y-100691654D01*
X143850279Y-100051156D01*
X143817951Y-99972917D01*
X146610000Y-97180868D01*
X146610000Y-113913130D01*
X146610000Y-113913130D01*
G37*
X146610000Y-113913130D02*
X145136436Y-112439566D01*
X145083676Y-112404313D01*
X144865543Y-112258561D01*
X144546002Y-112195000D01*
X143948594Y-112195000D01*
X143734029Y-111873880D01*
X143543812Y-111746781D01*
X143785922Y-111556317D01*
X144099144Y-110998355D01*
X144130124Y-110870434D01*
X144010777Y-110617000D01*
X142367000Y-110617000D01*
X142367000Y-110637000D01*
X142113000Y-110637000D01*
X142113000Y-110617000D01*
X142093000Y-110617000D01*
X142093000Y-110363000D01*
X142113000Y-110363000D01*
X142113000Y-108855000D01*
X142367000Y-108855000D01*
X142367000Y-110363000D01*
X144010777Y-110363000D01*
X144130124Y-110109566D01*
X144099144Y-109981645D01*
X143785922Y-109423683D01*
X143283020Y-109028058D01*
X142667000Y-108855000D01*
X142367000Y-108855000D01*
X142113000Y-108855000D01*
X141813000Y-108855000D01*
X141374990Y-108978050D01*
X141374990Y-106752746D01*
X141380763Y-106768704D01*
X141981429Y-106991049D01*
X142621461Y-106966605D01*
X143099237Y-106768704D01*
X143194837Y-106504442D01*
X142240000Y-105549605D01*
X142225858Y-105563748D01*
X142046253Y-105384143D01*
X142060395Y-105370000D01*
X142419605Y-105370000D01*
X143374442Y-106324837D01*
X143638704Y-106229237D01*
X143861049Y-105628571D01*
X143836605Y-104988539D01*
X143638704Y-104510763D01*
X143374442Y-104415163D01*
X142419605Y-105370000D01*
X142060395Y-105370000D01*
X142046253Y-105355858D01*
X142225858Y-105176253D01*
X142240000Y-105190395D01*
X143194837Y-104235558D01*
X143099237Y-103971296D01*
X142498571Y-103748951D01*
X141858539Y-103773395D01*
X141380763Y-103971296D01*
X141374990Y-103987254D01*
X141374990Y-101754099D01*
X141918346Y-101979720D01*
X142558844Y-101980279D01*
X143150800Y-101735688D01*
X143604096Y-101283183D01*
X143849720Y-100691654D01*
X143850279Y-100051156D01*
X143817951Y-99972917D01*
X146610000Y-97180868D01*
X146610000Y-113913130D01*
M02*
