G04 #@! TF.GenerationSoftware,KiCad,Pcbnew,(5.0.0-3-g5ebb6b6)*
G04 #@! TF.CreationDate,2018-09-23T14:54:54+01:00*
G04 #@! TF.ProjectId,flow-module,666C6F772D6D6F64756C652E6B696361,rev?*
G04 #@! TF.SameCoordinates,Original*
G04 #@! TF.FileFunction,Copper,L1,Top,Signal*
G04 #@! TF.FilePolarity,Positive*
%FSLAX46Y46*%
G04 Gerber Fmt 4.6, Leading zero omitted, Abs format (unit mm)*
G04 Created by KiCad (PCBNEW (5.0.0-3-g5ebb6b6)) date 2018 September 23, Sunday 14:54:54*
%MOMM*%
%LPD*%
G01*
G04 APERTURE LIST*
G04 #@! TA.AperFunction,SMDPad,CuDef*
%ADD10R,1.500000X1.300000*%
G04 #@! TD*
G04 #@! TA.AperFunction,ComponentPad*
%ADD11C,1.950000*%
G04 #@! TD*
G04 #@! TA.AperFunction,SMDPad,CuDef*
%ADD12R,1.250000X1.500000*%
G04 #@! TD*
G04 #@! TA.AperFunction,SMDPad,CuDef*
%ADD13R,1.500000X1.250000*%
G04 #@! TD*
G04 #@! TA.AperFunction,ComponentPad*
%ADD14R,1.800000X1.800000*%
G04 #@! TD*
G04 #@! TA.AperFunction,ComponentPad*
%ADD15O,1.800000X1.800000*%
G04 #@! TD*
G04 #@! TA.AperFunction,ComponentPad*
%ADD16R,2.600000X2.000000*%
G04 #@! TD*
G04 #@! TA.AperFunction,ComponentPad*
%ADD17O,2.600000X2.000000*%
G04 #@! TD*
G04 #@! TA.AperFunction,Conductor*
%ADD18C,0.500000*%
G04 #@! TD*
G04 #@! TA.AperFunction,Conductor*
%ADD19C,0.254000*%
G04 #@! TD*
G04 APERTURE END LIST*
D10*
G04 #@! TO.P,R1,1*
G04 #@! TO.N,Net-(D5-Pad1)*
X93900000Y-54610000D03*
G04 #@! TO.P,R1,2*
G04 #@! TO.N,Earth*
X96600000Y-54610000D03*
G04 #@! TD*
D11*
G04 #@! TO.P,P1,2*
G04 #@! TO.N,Earth*
X94020000Y-29210000D03*
G04 #@! TO.P,P1,1*
G04 #@! TO.N,VCC*
X99020000Y-29210000D03*
G04 #@! TD*
D10*
G04 #@! TO.P,D5,1*
G04 #@! TO.N,Net-(D5-Pad1)*
X88980000Y-54610000D03*
G04 #@! TO.P,D5,2*
G04 #@! TO.N,VCC*
X86280000Y-54610000D03*
G04 #@! TD*
G04 #@! TO.P,D6,1*
G04 #@! TO.N,Net-(D6-Pad1)*
X88900000Y-50800000D03*
G04 #@! TO.P,D6,2*
G04 #@! TO.N,VAA*
X86200000Y-50800000D03*
G04 #@! TD*
G04 #@! TO.P,R2,1*
G04 #@! TO.N,Net-(D6-Pad1)*
X93900000Y-50800000D03*
G04 #@! TO.P,R2,2*
G04 #@! TO.N,Earth*
X96600000Y-50800000D03*
G04 #@! TD*
D12*
G04 #@! TO.P,C1,1*
G04 #@! TO.N,Output2*
X82550000Y-36850000D03*
G04 #@! TO.P,C1,2*
G04 #@! TO.N,Net-(C1-Pad2)*
X82550000Y-39350000D03*
G04 #@! TD*
D13*
G04 #@! TO.P,C2,1*
G04 #@! TO.N,Net-(C2-Pad1)*
X101640000Y-50800000D03*
G04 #@! TO.P,C2,2*
G04 #@! TO.N,Output1*
X104140000Y-50800000D03*
G04 #@! TD*
D14*
G04 #@! TO.P,H2,1*
G04 #@! TO.N,Net-(C2-Pad1)*
X104570000Y-40640000D03*
D15*
G04 #@! TO.P,H2,2*
G04 #@! TO.N,Output1*
X102870000Y-35560000D03*
G04 #@! TO.P,H2,3*
G04 #@! TO.N,Dir*
X101170000Y-40640000D03*
G04 #@! TO.P,H2,4*
G04 #@! TO.N,Brake*
X99470000Y-35560000D03*
G04 #@! TO.P,H2,5*
G04 #@! TO.N,PWM*
X97770000Y-40640000D03*
G04 #@! TO.P,H2,6*
G04 #@! TO.N,VCC*
X96070000Y-35560000D03*
G04 #@! TO.P,H2,7*
G04 #@! TO.N,Earth*
X94370000Y-40640000D03*
G04 #@! TO.P,H2,8*
X92670000Y-35560000D03*
G04 #@! TO.P,H2,9*
G04 #@! TO.N,Flag*
X90970000Y-40640000D03*
G04 #@! TO.P,H2,10*
G04 #@! TO.N,Output2*
X89270000Y-35560000D03*
G04 #@! TO.P,H2,11*
G04 #@! TO.N,Net-(C1-Pad2)*
X87570000Y-40640000D03*
G04 #@! TD*
D16*
G04 #@! TO.P,P3,1*
G04 #@! TO.N,VAA*
X74930000Y-52070000D03*
D17*
G04 #@! TO.P,P3,2*
G04 #@! TO.N,Dir*
X74930000Y-49530000D03*
G04 #@! TO.P,P3,3*
G04 #@! TO.N,Brake*
X74930000Y-46990000D03*
G04 #@! TO.P,P3,4*
G04 #@! TO.N,PWM*
X74930000Y-44450000D03*
G04 #@! TO.P,P3,5*
G04 #@! TO.N,Flag*
X74930000Y-41910000D03*
G04 #@! TO.P,P3,6*
G04 #@! TO.N,Earth*
X74930000Y-39370000D03*
G04 #@! TD*
D11*
G04 #@! TO.P,P5,2*
G04 #@! TO.N,Output1*
X74930000Y-27980000D03*
G04 #@! TO.P,P5,1*
G04 #@! TO.N,Output2*
X74930000Y-32980000D03*
G04 #@! TD*
D18*
G04 #@! TO.N,Output2*
X82550000Y-36850000D02*
X87980000Y-36850000D01*
X87980000Y-36850000D02*
X89270000Y-35560000D01*
X76200000Y-34290000D02*
X78760000Y-36850000D01*
X78760000Y-36850000D02*
X82550000Y-36850000D01*
X76200000Y-34250000D02*
X76200000Y-34290000D01*
X74930000Y-32980000D02*
X76200000Y-34250000D01*
G04 #@! TO.N,Net-(C1-Pad2)*
X82550000Y-39350000D02*
X86280000Y-39350000D01*
X86280000Y-39350000D02*
X87570000Y-40640000D01*
G04 #@! TO.N,Net-(C2-Pad1)*
X101765000Y-50800000D02*
X101640000Y-50800000D01*
X104570000Y-42040000D02*
X101600000Y-45010000D01*
X104570000Y-40640000D02*
X104570000Y-42040000D01*
X101640000Y-45050000D02*
X101640000Y-50800000D01*
X101600000Y-45010000D02*
X101640000Y-45050000D01*
G04 #@! TO.N,Output1*
X102870000Y-35560000D02*
X106680000Y-39370000D01*
X104140000Y-49675000D02*
X106680000Y-47135000D01*
X104140000Y-50800000D02*
X104140000Y-49675000D01*
X106680000Y-47135000D02*
X106680000Y-39370000D01*
G04 #@! TO.N,VCC*
X86280000Y-54610000D02*
X86380000Y-54610000D01*
X86380000Y-54610000D02*
X87480001Y-55710001D01*
X87480001Y-55710001D02*
X97710001Y-55710001D01*
X97710001Y-55710001D02*
X99120001Y-54300001D01*
X99120001Y-54300001D02*
X99120001Y-38610001D01*
X99120001Y-38610001D02*
X96969999Y-36459999D01*
X96969999Y-36459999D02*
X96070000Y-35560000D01*
X96070000Y-32160000D02*
X99020000Y-29210000D01*
X96070000Y-35560000D02*
X96070000Y-32160000D01*
G04 #@! TO.N,Earth*
X96600000Y-50800000D02*
X96600000Y-44450000D01*
X74930000Y-39370000D02*
X75230000Y-39370000D01*
X96600000Y-44450000D02*
X96600000Y-42870000D01*
X75230000Y-39370000D02*
X80310000Y-44450000D01*
X80310000Y-44450000D02*
X96600000Y-44450000D01*
X92670000Y-35560000D02*
X92670000Y-38940000D01*
X92670000Y-38940000D02*
X94370000Y-40640000D01*
X96600000Y-54610000D02*
X96600000Y-50800000D01*
X96600000Y-42870000D02*
X94370000Y-40640000D01*
X73960000Y-39370000D02*
X73660000Y-39370000D01*
X92670000Y-30560000D02*
X94020000Y-29210000D01*
X92670000Y-35560000D02*
X92670000Y-30560000D01*
G04 #@! TO.N,Net-(D5-Pad1)*
X88980000Y-54610000D02*
X93900000Y-54610000D01*
G04 #@! TO.N,Net-(D6-Pad1)*
X88900000Y-50800000D02*
X89000000Y-50800000D01*
X89000000Y-50800000D02*
X93900000Y-50800000D01*
G04 #@! TO.N,VAA*
X74930000Y-52070000D02*
X86080000Y-52070000D01*
X86080000Y-52070000D02*
X86200000Y-51950000D01*
X86200000Y-51950000D02*
X86200000Y-50800000D01*
X86200000Y-50800000D02*
X85390000Y-50800000D01*
G04 #@! TD*
D19*
G04 #@! TO.N,Earth*
G36*
X108510001Y-56440000D02*
X98210438Y-56440000D01*
X98348050Y-56348050D01*
X98397426Y-56274154D01*
X99684157Y-54987424D01*
X99758050Y-54938050D01*
X99833588Y-54825001D01*
X99953652Y-54645312D01*
X99953653Y-54645311D01*
X100005001Y-54387166D01*
X100005001Y-54387162D01*
X100022338Y-54300002D01*
X100005001Y-54212842D01*
X100005001Y-50175000D01*
X100242560Y-50175000D01*
X100242560Y-51425000D01*
X100291843Y-51672765D01*
X100432191Y-51882809D01*
X100642235Y-52023157D01*
X100890000Y-52072440D01*
X102390000Y-52072440D01*
X102637765Y-52023157D01*
X102847809Y-51882809D01*
X102890000Y-51819666D01*
X102932191Y-51882809D01*
X103142235Y-52023157D01*
X103390000Y-52072440D01*
X104890000Y-52072440D01*
X105137765Y-52023157D01*
X105347809Y-51882809D01*
X105488157Y-51672765D01*
X105537440Y-51425000D01*
X105537440Y-50175000D01*
X105488157Y-49927235D01*
X105348441Y-49718137D01*
X107244156Y-47822423D01*
X107318049Y-47773049D01*
X107513652Y-47480310D01*
X107565000Y-47222165D01*
X107565000Y-47222161D01*
X107582337Y-47135001D01*
X107565000Y-47047841D01*
X107565000Y-39457161D01*
X107582337Y-39370000D01*
X107565000Y-39282839D01*
X107565000Y-39282835D01*
X107513652Y-39024690D01*
X107318049Y-38731951D01*
X107244156Y-38682577D01*
X104383060Y-35821482D01*
X104435072Y-35560000D01*
X104315938Y-34961073D01*
X103976673Y-34453327D01*
X103468927Y-34114062D01*
X103021182Y-34025000D01*
X102718818Y-34025000D01*
X102271073Y-34114062D01*
X101763327Y-34453327D01*
X101424062Y-34961073D01*
X101304928Y-35560000D01*
X101424062Y-36158927D01*
X101763327Y-36666673D01*
X102271073Y-37005938D01*
X102718818Y-37095000D01*
X103021182Y-37095000D01*
X103131482Y-37073060D01*
X105150981Y-39092560D01*
X103670000Y-39092560D01*
X103422235Y-39141843D01*
X103212191Y-39282191D01*
X103071843Y-39492235D01*
X103022560Y-39740000D01*
X103022560Y-41540000D01*
X103071843Y-41787765D01*
X103212191Y-41997809D01*
X103301163Y-42057258D01*
X101035846Y-44322576D01*
X100961951Y-44371951D01*
X100912576Y-44445846D01*
X100766348Y-44664691D01*
X100697663Y-45010000D01*
X100755000Y-45298258D01*
X100755001Y-49554413D01*
X100642235Y-49576843D01*
X100432191Y-49717191D01*
X100291843Y-49927235D01*
X100242560Y-50175000D01*
X100005001Y-50175000D01*
X100005001Y-41659382D01*
X100063327Y-41746673D01*
X100571073Y-42085938D01*
X101018818Y-42175000D01*
X101321182Y-42175000D01*
X101768927Y-42085938D01*
X102276673Y-41746673D01*
X102615938Y-41238927D01*
X102735072Y-40640000D01*
X102615938Y-40041073D01*
X102276673Y-39533327D01*
X101768927Y-39194062D01*
X101321182Y-39105000D01*
X101018818Y-39105000D01*
X100571073Y-39194062D01*
X100063327Y-39533327D01*
X100005001Y-39620618D01*
X100005001Y-38697162D01*
X100022338Y-38610001D01*
X100005001Y-38522840D01*
X100005001Y-38522836D01*
X99953653Y-38264691D01*
X99758050Y-37971952D01*
X99684157Y-37922578D01*
X98558988Y-36797409D01*
X98871073Y-37005938D01*
X99318818Y-37095000D01*
X99621182Y-37095000D01*
X100068927Y-37005938D01*
X100576673Y-36666673D01*
X100915938Y-36158927D01*
X101035072Y-35560000D01*
X100915938Y-34961073D01*
X100576673Y-34453327D01*
X100068927Y-34114062D01*
X99621182Y-34025000D01*
X99318818Y-34025000D01*
X98871073Y-34114062D01*
X98363327Y-34453327D01*
X98024062Y-34961073D01*
X97904928Y-35560000D01*
X98024062Y-36158927D01*
X98232591Y-36471013D01*
X97657425Y-35895847D01*
X97657423Y-35895844D01*
X97583060Y-35821481D01*
X97635072Y-35560000D01*
X97515938Y-34961073D01*
X97176673Y-34453327D01*
X96955000Y-34305210D01*
X96955000Y-32526578D01*
X98672759Y-30808820D01*
X98699751Y-30820000D01*
X99340249Y-30820000D01*
X99931992Y-30574892D01*
X100384892Y-30121992D01*
X100630000Y-29530249D01*
X100630000Y-28889751D01*
X100384892Y-28298008D01*
X99931992Y-27845108D01*
X99340249Y-27600000D01*
X98699751Y-27600000D01*
X98108008Y-27845108D01*
X97655108Y-28298008D01*
X97410000Y-28889751D01*
X97410000Y-29530249D01*
X97421180Y-29557241D01*
X95505845Y-31472577D01*
X95431952Y-31521951D01*
X95382578Y-31595844D01*
X95382576Y-31595846D01*
X95236348Y-31814691D01*
X95167663Y-32160000D01*
X95185001Y-32247165D01*
X95185000Y-34305210D01*
X94963327Y-34453327D01*
X94624062Y-34961073D01*
X94504928Y-35560000D01*
X94624062Y-36158927D01*
X94963327Y-36666673D01*
X95471073Y-37005938D01*
X95918818Y-37095000D01*
X96221182Y-37095000D01*
X96331481Y-37073060D01*
X96405844Y-37147423D01*
X96405847Y-37147425D01*
X98235002Y-38976581D01*
X98235002Y-39167423D01*
X97921182Y-39105000D01*
X97618818Y-39105000D01*
X97171073Y-39194062D01*
X96663327Y-39533327D01*
X96324062Y-40041073D01*
X96204928Y-40640000D01*
X96324062Y-41238927D01*
X96663327Y-41746673D01*
X97171073Y-42085938D01*
X97618818Y-42175000D01*
X97921182Y-42175000D01*
X98235002Y-42112577D01*
X98235001Y-53933422D01*
X97985000Y-54183423D01*
X97985000Y-53833690D01*
X97888327Y-53600301D01*
X97709698Y-53421673D01*
X97476309Y-53325000D01*
X96885750Y-53325000D01*
X96727000Y-53483750D01*
X96727000Y-54483000D01*
X96747000Y-54483000D01*
X96747000Y-54737000D01*
X96727000Y-54737000D01*
X96727000Y-54757000D01*
X96473000Y-54757000D01*
X96473000Y-54737000D01*
X96453000Y-54737000D01*
X96453000Y-54483000D01*
X96473000Y-54483000D01*
X96473000Y-53483750D01*
X96314250Y-53325000D01*
X95723691Y-53325000D01*
X95490302Y-53421673D01*
X95311673Y-53600301D01*
X95253721Y-53740209D01*
X95248157Y-53712235D01*
X95107809Y-53502191D01*
X94897765Y-53361843D01*
X94650000Y-53312560D01*
X93150000Y-53312560D01*
X92902235Y-53361843D01*
X92692191Y-53502191D01*
X92551843Y-53712235D01*
X92549304Y-53725000D01*
X90330696Y-53725000D01*
X90328157Y-53712235D01*
X90187809Y-53502191D01*
X89977765Y-53361843D01*
X89730000Y-53312560D01*
X88230000Y-53312560D01*
X87982235Y-53361843D01*
X87772191Y-53502191D01*
X87631843Y-53712235D01*
X87630000Y-53721500D01*
X87628157Y-53712235D01*
X87487809Y-53502191D01*
X87277765Y-53361843D01*
X87030000Y-53312560D01*
X85530000Y-53312560D01*
X85282235Y-53361843D01*
X85072191Y-53502191D01*
X84931843Y-53712235D01*
X84882560Y-53960000D01*
X84882560Y-55260000D01*
X84931843Y-55507765D01*
X85072191Y-55717809D01*
X85282235Y-55858157D01*
X85530000Y-55907440D01*
X86425861Y-55907440D01*
X86792578Y-56274157D01*
X86841952Y-56348050D01*
X86915845Y-56397424D01*
X86915846Y-56397425D01*
X86979564Y-56440000D01*
X70560000Y-56440000D01*
X70560000Y-41910000D01*
X72962969Y-41910000D01*
X73089864Y-42547945D01*
X73451231Y-43088769D01*
X73587768Y-43180000D01*
X73451231Y-43271231D01*
X73089864Y-43812055D01*
X72962969Y-44450000D01*
X73089864Y-45087945D01*
X73451231Y-45628769D01*
X73587768Y-45720000D01*
X73451231Y-45811231D01*
X73089864Y-46352055D01*
X72962969Y-46990000D01*
X73089864Y-47627945D01*
X73451231Y-48168769D01*
X73587768Y-48260000D01*
X73451231Y-48351231D01*
X73089864Y-48892055D01*
X72962969Y-49530000D01*
X73089864Y-50167945D01*
X73320489Y-50513100D01*
X73172191Y-50612191D01*
X73031843Y-50822235D01*
X72982560Y-51070000D01*
X72982560Y-53070000D01*
X73031843Y-53317765D01*
X73172191Y-53527809D01*
X73382235Y-53668157D01*
X73630000Y-53717440D01*
X76230000Y-53717440D01*
X76477765Y-53668157D01*
X76687809Y-53527809D01*
X76828157Y-53317765D01*
X76877440Y-53070000D01*
X76877440Y-52955000D01*
X85992839Y-52955000D01*
X86080000Y-52972337D01*
X86167161Y-52955000D01*
X86167165Y-52955000D01*
X86425310Y-52903652D01*
X86718049Y-52708049D01*
X86766115Y-52636114D01*
X86838049Y-52588049D01*
X87033652Y-52295310D01*
X87078078Y-52071964D01*
X87197765Y-52048157D01*
X87407809Y-51907809D01*
X87548157Y-51697765D01*
X87550000Y-51688500D01*
X87551843Y-51697765D01*
X87692191Y-51907809D01*
X87902235Y-52048157D01*
X88150000Y-52097440D01*
X89650000Y-52097440D01*
X89897765Y-52048157D01*
X90107809Y-51907809D01*
X90248157Y-51697765D01*
X90250696Y-51685000D01*
X92549304Y-51685000D01*
X92551843Y-51697765D01*
X92692191Y-51907809D01*
X92902235Y-52048157D01*
X93150000Y-52097440D01*
X94650000Y-52097440D01*
X94897765Y-52048157D01*
X95107809Y-51907809D01*
X95248157Y-51697765D01*
X95253721Y-51669791D01*
X95311673Y-51809699D01*
X95490302Y-51988327D01*
X95723691Y-52085000D01*
X96314250Y-52085000D01*
X96473000Y-51926250D01*
X96473000Y-50927000D01*
X96727000Y-50927000D01*
X96727000Y-51926250D01*
X96885750Y-52085000D01*
X97476309Y-52085000D01*
X97709698Y-51988327D01*
X97888327Y-51809699D01*
X97985000Y-51576310D01*
X97985000Y-51085750D01*
X97826250Y-50927000D01*
X96727000Y-50927000D01*
X96473000Y-50927000D01*
X96453000Y-50927000D01*
X96453000Y-50673000D01*
X96473000Y-50673000D01*
X96473000Y-49673750D01*
X96727000Y-49673750D01*
X96727000Y-50673000D01*
X97826250Y-50673000D01*
X97985000Y-50514250D01*
X97985000Y-50023690D01*
X97888327Y-49790301D01*
X97709698Y-49611673D01*
X97476309Y-49515000D01*
X96885750Y-49515000D01*
X96727000Y-49673750D01*
X96473000Y-49673750D01*
X96314250Y-49515000D01*
X95723691Y-49515000D01*
X95490302Y-49611673D01*
X95311673Y-49790301D01*
X95253721Y-49930209D01*
X95248157Y-49902235D01*
X95107809Y-49692191D01*
X94897765Y-49551843D01*
X94650000Y-49502560D01*
X93150000Y-49502560D01*
X92902235Y-49551843D01*
X92692191Y-49692191D01*
X92551843Y-49902235D01*
X92549304Y-49915000D01*
X90250696Y-49915000D01*
X90248157Y-49902235D01*
X90107809Y-49692191D01*
X89897765Y-49551843D01*
X89650000Y-49502560D01*
X88150000Y-49502560D01*
X87902235Y-49551843D01*
X87692191Y-49692191D01*
X87551843Y-49902235D01*
X87550000Y-49911500D01*
X87548157Y-49902235D01*
X87407809Y-49692191D01*
X87197765Y-49551843D01*
X86950000Y-49502560D01*
X85450000Y-49502560D01*
X85202235Y-49551843D01*
X84992191Y-49692191D01*
X84851843Y-49902235D01*
X84807576Y-50124783D01*
X84751951Y-50161951D01*
X84556348Y-50454690D01*
X84487662Y-50800000D01*
X84556348Y-51145310D01*
X84582868Y-51185000D01*
X76877440Y-51185000D01*
X76877440Y-51070000D01*
X76828157Y-50822235D01*
X76687809Y-50612191D01*
X76539511Y-50513100D01*
X76770136Y-50167945D01*
X76897031Y-49530000D01*
X76770136Y-48892055D01*
X76408769Y-48351231D01*
X76272232Y-48260000D01*
X76408769Y-48168769D01*
X76770136Y-47627945D01*
X76897031Y-46990000D01*
X76770136Y-46352055D01*
X76408769Y-45811231D01*
X76272232Y-45720000D01*
X76408769Y-45628769D01*
X76770136Y-45087945D01*
X76897031Y-44450000D01*
X76770136Y-43812055D01*
X76408769Y-43271231D01*
X76272232Y-43180000D01*
X76408769Y-43088769D01*
X76770136Y-42547945D01*
X76897031Y-41910000D01*
X76770136Y-41272055D01*
X76408769Y-40731231D01*
X76242371Y-40620048D01*
X76475922Y-40436317D01*
X76789144Y-39878355D01*
X76820124Y-39750434D01*
X76700777Y-39497000D01*
X75057000Y-39497000D01*
X75057000Y-39517000D01*
X74803000Y-39517000D01*
X74803000Y-39497000D01*
X73159223Y-39497000D01*
X73039876Y-39750434D01*
X73070856Y-39878355D01*
X73384078Y-40436317D01*
X73617629Y-40620048D01*
X73451231Y-40731231D01*
X73089864Y-41272055D01*
X72962969Y-41910000D01*
X70560000Y-41910000D01*
X70560000Y-38989566D01*
X73039876Y-38989566D01*
X73159223Y-39243000D01*
X74803000Y-39243000D01*
X74803000Y-37735000D01*
X75057000Y-37735000D01*
X75057000Y-39243000D01*
X76700777Y-39243000D01*
X76820124Y-38989566D01*
X76789144Y-38861645D01*
X76475922Y-38303683D01*
X75973020Y-37908058D01*
X75357000Y-37735000D01*
X75057000Y-37735000D01*
X74803000Y-37735000D01*
X74503000Y-37735000D01*
X73886980Y-37908058D01*
X73384078Y-38303683D01*
X73070856Y-38861645D01*
X73039876Y-38989566D01*
X70560000Y-38989566D01*
X70560000Y-32659751D01*
X73320000Y-32659751D01*
X73320000Y-33300249D01*
X73565108Y-33891992D01*
X74018008Y-34344892D01*
X74609751Y-34590000D01*
X75250249Y-34590000D01*
X75277241Y-34578820D01*
X75432029Y-34733607D01*
X75561951Y-34928049D01*
X75635846Y-34977424D01*
X78072577Y-37414156D01*
X78121951Y-37488049D01*
X78195844Y-37537423D01*
X78195845Y-37537424D01*
X78414690Y-37683652D01*
X78672835Y-37735000D01*
X78672839Y-37735000D01*
X78760000Y-37752337D01*
X78847161Y-37735000D01*
X81304413Y-37735000D01*
X81326843Y-37847765D01*
X81467191Y-38057809D01*
X81530334Y-38100000D01*
X81467191Y-38142191D01*
X81326843Y-38352235D01*
X81277560Y-38600000D01*
X81277560Y-40100000D01*
X81326843Y-40347765D01*
X81467191Y-40557809D01*
X81677235Y-40698157D01*
X81925000Y-40747440D01*
X83175000Y-40747440D01*
X83422765Y-40698157D01*
X83632809Y-40557809D01*
X83773157Y-40347765D01*
X83795587Y-40235000D01*
X85913422Y-40235000D01*
X86056940Y-40378518D01*
X86004928Y-40640000D01*
X86124062Y-41238927D01*
X86463327Y-41746673D01*
X86971073Y-42085938D01*
X87418818Y-42175000D01*
X87721182Y-42175000D01*
X88168927Y-42085938D01*
X88676673Y-41746673D01*
X89015938Y-41238927D01*
X89135072Y-40640000D01*
X89404928Y-40640000D01*
X89524062Y-41238927D01*
X89863327Y-41746673D01*
X90371073Y-42085938D01*
X90818818Y-42175000D01*
X91121182Y-42175000D01*
X91568927Y-42085938D01*
X92076673Y-41746673D01*
X92415938Y-41238927D01*
X92462520Y-41004740D01*
X92878964Y-41004740D01*
X93057760Y-41436417D01*
X93462424Y-41877966D01*
X94005258Y-42131046D01*
X94243000Y-42010997D01*
X94243000Y-40767000D01*
X94497000Y-40767000D01*
X94497000Y-42010997D01*
X94734742Y-42131046D01*
X95277576Y-41877966D01*
X95682240Y-41436417D01*
X95861036Y-41004740D01*
X95740378Y-40767000D01*
X94497000Y-40767000D01*
X94243000Y-40767000D01*
X92999622Y-40767000D01*
X92878964Y-41004740D01*
X92462520Y-41004740D01*
X92535072Y-40640000D01*
X92462521Y-40275260D01*
X92878964Y-40275260D01*
X92999622Y-40513000D01*
X94243000Y-40513000D01*
X94243000Y-39269003D01*
X94497000Y-39269003D01*
X94497000Y-40513000D01*
X95740378Y-40513000D01*
X95861036Y-40275260D01*
X95682240Y-39843583D01*
X95277576Y-39402034D01*
X94734742Y-39148954D01*
X94497000Y-39269003D01*
X94243000Y-39269003D01*
X94005258Y-39148954D01*
X93462424Y-39402034D01*
X93057760Y-39843583D01*
X92878964Y-40275260D01*
X92462521Y-40275260D01*
X92415938Y-40041073D01*
X92076673Y-39533327D01*
X91568927Y-39194062D01*
X91121182Y-39105000D01*
X90818818Y-39105000D01*
X90371073Y-39194062D01*
X89863327Y-39533327D01*
X89524062Y-40041073D01*
X89404928Y-40640000D01*
X89135072Y-40640000D01*
X89015938Y-40041073D01*
X88676673Y-39533327D01*
X88168927Y-39194062D01*
X87721182Y-39105000D01*
X87418818Y-39105000D01*
X87308518Y-39126940D01*
X86967425Y-38785847D01*
X86918049Y-38711951D01*
X86625310Y-38516348D01*
X86367165Y-38465000D01*
X86367161Y-38465000D01*
X86280000Y-38447663D01*
X86192839Y-38465000D01*
X83795587Y-38465000D01*
X83773157Y-38352235D01*
X83632809Y-38142191D01*
X83569666Y-38100000D01*
X83632809Y-38057809D01*
X83773157Y-37847765D01*
X83795587Y-37735000D01*
X87892839Y-37735000D01*
X87980000Y-37752337D01*
X88067161Y-37735000D01*
X88067165Y-37735000D01*
X88325310Y-37683652D01*
X88618049Y-37488049D01*
X88667425Y-37414153D01*
X89008518Y-37073060D01*
X89118818Y-37095000D01*
X89421182Y-37095000D01*
X89868927Y-37005938D01*
X90376673Y-36666673D01*
X90715938Y-36158927D01*
X90762520Y-35924740D01*
X91178964Y-35924740D01*
X91357760Y-36356417D01*
X91762424Y-36797966D01*
X92305258Y-37051046D01*
X92543000Y-36930997D01*
X92543000Y-35687000D01*
X92797000Y-35687000D01*
X92797000Y-36930997D01*
X93034742Y-37051046D01*
X93577576Y-36797966D01*
X93982240Y-36356417D01*
X94161036Y-35924740D01*
X94040378Y-35687000D01*
X92797000Y-35687000D01*
X92543000Y-35687000D01*
X91299622Y-35687000D01*
X91178964Y-35924740D01*
X90762520Y-35924740D01*
X90835072Y-35560000D01*
X90762521Y-35195260D01*
X91178964Y-35195260D01*
X91299622Y-35433000D01*
X92543000Y-35433000D01*
X92543000Y-34189003D01*
X92797000Y-34189003D01*
X92797000Y-35433000D01*
X94040378Y-35433000D01*
X94161036Y-35195260D01*
X93982240Y-34763583D01*
X93577576Y-34322034D01*
X93034742Y-34068954D01*
X92797000Y-34189003D01*
X92543000Y-34189003D01*
X92305258Y-34068954D01*
X91762424Y-34322034D01*
X91357760Y-34763583D01*
X91178964Y-35195260D01*
X90762521Y-35195260D01*
X90715938Y-34961073D01*
X90376673Y-34453327D01*
X89868927Y-34114062D01*
X89421182Y-34025000D01*
X89118818Y-34025000D01*
X88671073Y-34114062D01*
X88163327Y-34453327D01*
X87824062Y-34961073D01*
X87704928Y-35560000D01*
X87756940Y-35821482D01*
X87613422Y-35965000D01*
X83795587Y-35965000D01*
X83773157Y-35852235D01*
X83632809Y-35642191D01*
X83422765Y-35501843D01*
X83175000Y-35452560D01*
X81925000Y-35452560D01*
X81677235Y-35501843D01*
X81467191Y-35642191D01*
X81326843Y-35852235D01*
X81304413Y-35965000D01*
X79126579Y-35965000D01*
X76967973Y-33806395D01*
X76838049Y-33611951D01*
X76764156Y-33562577D01*
X76528820Y-33327241D01*
X76540000Y-33300249D01*
X76540000Y-32659751D01*
X76294892Y-32068008D01*
X75841992Y-31615108D01*
X75250249Y-31370000D01*
X74609751Y-31370000D01*
X74018008Y-31615108D01*
X73565108Y-32068008D01*
X73320000Y-32659751D01*
X70560000Y-32659751D01*
X70560000Y-30344442D01*
X93065163Y-30344442D01*
X93160763Y-30608704D01*
X93761429Y-30831049D01*
X94401461Y-30806605D01*
X94879237Y-30608704D01*
X94974837Y-30344442D01*
X94020000Y-29389605D01*
X93065163Y-30344442D01*
X70560000Y-30344442D01*
X70560000Y-27659751D01*
X73320000Y-27659751D01*
X73320000Y-28300249D01*
X73565108Y-28891992D01*
X74018008Y-29344892D01*
X74609751Y-29590000D01*
X75250249Y-29590000D01*
X75841992Y-29344892D01*
X76235455Y-28951429D01*
X92398951Y-28951429D01*
X92423395Y-29591461D01*
X92621296Y-30069237D01*
X92885558Y-30164837D01*
X93840395Y-29210000D01*
X94199605Y-29210000D01*
X95154442Y-30164837D01*
X95418704Y-30069237D01*
X95641049Y-29468571D01*
X95616605Y-28828539D01*
X95418704Y-28350763D01*
X95154442Y-28255163D01*
X94199605Y-29210000D01*
X93840395Y-29210000D01*
X92885558Y-28255163D01*
X92621296Y-28350763D01*
X92398951Y-28951429D01*
X76235455Y-28951429D01*
X76294892Y-28891992D01*
X76540000Y-28300249D01*
X76540000Y-28075558D01*
X93065163Y-28075558D01*
X94020000Y-29030395D01*
X94974837Y-28075558D01*
X94879237Y-27811296D01*
X94278571Y-27588951D01*
X93638539Y-27613395D01*
X93160763Y-27811296D01*
X93065163Y-28075558D01*
X76540000Y-28075558D01*
X76540000Y-27659751D01*
X76294892Y-27068008D01*
X75841992Y-26615108D01*
X75250249Y-26370000D01*
X74609751Y-26370000D01*
X74018008Y-26615108D01*
X73565108Y-27068008D01*
X73320000Y-27659751D01*
X70560000Y-27659751D01*
X70560000Y-22300000D01*
X108510000Y-22300000D01*
X108510001Y-56440000D01*
X108510001Y-56440000D01*
G37*
X108510001Y-56440000D02*
X98210438Y-56440000D01*
X98348050Y-56348050D01*
X98397426Y-56274154D01*
X99684157Y-54987424D01*
X99758050Y-54938050D01*
X99833588Y-54825001D01*
X99953652Y-54645312D01*
X99953653Y-54645311D01*
X100005001Y-54387166D01*
X100005001Y-54387162D01*
X100022338Y-54300002D01*
X100005001Y-54212842D01*
X100005001Y-50175000D01*
X100242560Y-50175000D01*
X100242560Y-51425000D01*
X100291843Y-51672765D01*
X100432191Y-51882809D01*
X100642235Y-52023157D01*
X100890000Y-52072440D01*
X102390000Y-52072440D01*
X102637765Y-52023157D01*
X102847809Y-51882809D01*
X102890000Y-51819666D01*
X102932191Y-51882809D01*
X103142235Y-52023157D01*
X103390000Y-52072440D01*
X104890000Y-52072440D01*
X105137765Y-52023157D01*
X105347809Y-51882809D01*
X105488157Y-51672765D01*
X105537440Y-51425000D01*
X105537440Y-50175000D01*
X105488157Y-49927235D01*
X105348441Y-49718137D01*
X107244156Y-47822423D01*
X107318049Y-47773049D01*
X107513652Y-47480310D01*
X107565000Y-47222165D01*
X107565000Y-47222161D01*
X107582337Y-47135001D01*
X107565000Y-47047841D01*
X107565000Y-39457161D01*
X107582337Y-39370000D01*
X107565000Y-39282839D01*
X107565000Y-39282835D01*
X107513652Y-39024690D01*
X107318049Y-38731951D01*
X107244156Y-38682577D01*
X104383060Y-35821482D01*
X104435072Y-35560000D01*
X104315938Y-34961073D01*
X103976673Y-34453327D01*
X103468927Y-34114062D01*
X103021182Y-34025000D01*
X102718818Y-34025000D01*
X102271073Y-34114062D01*
X101763327Y-34453327D01*
X101424062Y-34961073D01*
X101304928Y-35560000D01*
X101424062Y-36158927D01*
X101763327Y-36666673D01*
X102271073Y-37005938D01*
X102718818Y-37095000D01*
X103021182Y-37095000D01*
X103131482Y-37073060D01*
X105150981Y-39092560D01*
X103670000Y-39092560D01*
X103422235Y-39141843D01*
X103212191Y-39282191D01*
X103071843Y-39492235D01*
X103022560Y-39740000D01*
X103022560Y-41540000D01*
X103071843Y-41787765D01*
X103212191Y-41997809D01*
X103301163Y-42057258D01*
X101035846Y-44322576D01*
X100961951Y-44371951D01*
X100912576Y-44445846D01*
X100766348Y-44664691D01*
X100697663Y-45010000D01*
X100755000Y-45298258D01*
X100755001Y-49554413D01*
X100642235Y-49576843D01*
X100432191Y-49717191D01*
X100291843Y-49927235D01*
X100242560Y-50175000D01*
X100005001Y-50175000D01*
X100005001Y-41659382D01*
X100063327Y-41746673D01*
X100571073Y-42085938D01*
X101018818Y-42175000D01*
X101321182Y-42175000D01*
X101768927Y-42085938D01*
X102276673Y-41746673D01*
X102615938Y-41238927D01*
X102735072Y-40640000D01*
X102615938Y-40041073D01*
X102276673Y-39533327D01*
X101768927Y-39194062D01*
X101321182Y-39105000D01*
X101018818Y-39105000D01*
X100571073Y-39194062D01*
X100063327Y-39533327D01*
X100005001Y-39620618D01*
X100005001Y-38697162D01*
X100022338Y-38610001D01*
X100005001Y-38522840D01*
X100005001Y-38522836D01*
X99953653Y-38264691D01*
X99758050Y-37971952D01*
X99684157Y-37922578D01*
X98558988Y-36797409D01*
X98871073Y-37005938D01*
X99318818Y-37095000D01*
X99621182Y-37095000D01*
X100068927Y-37005938D01*
X100576673Y-36666673D01*
X100915938Y-36158927D01*
X101035072Y-35560000D01*
X100915938Y-34961073D01*
X100576673Y-34453327D01*
X100068927Y-34114062D01*
X99621182Y-34025000D01*
X99318818Y-34025000D01*
X98871073Y-34114062D01*
X98363327Y-34453327D01*
X98024062Y-34961073D01*
X97904928Y-35560000D01*
X98024062Y-36158927D01*
X98232591Y-36471013D01*
X97657425Y-35895847D01*
X97657423Y-35895844D01*
X97583060Y-35821481D01*
X97635072Y-35560000D01*
X97515938Y-34961073D01*
X97176673Y-34453327D01*
X96955000Y-34305210D01*
X96955000Y-32526578D01*
X98672759Y-30808820D01*
X98699751Y-30820000D01*
X99340249Y-30820000D01*
X99931992Y-30574892D01*
X100384892Y-30121992D01*
X100630000Y-29530249D01*
X100630000Y-28889751D01*
X100384892Y-28298008D01*
X99931992Y-27845108D01*
X99340249Y-27600000D01*
X98699751Y-27600000D01*
X98108008Y-27845108D01*
X97655108Y-28298008D01*
X97410000Y-28889751D01*
X97410000Y-29530249D01*
X97421180Y-29557241D01*
X95505845Y-31472577D01*
X95431952Y-31521951D01*
X95382578Y-31595844D01*
X95382576Y-31595846D01*
X95236348Y-31814691D01*
X95167663Y-32160000D01*
X95185001Y-32247165D01*
X95185000Y-34305210D01*
X94963327Y-34453327D01*
X94624062Y-34961073D01*
X94504928Y-35560000D01*
X94624062Y-36158927D01*
X94963327Y-36666673D01*
X95471073Y-37005938D01*
X95918818Y-37095000D01*
X96221182Y-37095000D01*
X96331481Y-37073060D01*
X96405844Y-37147423D01*
X96405847Y-37147425D01*
X98235002Y-38976581D01*
X98235002Y-39167423D01*
X97921182Y-39105000D01*
X97618818Y-39105000D01*
X97171073Y-39194062D01*
X96663327Y-39533327D01*
X96324062Y-40041073D01*
X96204928Y-40640000D01*
X96324062Y-41238927D01*
X96663327Y-41746673D01*
X97171073Y-42085938D01*
X97618818Y-42175000D01*
X97921182Y-42175000D01*
X98235002Y-42112577D01*
X98235001Y-53933422D01*
X97985000Y-54183423D01*
X97985000Y-53833690D01*
X97888327Y-53600301D01*
X97709698Y-53421673D01*
X97476309Y-53325000D01*
X96885750Y-53325000D01*
X96727000Y-53483750D01*
X96727000Y-54483000D01*
X96747000Y-54483000D01*
X96747000Y-54737000D01*
X96727000Y-54737000D01*
X96727000Y-54757000D01*
X96473000Y-54757000D01*
X96473000Y-54737000D01*
X96453000Y-54737000D01*
X96453000Y-54483000D01*
X96473000Y-54483000D01*
X96473000Y-53483750D01*
X96314250Y-53325000D01*
X95723691Y-53325000D01*
X95490302Y-53421673D01*
X95311673Y-53600301D01*
X95253721Y-53740209D01*
X95248157Y-53712235D01*
X95107809Y-53502191D01*
X94897765Y-53361843D01*
X94650000Y-53312560D01*
X93150000Y-53312560D01*
X92902235Y-53361843D01*
X92692191Y-53502191D01*
X92551843Y-53712235D01*
X92549304Y-53725000D01*
X90330696Y-53725000D01*
X90328157Y-53712235D01*
X90187809Y-53502191D01*
X89977765Y-53361843D01*
X89730000Y-53312560D01*
X88230000Y-53312560D01*
X87982235Y-53361843D01*
X87772191Y-53502191D01*
X87631843Y-53712235D01*
X87630000Y-53721500D01*
X87628157Y-53712235D01*
X87487809Y-53502191D01*
X87277765Y-53361843D01*
X87030000Y-53312560D01*
X85530000Y-53312560D01*
X85282235Y-53361843D01*
X85072191Y-53502191D01*
X84931843Y-53712235D01*
X84882560Y-53960000D01*
X84882560Y-55260000D01*
X84931843Y-55507765D01*
X85072191Y-55717809D01*
X85282235Y-55858157D01*
X85530000Y-55907440D01*
X86425861Y-55907440D01*
X86792578Y-56274157D01*
X86841952Y-56348050D01*
X86915845Y-56397424D01*
X86915846Y-56397425D01*
X86979564Y-56440000D01*
X70560000Y-56440000D01*
X70560000Y-41910000D01*
X72962969Y-41910000D01*
X73089864Y-42547945D01*
X73451231Y-43088769D01*
X73587768Y-43180000D01*
X73451231Y-43271231D01*
X73089864Y-43812055D01*
X72962969Y-44450000D01*
X73089864Y-45087945D01*
X73451231Y-45628769D01*
X73587768Y-45720000D01*
X73451231Y-45811231D01*
X73089864Y-46352055D01*
X72962969Y-46990000D01*
X73089864Y-47627945D01*
X73451231Y-48168769D01*
X73587768Y-48260000D01*
X73451231Y-48351231D01*
X73089864Y-48892055D01*
X72962969Y-49530000D01*
X73089864Y-50167945D01*
X73320489Y-50513100D01*
X73172191Y-50612191D01*
X73031843Y-50822235D01*
X72982560Y-51070000D01*
X72982560Y-53070000D01*
X73031843Y-53317765D01*
X73172191Y-53527809D01*
X73382235Y-53668157D01*
X73630000Y-53717440D01*
X76230000Y-53717440D01*
X76477765Y-53668157D01*
X76687809Y-53527809D01*
X76828157Y-53317765D01*
X76877440Y-53070000D01*
X76877440Y-52955000D01*
X85992839Y-52955000D01*
X86080000Y-52972337D01*
X86167161Y-52955000D01*
X86167165Y-52955000D01*
X86425310Y-52903652D01*
X86718049Y-52708049D01*
X86766115Y-52636114D01*
X86838049Y-52588049D01*
X87033652Y-52295310D01*
X87078078Y-52071964D01*
X87197765Y-52048157D01*
X87407809Y-51907809D01*
X87548157Y-51697765D01*
X87550000Y-51688500D01*
X87551843Y-51697765D01*
X87692191Y-51907809D01*
X87902235Y-52048157D01*
X88150000Y-52097440D01*
X89650000Y-52097440D01*
X89897765Y-52048157D01*
X90107809Y-51907809D01*
X90248157Y-51697765D01*
X90250696Y-51685000D01*
X92549304Y-51685000D01*
X92551843Y-51697765D01*
X92692191Y-51907809D01*
X92902235Y-52048157D01*
X93150000Y-52097440D01*
X94650000Y-52097440D01*
X94897765Y-52048157D01*
X95107809Y-51907809D01*
X95248157Y-51697765D01*
X95253721Y-51669791D01*
X95311673Y-51809699D01*
X95490302Y-51988327D01*
X95723691Y-52085000D01*
X96314250Y-52085000D01*
X96473000Y-51926250D01*
X96473000Y-50927000D01*
X96727000Y-50927000D01*
X96727000Y-51926250D01*
X96885750Y-52085000D01*
X97476309Y-52085000D01*
X97709698Y-51988327D01*
X97888327Y-51809699D01*
X97985000Y-51576310D01*
X97985000Y-51085750D01*
X97826250Y-50927000D01*
X96727000Y-50927000D01*
X96473000Y-50927000D01*
X96453000Y-50927000D01*
X96453000Y-50673000D01*
X96473000Y-50673000D01*
X96473000Y-49673750D01*
X96727000Y-49673750D01*
X96727000Y-50673000D01*
X97826250Y-50673000D01*
X97985000Y-50514250D01*
X97985000Y-50023690D01*
X97888327Y-49790301D01*
X97709698Y-49611673D01*
X97476309Y-49515000D01*
X96885750Y-49515000D01*
X96727000Y-49673750D01*
X96473000Y-49673750D01*
X96314250Y-49515000D01*
X95723691Y-49515000D01*
X95490302Y-49611673D01*
X95311673Y-49790301D01*
X95253721Y-49930209D01*
X95248157Y-49902235D01*
X95107809Y-49692191D01*
X94897765Y-49551843D01*
X94650000Y-49502560D01*
X93150000Y-49502560D01*
X92902235Y-49551843D01*
X92692191Y-49692191D01*
X92551843Y-49902235D01*
X92549304Y-49915000D01*
X90250696Y-49915000D01*
X90248157Y-49902235D01*
X90107809Y-49692191D01*
X89897765Y-49551843D01*
X89650000Y-49502560D01*
X88150000Y-49502560D01*
X87902235Y-49551843D01*
X87692191Y-49692191D01*
X87551843Y-49902235D01*
X87550000Y-49911500D01*
X87548157Y-49902235D01*
X87407809Y-49692191D01*
X87197765Y-49551843D01*
X86950000Y-49502560D01*
X85450000Y-49502560D01*
X85202235Y-49551843D01*
X84992191Y-49692191D01*
X84851843Y-49902235D01*
X84807576Y-50124783D01*
X84751951Y-50161951D01*
X84556348Y-50454690D01*
X84487662Y-50800000D01*
X84556348Y-51145310D01*
X84582868Y-51185000D01*
X76877440Y-51185000D01*
X76877440Y-51070000D01*
X76828157Y-50822235D01*
X76687809Y-50612191D01*
X76539511Y-50513100D01*
X76770136Y-50167945D01*
X76897031Y-49530000D01*
X76770136Y-48892055D01*
X76408769Y-48351231D01*
X76272232Y-48260000D01*
X76408769Y-48168769D01*
X76770136Y-47627945D01*
X76897031Y-46990000D01*
X76770136Y-46352055D01*
X76408769Y-45811231D01*
X76272232Y-45720000D01*
X76408769Y-45628769D01*
X76770136Y-45087945D01*
X76897031Y-44450000D01*
X76770136Y-43812055D01*
X76408769Y-43271231D01*
X76272232Y-43180000D01*
X76408769Y-43088769D01*
X76770136Y-42547945D01*
X76897031Y-41910000D01*
X76770136Y-41272055D01*
X76408769Y-40731231D01*
X76242371Y-40620048D01*
X76475922Y-40436317D01*
X76789144Y-39878355D01*
X76820124Y-39750434D01*
X76700777Y-39497000D01*
X75057000Y-39497000D01*
X75057000Y-39517000D01*
X74803000Y-39517000D01*
X74803000Y-39497000D01*
X73159223Y-39497000D01*
X73039876Y-39750434D01*
X73070856Y-39878355D01*
X73384078Y-40436317D01*
X73617629Y-40620048D01*
X73451231Y-40731231D01*
X73089864Y-41272055D01*
X72962969Y-41910000D01*
X70560000Y-41910000D01*
X70560000Y-38989566D01*
X73039876Y-38989566D01*
X73159223Y-39243000D01*
X74803000Y-39243000D01*
X74803000Y-37735000D01*
X75057000Y-37735000D01*
X75057000Y-39243000D01*
X76700777Y-39243000D01*
X76820124Y-38989566D01*
X76789144Y-38861645D01*
X76475922Y-38303683D01*
X75973020Y-37908058D01*
X75357000Y-37735000D01*
X75057000Y-37735000D01*
X74803000Y-37735000D01*
X74503000Y-37735000D01*
X73886980Y-37908058D01*
X73384078Y-38303683D01*
X73070856Y-38861645D01*
X73039876Y-38989566D01*
X70560000Y-38989566D01*
X70560000Y-32659751D01*
X73320000Y-32659751D01*
X73320000Y-33300249D01*
X73565108Y-33891992D01*
X74018008Y-34344892D01*
X74609751Y-34590000D01*
X75250249Y-34590000D01*
X75277241Y-34578820D01*
X75432029Y-34733607D01*
X75561951Y-34928049D01*
X75635846Y-34977424D01*
X78072577Y-37414156D01*
X78121951Y-37488049D01*
X78195844Y-37537423D01*
X78195845Y-37537424D01*
X78414690Y-37683652D01*
X78672835Y-37735000D01*
X78672839Y-37735000D01*
X78760000Y-37752337D01*
X78847161Y-37735000D01*
X81304413Y-37735000D01*
X81326843Y-37847765D01*
X81467191Y-38057809D01*
X81530334Y-38100000D01*
X81467191Y-38142191D01*
X81326843Y-38352235D01*
X81277560Y-38600000D01*
X81277560Y-40100000D01*
X81326843Y-40347765D01*
X81467191Y-40557809D01*
X81677235Y-40698157D01*
X81925000Y-40747440D01*
X83175000Y-40747440D01*
X83422765Y-40698157D01*
X83632809Y-40557809D01*
X83773157Y-40347765D01*
X83795587Y-40235000D01*
X85913422Y-40235000D01*
X86056940Y-40378518D01*
X86004928Y-40640000D01*
X86124062Y-41238927D01*
X86463327Y-41746673D01*
X86971073Y-42085938D01*
X87418818Y-42175000D01*
X87721182Y-42175000D01*
X88168927Y-42085938D01*
X88676673Y-41746673D01*
X89015938Y-41238927D01*
X89135072Y-40640000D01*
X89404928Y-40640000D01*
X89524062Y-41238927D01*
X89863327Y-41746673D01*
X90371073Y-42085938D01*
X90818818Y-42175000D01*
X91121182Y-42175000D01*
X91568927Y-42085938D01*
X92076673Y-41746673D01*
X92415938Y-41238927D01*
X92462520Y-41004740D01*
X92878964Y-41004740D01*
X93057760Y-41436417D01*
X93462424Y-41877966D01*
X94005258Y-42131046D01*
X94243000Y-42010997D01*
X94243000Y-40767000D01*
X94497000Y-40767000D01*
X94497000Y-42010997D01*
X94734742Y-42131046D01*
X95277576Y-41877966D01*
X95682240Y-41436417D01*
X95861036Y-41004740D01*
X95740378Y-40767000D01*
X94497000Y-40767000D01*
X94243000Y-40767000D01*
X92999622Y-40767000D01*
X92878964Y-41004740D01*
X92462520Y-41004740D01*
X92535072Y-40640000D01*
X92462521Y-40275260D01*
X92878964Y-40275260D01*
X92999622Y-40513000D01*
X94243000Y-40513000D01*
X94243000Y-39269003D01*
X94497000Y-39269003D01*
X94497000Y-40513000D01*
X95740378Y-40513000D01*
X95861036Y-40275260D01*
X95682240Y-39843583D01*
X95277576Y-39402034D01*
X94734742Y-39148954D01*
X94497000Y-39269003D01*
X94243000Y-39269003D01*
X94005258Y-39148954D01*
X93462424Y-39402034D01*
X93057760Y-39843583D01*
X92878964Y-40275260D01*
X92462521Y-40275260D01*
X92415938Y-40041073D01*
X92076673Y-39533327D01*
X91568927Y-39194062D01*
X91121182Y-39105000D01*
X90818818Y-39105000D01*
X90371073Y-39194062D01*
X89863327Y-39533327D01*
X89524062Y-40041073D01*
X89404928Y-40640000D01*
X89135072Y-40640000D01*
X89015938Y-40041073D01*
X88676673Y-39533327D01*
X88168927Y-39194062D01*
X87721182Y-39105000D01*
X87418818Y-39105000D01*
X87308518Y-39126940D01*
X86967425Y-38785847D01*
X86918049Y-38711951D01*
X86625310Y-38516348D01*
X86367165Y-38465000D01*
X86367161Y-38465000D01*
X86280000Y-38447663D01*
X86192839Y-38465000D01*
X83795587Y-38465000D01*
X83773157Y-38352235D01*
X83632809Y-38142191D01*
X83569666Y-38100000D01*
X83632809Y-38057809D01*
X83773157Y-37847765D01*
X83795587Y-37735000D01*
X87892839Y-37735000D01*
X87980000Y-37752337D01*
X88067161Y-37735000D01*
X88067165Y-37735000D01*
X88325310Y-37683652D01*
X88618049Y-37488049D01*
X88667425Y-37414153D01*
X89008518Y-37073060D01*
X89118818Y-37095000D01*
X89421182Y-37095000D01*
X89868927Y-37005938D01*
X90376673Y-36666673D01*
X90715938Y-36158927D01*
X90762520Y-35924740D01*
X91178964Y-35924740D01*
X91357760Y-36356417D01*
X91762424Y-36797966D01*
X92305258Y-37051046D01*
X92543000Y-36930997D01*
X92543000Y-35687000D01*
X92797000Y-35687000D01*
X92797000Y-36930997D01*
X93034742Y-37051046D01*
X93577576Y-36797966D01*
X93982240Y-36356417D01*
X94161036Y-35924740D01*
X94040378Y-35687000D01*
X92797000Y-35687000D01*
X92543000Y-35687000D01*
X91299622Y-35687000D01*
X91178964Y-35924740D01*
X90762520Y-35924740D01*
X90835072Y-35560000D01*
X90762521Y-35195260D01*
X91178964Y-35195260D01*
X91299622Y-35433000D01*
X92543000Y-35433000D01*
X92543000Y-34189003D01*
X92797000Y-34189003D01*
X92797000Y-35433000D01*
X94040378Y-35433000D01*
X94161036Y-35195260D01*
X93982240Y-34763583D01*
X93577576Y-34322034D01*
X93034742Y-34068954D01*
X92797000Y-34189003D01*
X92543000Y-34189003D01*
X92305258Y-34068954D01*
X91762424Y-34322034D01*
X91357760Y-34763583D01*
X91178964Y-35195260D01*
X90762521Y-35195260D01*
X90715938Y-34961073D01*
X90376673Y-34453327D01*
X89868927Y-34114062D01*
X89421182Y-34025000D01*
X89118818Y-34025000D01*
X88671073Y-34114062D01*
X88163327Y-34453327D01*
X87824062Y-34961073D01*
X87704928Y-35560000D01*
X87756940Y-35821482D01*
X87613422Y-35965000D01*
X83795587Y-35965000D01*
X83773157Y-35852235D01*
X83632809Y-35642191D01*
X83422765Y-35501843D01*
X83175000Y-35452560D01*
X81925000Y-35452560D01*
X81677235Y-35501843D01*
X81467191Y-35642191D01*
X81326843Y-35852235D01*
X81304413Y-35965000D01*
X79126579Y-35965000D01*
X76967973Y-33806395D01*
X76838049Y-33611951D01*
X76764156Y-33562577D01*
X76528820Y-33327241D01*
X76540000Y-33300249D01*
X76540000Y-32659751D01*
X76294892Y-32068008D01*
X75841992Y-31615108D01*
X75250249Y-31370000D01*
X74609751Y-31370000D01*
X74018008Y-31615108D01*
X73565108Y-32068008D01*
X73320000Y-32659751D01*
X70560000Y-32659751D01*
X70560000Y-30344442D01*
X93065163Y-30344442D01*
X93160763Y-30608704D01*
X93761429Y-30831049D01*
X94401461Y-30806605D01*
X94879237Y-30608704D01*
X94974837Y-30344442D01*
X94020000Y-29389605D01*
X93065163Y-30344442D01*
X70560000Y-30344442D01*
X70560000Y-27659751D01*
X73320000Y-27659751D01*
X73320000Y-28300249D01*
X73565108Y-28891992D01*
X74018008Y-29344892D01*
X74609751Y-29590000D01*
X75250249Y-29590000D01*
X75841992Y-29344892D01*
X76235455Y-28951429D01*
X92398951Y-28951429D01*
X92423395Y-29591461D01*
X92621296Y-30069237D01*
X92885558Y-30164837D01*
X93840395Y-29210000D01*
X94199605Y-29210000D01*
X95154442Y-30164837D01*
X95418704Y-30069237D01*
X95641049Y-29468571D01*
X95616605Y-28828539D01*
X95418704Y-28350763D01*
X95154442Y-28255163D01*
X94199605Y-29210000D01*
X93840395Y-29210000D01*
X92885558Y-28255163D01*
X92621296Y-28350763D01*
X92398951Y-28951429D01*
X76235455Y-28951429D01*
X76294892Y-28891992D01*
X76540000Y-28300249D01*
X76540000Y-28075558D01*
X93065163Y-28075558D01*
X94020000Y-29030395D01*
X94974837Y-28075558D01*
X94879237Y-27811296D01*
X94278571Y-27588951D01*
X93638539Y-27613395D01*
X93160763Y-27811296D01*
X93065163Y-28075558D01*
X76540000Y-28075558D01*
X76540000Y-27659751D01*
X76294892Y-27068008D01*
X75841992Y-26615108D01*
X75250249Y-26370000D01*
X74609751Y-26370000D01*
X74018008Y-26615108D01*
X73565108Y-27068008D01*
X73320000Y-27659751D01*
X70560000Y-27659751D01*
X70560000Y-22300000D01*
X108510000Y-22300000D01*
X108510001Y-56440000D01*
G04 #@! TD*
M02*
