G04 #@! TF.FileFunction,Copper,L2,Bot,Signal*
%FSLAX46Y46*%
G04 Gerber Fmt 4.6, Leading zero omitted, Abs format (unit mm)*
G04 Created by KiCad (PCBNEW 4.0.7+dfsg1-1ubuntu2) date Fri Sep 14 11:58:39 2018*
%MOMM*%
%LPD*%
G01*
G04 APERTURE LIST*
%ADD10C,0.100000*%
%ADD11C,1.950000*%
%ADD12R,1.800000X1.800000*%
%ADD13O,1.800000X1.800000*%
%ADD14R,2.600000X2.000000*%
%ADD15O,2.600000X2.000000*%
%ADD16C,0.500000*%
%ADD17C,0.254000*%
G04 APERTURE END LIST*
D10*
D11*
X113030000Y-25440000D03*
X113030000Y-30440000D03*
D12*
X104570000Y-40640000D03*
D13*
X102870000Y-35560000D03*
X101170000Y-40640000D03*
X99470000Y-35560000D03*
X97770000Y-40640000D03*
X96070000Y-35560000D03*
X94370000Y-40640000D03*
X92670000Y-35560000D03*
X90970000Y-40640000D03*
X89270000Y-35560000D03*
X87570000Y-40640000D03*
D14*
X74930000Y-52070000D03*
D15*
X74930000Y-49530000D03*
X74930000Y-46990000D03*
X74930000Y-44450000D03*
X74930000Y-41910000D03*
X74930000Y-39370000D03*
D11*
X74930000Y-27980000D03*
X74930000Y-32980000D03*
D16*
X74930000Y-27980000D02*
X95290000Y-27980000D01*
X95290000Y-27980000D02*
X102870000Y-35560000D01*
X86921999Y-41990001D02*
X87630000Y-41990001D01*
X87630000Y-41990001D02*
X99819999Y-41990001D01*
X74930000Y-49530000D02*
X80090001Y-49530000D01*
X80090001Y-49530000D02*
X87630000Y-41990001D01*
X86841998Y-41910000D02*
X86921999Y-41990001D01*
X99819999Y-41990001D02*
X100270001Y-41539999D01*
X100270001Y-41539999D02*
X101170000Y-40640000D01*
X74930000Y-46990000D02*
X76730000Y-46990000D01*
X76730000Y-46990000D02*
X86809999Y-36910001D01*
X86809999Y-36910001D02*
X98119999Y-36910001D01*
X98119999Y-36910001D02*
X98570001Y-36459999D01*
X98570001Y-36459999D02*
X99470000Y-35560000D01*
X74930000Y-44450000D02*
X74630000Y-44450000D01*
X74630000Y-44450000D02*
X73130000Y-45950000D01*
X73130000Y-45950000D02*
X73130000Y-53380002D01*
X73130000Y-53380002D02*
X73269999Y-53520001D01*
X73269999Y-53520001D02*
X90288001Y-53520001D01*
X90288001Y-53520001D02*
X102520001Y-41288001D01*
X102520001Y-41288001D02*
X102520001Y-39991999D01*
X102520001Y-39991999D02*
X101818001Y-39289999D01*
X101818001Y-39289999D02*
X99120001Y-39289999D01*
X99120001Y-39289999D02*
X98669999Y-39740001D01*
X98669999Y-39740001D02*
X97770000Y-40640000D01*
X74930000Y-41910000D02*
X75230000Y-41910000D01*
X75230000Y-41910000D02*
X82930001Y-34209999D01*
X82930001Y-34209999D02*
X100118001Y-34209999D01*
X100118001Y-34209999D02*
X100820001Y-34911999D01*
X100820001Y-34911999D02*
X100820001Y-36208001D01*
X100820001Y-36208001D02*
X99417991Y-37610011D01*
X99417991Y-37610011D02*
X93999989Y-37610011D01*
X93999989Y-37610011D02*
X91869999Y-39740001D01*
X91869999Y-39740001D02*
X90970000Y-40640000D01*
D17*
G36*
X118670000Y-56440000D02*
X70560000Y-56440000D01*
X70560000Y-45950000D01*
X72244999Y-45950000D01*
X72245000Y-45950005D01*
X72245000Y-53379997D01*
X72244999Y-53380002D01*
X72273134Y-53521441D01*
X72312367Y-53718677D01*
X72405910Y-53858675D01*
X72504210Y-54005792D01*
X72644207Y-54145788D01*
X72644209Y-54145791D01*
X72931324Y-54337634D01*
X73269999Y-54405001D01*
X90287996Y-54405001D01*
X90288001Y-54405002D01*
X90570485Y-54348811D01*
X90626676Y-54337634D01*
X90913791Y-54145791D01*
X90913792Y-54145790D01*
X103145788Y-41913793D01*
X103145791Y-41913791D01*
X103150963Y-41906051D01*
X103205910Y-41991441D01*
X103418110Y-42136431D01*
X103670000Y-42187440D01*
X105470000Y-42187440D01*
X105705317Y-42143162D01*
X105921441Y-42004090D01*
X106066431Y-41791890D01*
X106117440Y-41540000D01*
X106117440Y-39740000D01*
X106073162Y-39504683D01*
X105934090Y-39288559D01*
X105721890Y-39143569D01*
X105470000Y-39092560D01*
X103670000Y-39092560D01*
X103434683Y-39136838D01*
X103218559Y-39275910D01*
X103151264Y-39374400D01*
X103145791Y-39366209D01*
X103145788Y-39366207D01*
X102443791Y-38664209D01*
X102156676Y-38472366D01*
X102100485Y-38461189D01*
X101818001Y-38404998D01*
X101817996Y-38404999D01*
X99790557Y-38404999D01*
X100043781Y-38235801D01*
X100043782Y-38235800D01*
X101445788Y-36833793D01*
X101445791Y-36833791D01*
X101621163Y-36571327D01*
X101637635Y-36546675D01*
X101649314Y-36487959D01*
X101754519Y-36645409D01*
X102252509Y-36978155D01*
X102839928Y-37095000D01*
X102900072Y-37095000D01*
X103487491Y-36978155D01*
X103985481Y-36645409D01*
X104318227Y-36147419D01*
X104435072Y-35560000D01*
X104318227Y-34972581D01*
X103985481Y-34474591D01*
X103487491Y-34141845D01*
X102900072Y-34025000D01*
X102839928Y-34025000D01*
X102628612Y-34067033D01*
X99320424Y-30758844D01*
X111419721Y-30758844D01*
X111664312Y-31350800D01*
X112116817Y-31804096D01*
X112708346Y-32049720D01*
X113348844Y-32050279D01*
X113940800Y-31805688D01*
X114394096Y-31353183D01*
X114639720Y-30761654D01*
X114640279Y-30121156D01*
X114395688Y-29529200D01*
X113943183Y-29075904D01*
X113351654Y-28830280D01*
X112711156Y-28829721D01*
X112119200Y-29074312D01*
X111665904Y-29526817D01*
X111420280Y-30118346D01*
X111419721Y-30758844D01*
X99320424Y-30758844D01*
X95915790Y-27354210D01*
X95628675Y-27162367D01*
X95572484Y-27151190D01*
X95290000Y-27094999D01*
X95289995Y-27095000D01*
X76306348Y-27095000D01*
X76295688Y-27069200D01*
X75843183Y-26615904D01*
X75743332Y-26574442D01*
X112075163Y-26574442D01*
X112170763Y-26838704D01*
X112771429Y-27061049D01*
X113411461Y-27036605D01*
X113889237Y-26838704D01*
X113984837Y-26574442D01*
X113030000Y-25619605D01*
X112075163Y-26574442D01*
X75743332Y-26574442D01*
X75251654Y-26370280D01*
X74611156Y-26369721D01*
X74019200Y-26614312D01*
X73565904Y-27066817D01*
X73320280Y-27658346D01*
X73319721Y-28298844D01*
X73564312Y-28890800D01*
X74016817Y-29344096D01*
X74608346Y-29589720D01*
X75248844Y-29590279D01*
X75840800Y-29345688D01*
X76294096Y-28893183D01*
X76305799Y-28865000D01*
X94923420Y-28865000D01*
X99383420Y-33324999D01*
X82930006Y-33324999D01*
X82930001Y-33324998D01*
X82647517Y-33381189D01*
X82591326Y-33392366D01*
X82304211Y-33584209D01*
X82304209Y-33584212D01*
X76750048Y-39138372D01*
X76820124Y-38989566D01*
X76789144Y-38861645D01*
X76475922Y-38303683D01*
X75973020Y-37908058D01*
X75357000Y-37735000D01*
X75057000Y-37735000D01*
X75057000Y-39243000D01*
X75077000Y-39243000D01*
X75077000Y-39497000D01*
X75057000Y-39497000D01*
X75057000Y-39517000D01*
X74803000Y-39517000D01*
X74803000Y-39497000D01*
X73159223Y-39497000D01*
X73039876Y-39750434D01*
X73070856Y-39878355D01*
X73384078Y-40436317D01*
X73626188Y-40626781D01*
X73435971Y-40753880D01*
X73081548Y-41284313D01*
X72957091Y-41910000D01*
X73081548Y-42535687D01*
X73435971Y-43066120D01*
X73606405Y-43180000D01*
X73435971Y-43293880D01*
X73081548Y-43824313D01*
X72957091Y-44450000D01*
X73026994Y-44801426D01*
X72504210Y-45324210D01*
X72312367Y-45611325D01*
X72312367Y-45611326D01*
X72244999Y-45950000D01*
X70560000Y-45950000D01*
X70560000Y-38989566D01*
X73039876Y-38989566D01*
X73159223Y-39243000D01*
X74803000Y-39243000D01*
X74803000Y-37735000D01*
X74503000Y-37735000D01*
X73886980Y-37908058D01*
X73384078Y-38303683D01*
X73070856Y-38861645D01*
X73039876Y-38989566D01*
X70560000Y-38989566D01*
X70560000Y-33298844D01*
X73319721Y-33298844D01*
X73564312Y-33890800D01*
X74016817Y-34344096D01*
X74608346Y-34589720D01*
X75248844Y-34590279D01*
X75840800Y-34345688D01*
X76294096Y-33893183D01*
X76539720Y-33301654D01*
X76540279Y-32661156D01*
X76295688Y-32069200D01*
X75843183Y-31615904D01*
X75251654Y-31370280D01*
X74611156Y-31369721D01*
X74019200Y-31614312D01*
X73565904Y-32066817D01*
X73320280Y-32658346D01*
X73319721Y-33298844D01*
X70560000Y-33298844D01*
X70560000Y-25181429D01*
X111408951Y-25181429D01*
X111433395Y-25821461D01*
X111631296Y-26299237D01*
X111895558Y-26394837D01*
X112850395Y-25440000D01*
X113209605Y-25440000D01*
X114164442Y-26394837D01*
X114428704Y-26299237D01*
X114651049Y-25698571D01*
X114626605Y-25058539D01*
X114428704Y-24580763D01*
X114164442Y-24485163D01*
X113209605Y-25440000D01*
X112850395Y-25440000D01*
X111895558Y-24485163D01*
X111631296Y-24580763D01*
X111408951Y-25181429D01*
X70560000Y-25181429D01*
X70560000Y-24305558D01*
X112075163Y-24305558D01*
X113030000Y-25260395D01*
X113984837Y-24305558D01*
X113889237Y-24041296D01*
X113288571Y-23818951D01*
X112648539Y-23843395D01*
X112170763Y-24041296D01*
X112075163Y-24305558D01*
X70560000Y-24305558D01*
X70560000Y-22300000D01*
X118670000Y-22300000D01*
X118670000Y-56440000D01*
X118670000Y-56440000D01*
G37*
X118670000Y-56440000D02*
X70560000Y-56440000D01*
X70560000Y-45950000D01*
X72244999Y-45950000D01*
X72245000Y-45950005D01*
X72245000Y-53379997D01*
X72244999Y-53380002D01*
X72273134Y-53521441D01*
X72312367Y-53718677D01*
X72405910Y-53858675D01*
X72504210Y-54005792D01*
X72644207Y-54145788D01*
X72644209Y-54145791D01*
X72931324Y-54337634D01*
X73269999Y-54405001D01*
X90287996Y-54405001D01*
X90288001Y-54405002D01*
X90570485Y-54348811D01*
X90626676Y-54337634D01*
X90913791Y-54145791D01*
X90913792Y-54145790D01*
X103145788Y-41913793D01*
X103145791Y-41913791D01*
X103150963Y-41906051D01*
X103205910Y-41991441D01*
X103418110Y-42136431D01*
X103670000Y-42187440D01*
X105470000Y-42187440D01*
X105705317Y-42143162D01*
X105921441Y-42004090D01*
X106066431Y-41791890D01*
X106117440Y-41540000D01*
X106117440Y-39740000D01*
X106073162Y-39504683D01*
X105934090Y-39288559D01*
X105721890Y-39143569D01*
X105470000Y-39092560D01*
X103670000Y-39092560D01*
X103434683Y-39136838D01*
X103218559Y-39275910D01*
X103151264Y-39374400D01*
X103145791Y-39366209D01*
X103145788Y-39366207D01*
X102443791Y-38664209D01*
X102156676Y-38472366D01*
X102100485Y-38461189D01*
X101818001Y-38404998D01*
X101817996Y-38404999D01*
X99790557Y-38404999D01*
X100043781Y-38235801D01*
X100043782Y-38235800D01*
X101445788Y-36833793D01*
X101445791Y-36833791D01*
X101621163Y-36571327D01*
X101637635Y-36546675D01*
X101649314Y-36487959D01*
X101754519Y-36645409D01*
X102252509Y-36978155D01*
X102839928Y-37095000D01*
X102900072Y-37095000D01*
X103487491Y-36978155D01*
X103985481Y-36645409D01*
X104318227Y-36147419D01*
X104435072Y-35560000D01*
X104318227Y-34972581D01*
X103985481Y-34474591D01*
X103487491Y-34141845D01*
X102900072Y-34025000D01*
X102839928Y-34025000D01*
X102628612Y-34067033D01*
X99320424Y-30758844D01*
X111419721Y-30758844D01*
X111664312Y-31350800D01*
X112116817Y-31804096D01*
X112708346Y-32049720D01*
X113348844Y-32050279D01*
X113940800Y-31805688D01*
X114394096Y-31353183D01*
X114639720Y-30761654D01*
X114640279Y-30121156D01*
X114395688Y-29529200D01*
X113943183Y-29075904D01*
X113351654Y-28830280D01*
X112711156Y-28829721D01*
X112119200Y-29074312D01*
X111665904Y-29526817D01*
X111420280Y-30118346D01*
X111419721Y-30758844D01*
X99320424Y-30758844D01*
X95915790Y-27354210D01*
X95628675Y-27162367D01*
X95572484Y-27151190D01*
X95290000Y-27094999D01*
X95289995Y-27095000D01*
X76306348Y-27095000D01*
X76295688Y-27069200D01*
X75843183Y-26615904D01*
X75743332Y-26574442D01*
X112075163Y-26574442D01*
X112170763Y-26838704D01*
X112771429Y-27061049D01*
X113411461Y-27036605D01*
X113889237Y-26838704D01*
X113984837Y-26574442D01*
X113030000Y-25619605D01*
X112075163Y-26574442D01*
X75743332Y-26574442D01*
X75251654Y-26370280D01*
X74611156Y-26369721D01*
X74019200Y-26614312D01*
X73565904Y-27066817D01*
X73320280Y-27658346D01*
X73319721Y-28298844D01*
X73564312Y-28890800D01*
X74016817Y-29344096D01*
X74608346Y-29589720D01*
X75248844Y-29590279D01*
X75840800Y-29345688D01*
X76294096Y-28893183D01*
X76305799Y-28865000D01*
X94923420Y-28865000D01*
X99383420Y-33324999D01*
X82930006Y-33324999D01*
X82930001Y-33324998D01*
X82647517Y-33381189D01*
X82591326Y-33392366D01*
X82304211Y-33584209D01*
X82304209Y-33584212D01*
X76750048Y-39138372D01*
X76820124Y-38989566D01*
X76789144Y-38861645D01*
X76475922Y-38303683D01*
X75973020Y-37908058D01*
X75357000Y-37735000D01*
X75057000Y-37735000D01*
X75057000Y-39243000D01*
X75077000Y-39243000D01*
X75077000Y-39497000D01*
X75057000Y-39497000D01*
X75057000Y-39517000D01*
X74803000Y-39517000D01*
X74803000Y-39497000D01*
X73159223Y-39497000D01*
X73039876Y-39750434D01*
X73070856Y-39878355D01*
X73384078Y-40436317D01*
X73626188Y-40626781D01*
X73435971Y-40753880D01*
X73081548Y-41284313D01*
X72957091Y-41910000D01*
X73081548Y-42535687D01*
X73435971Y-43066120D01*
X73606405Y-43180000D01*
X73435971Y-43293880D01*
X73081548Y-43824313D01*
X72957091Y-44450000D01*
X73026994Y-44801426D01*
X72504210Y-45324210D01*
X72312367Y-45611325D01*
X72312367Y-45611326D01*
X72244999Y-45950000D01*
X70560000Y-45950000D01*
X70560000Y-38989566D01*
X73039876Y-38989566D01*
X73159223Y-39243000D01*
X74803000Y-39243000D01*
X74803000Y-37735000D01*
X74503000Y-37735000D01*
X73886980Y-37908058D01*
X73384078Y-38303683D01*
X73070856Y-38861645D01*
X73039876Y-38989566D01*
X70560000Y-38989566D01*
X70560000Y-33298844D01*
X73319721Y-33298844D01*
X73564312Y-33890800D01*
X74016817Y-34344096D01*
X74608346Y-34589720D01*
X75248844Y-34590279D01*
X75840800Y-34345688D01*
X76294096Y-33893183D01*
X76539720Y-33301654D01*
X76540279Y-32661156D01*
X76295688Y-32069200D01*
X75843183Y-31615904D01*
X75251654Y-31370280D01*
X74611156Y-31369721D01*
X74019200Y-31614312D01*
X73565904Y-32066817D01*
X73320280Y-32658346D01*
X73319721Y-33298844D01*
X70560000Y-33298844D01*
X70560000Y-25181429D01*
X111408951Y-25181429D01*
X111433395Y-25821461D01*
X111631296Y-26299237D01*
X111895558Y-26394837D01*
X112850395Y-25440000D01*
X113209605Y-25440000D01*
X114164442Y-26394837D01*
X114428704Y-26299237D01*
X114651049Y-25698571D01*
X114626605Y-25058539D01*
X114428704Y-24580763D01*
X114164442Y-24485163D01*
X113209605Y-25440000D01*
X112850395Y-25440000D01*
X111895558Y-24485163D01*
X111631296Y-24580763D01*
X111408951Y-25181429D01*
X70560000Y-25181429D01*
X70560000Y-24305558D01*
X112075163Y-24305558D01*
X113030000Y-25260395D01*
X113984837Y-24305558D01*
X113889237Y-24041296D01*
X113288571Y-23818951D01*
X112648539Y-23843395D01*
X112170763Y-24041296D01*
X112075163Y-24305558D01*
X70560000Y-24305558D01*
X70560000Y-22300000D01*
X118670000Y-22300000D01*
X118670000Y-56440000D01*
G36*
X98494211Y-38664209D02*
X98494209Y-38664212D01*
X98044209Y-39114211D01*
X98044207Y-39114214D01*
X98011388Y-39147033D01*
X97800072Y-39105000D01*
X97739928Y-39105000D01*
X97152509Y-39221845D01*
X96654519Y-39554591D01*
X96321773Y-40052581D01*
X96204928Y-40640000D01*
X96297423Y-41105001D01*
X95819509Y-41105001D01*
X95861036Y-41004740D01*
X95740378Y-40767000D01*
X94497000Y-40767000D01*
X94497000Y-40787000D01*
X94243000Y-40787000D01*
X94243000Y-40767000D01*
X92999622Y-40767000D01*
X92878964Y-41004740D01*
X92920491Y-41105001D01*
X92442577Y-41105001D01*
X92535072Y-40640000D01*
X92483060Y-40378519D01*
X92495786Y-40365793D01*
X92495789Y-40365791D01*
X92586319Y-40275260D01*
X92878964Y-40275260D01*
X92999622Y-40513000D01*
X94243000Y-40513000D01*
X94243000Y-39269003D01*
X94497000Y-39269003D01*
X94497000Y-40513000D01*
X95740378Y-40513000D01*
X95861036Y-40275260D01*
X95682240Y-39843583D01*
X95277576Y-39402034D01*
X94734742Y-39148954D01*
X94497000Y-39269003D01*
X94243000Y-39269003D01*
X94005258Y-39148954D01*
X93462424Y-39402034D01*
X93057760Y-39843583D01*
X92878964Y-40275260D01*
X92586319Y-40275260D01*
X94366568Y-38495011D01*
X98747435Y-38495011D01*
X98494211Y-38664209D01*
X98494211Y-38664209D01*
G37*
X98494211Y-38664209D02*
X98494209Y-38664212D01*
X98044209Y-39114211D01*
X98044207Y-39114214D01*
X98011388Y-39147033D01*
X97800072Y-39105000D01*
X97739928Y-39105000D01*
X97152509Y-39221845D01*
X96654519Y-39554591D01*
X96321773Y-40052581D01*
X96204928Y-40640000D01*
X96297423Y-41105001D01*
X95819509Y-41105001D01*
X95861036Y-41004740D01*
X95740378Y-40767000D01*
X94497000Y-40767000D01*
X94497000Y-40787000D01*
X94243000Y-40787000D01*
X94243000Y-40767000D01*
X92999622Y-40767000D01*
X92878964Y-41004740D01*
X92920491Y-41105001D01*
X92442577Y-41105001D01*
X92535072Y-40640000D01*
X92483060Y-40378519D01*
X92495786Y-40365793D01*
X92495789Y-40365791D01*
X92586319Y-40275260D01*
X92878964Y-40275260D01*
X92999622Y-40513000D01*
X94243000Y-40513000D01*
X94243000Y-39269003D01*
X94497000Y-39269003D01*
X94497000Y-40513000D01*
X95740378Y-40513000D01*
X95861036Y-40275260D01*
X95682240Y-39843583D01*
X95277576Y-39402034D01*
X94734742Y-39148954D01*
X94497000Y-39269003D01*
X94243000Y-39269003D01*
X94005258Y-39148954D01*
X93462424Y-39402034D01*
X93057760Y-39843583D01*
X92878964Y-40275260D01*
X92586319Y-40275260D01*
X94366568Y-38495011D01*
X98747435Y-38495011D01*
X98494211Y-38664209D01*
G36*
X91178964Y-35195260D02*
X91299622Y-35433000D01*
X92543000Y-35433000D01*
X92543000Y-35413000D01*
X92797000Y-35413000D01*
X92797000Y-35433000D01*
X94040378Y-35433000D01*
X94161036Y-35195260D01*
X94119509Y-35094999D01*
X94597423Y-35094999D01*
X94504928Y-35560000D01*
X94597423Y-36025001D01*
X94119509Y-36025001D01*
X94161036Y-35924740D01*
X94040378Y-35687000D01*
X92797000Y-35687000D01*
X92797000Y-35707000D01*
X92543000Y-35707000D01*
X92543000Y-35687000D01*
X91299622Y-35687000D01*
X91178964Y-35924740D01*
X91220491Y-36025001D01*
X90742577Y-36025001D01*
X90835072Y-35560000D01*
X90742577Y-35094999D01*
X91220491Y-35094999D01*
X91178964Y-35195260D01*
X91178964Y-35195260D01*
G37*
X91178964Y-35195260D02*
X91299622Y-35433000D01*
X92543000Y-35433000D01*
X92543000Y-35413000D01*
X92797000Y-35413000D01*
X92797000Y-35433000D01*
X94040378Y-35433000D01*
X94161036Y-35195260D01*
X94119509Y-35094999D01*
X94597423Y-35094999D01*
X94504928Y-35560000D01*
X94597423Y-36025001D01*
X94119509Y-36025001D01*
X94161036Y-35924740D01*
X94040378Y-35687000D01*
X92797000Y-35687000D01*
X92797000Y-35707000D01*
X92543000Y-35707000D01*
X92543000Y-35687000D01*
X91299622Y-35687000D01*
X91178964Y-35924740D01*
X91220491Y-36025001D01*
X90742577Y-36025001D01*
X90835072Y-35560000D01*
X90742577Y-35094999D01*
X91220491Y-35094999D01*
X91178964Y-35195260D01*
M02*
