M48
;DRILL file {KiCad (5.0.0-3-g5ebb6b6)} date 2018 September 23, Sunday 14:54:26
;FORMAT={-:-/ absolute / inch / decimal}
FMAT,2
INCH,TZ
T1C0.0394
T2C0.0433
T3C0.0472
%
G90
G05
M72
T1
X3.4476Y-1.6
X3.5146Y-1.4
X3.5815Y-1.6
X3.6484Y-1.4
X3.7154Y-1.6
X3.7823Y-1.4
X3.8492Y-1.6
X3.9161Y-1.4
X3.9831Y-1.6
X4.05Y-1.4
X4.1169Y-1.6
T2
X3.7016Y-1.15
X3.8984Y-1.15
X2.95Y-1.1016
X2.95Y-1.2984
T3
X2.95Y-1.55
X2.95Y-1.65
X2.95Y-1.75
X2.95Y-1.85
X2.95Y-1.95
X2.95Y-2.05
T0
M30
